<?xml version="1.0" encoding="UTF-8"?>
<svg id="Capa_1" data-name="Capa 1" xmlns="http://www.w3.org/2000/svg" viewBox="0 0 685.723 677.731">
  <defs>
    <style>
      .cls-1 {
        fill: #fff;
        stroke-width: 0px;
      }
    </style>
  </defs>
  <path class="cls-1" d="m163.754,468.933c-20.68,6.72-40.213,13.065-59.745,19.414-19.67,6.394-39.357,12.739-58.988,19.254-2.658.882-3.584.445-4.452-2.247-13.306-41.274-26.68-82.526-40.214-123.725-1.102-3.355.506-3.727,2.798-4.466,38.067-12.272,76.123-24.577,114.179-36.882.941-.304,1.86-.677,3.028-1.105-.956-1.367-2.388-1.406-3.579-1.794-37.675-12.27-75.339-24.573-113.065-36.683-3.624-1.163-4.161-2.367-2.986-5.947,13.3-40.489,26.443-81.03,39.503-121.598,1.05-3.263,2.031-4.115,5.604-2.935,37.269,12.307,74.609,24.399,111.945,36.503,1.353.439,2.684,1.436,4.336.804.306-1.615-.978-2.467-1.722-3.492-23.242-32.009-46.487-64.017-69.838-95.947-1.8-2.461-1.81-3.569.807-5.462,34.986-25.304,69.896-50.712,104.739-76.212,2.5-1.83,3.474-1.394,5.141.913,23.391,32.368,46.88,64.665,70.349,96.976.725.997,1.487,1.967,2.431,3.212.896-1.514.541-2.874.542-4.128.024-39.714.071-79.428-.067-119.141-.012-3.532,1.037-4.242,4.352-4.234,42.577.109,85.154.117,127.73-.01,3.63-.011,4.798.667,4.781,4.612-.171,39.463-.104,78.928-.104,118.392,0,1.334,0,2.668,0,4.002.236.121.472.242.708.363.76-1.019,1.532-2.029,2.279-3.058,23.318-32.113,46.669-64.201,69.886-96.387,2.014-2.792,3.176-3.347,6.215-1.119,34.721,25.454,69.555,50.756,104.412,76.024,2.155,1.562,2.572,2.476.829,4.857-23.365,31.922-46.597,63.942-69.86,95.939-1.017,1.399-2.013,2.812-3.587,5.015,8.767-2.836,16.659-5.378,24.544-7.94,31.403-10.203,62.816-20.376,94.183-30.687,2.645-.87,3.58-.455,4.433,2.188,13.204,40.913,26.462,81.809,39.869,122.656,1.215,3.701.247,4.772-3.229,5.888-37.725,12.114-75.391,24.412-113.072,36.664-1.06.345-2.106.734-3.396,1.186.915,1.403,2.354,1.42,3.529,1.801,37.81,12.257,75.613,24.539,113.474,36.64,3.391,1.084,3.778,2.316,2.739,5.491-13.341,40.738-26.588,81.507-39.725,122.312-1.014,3.149-2.147,3.624-5.224,2.614-37.765-12.397-75.576-24.652-113.377-36.94-1.272-.414-2.558-.787-4.666-1.433,5.494,7.615,10.482,14.561,15.504,21.482,19.203,26.463,38.38,52.946,57.691,79.331,1.793,2.45,1.494,3.503-.845,5.194-34.99,25.298-69.935,50.657-104.811,76.112-2.415,1.763-3.442,1.493-5.125-.833-23.411-32.348-46.919-64.626-70.407-96.918-.722-.992-1.491-1.949-2.319-3.026-1.174,1.349-.62,2.764-.621,4.026-.037,39.714-.071,79.428.045,119.142.009,3.243-.724,4.152-4.078,4.143-42.951-.125-85.903-.118-128.854-.01-3.129.008-3.896-.822-3.887-3.917.109-39.714.072-79.428.072-119.142v-4.099c-1.741.506-2.153,1.781-2.845,2.733-23.351,32.085-46.727,64.153-69.944,96.335-2.187,3.031-3.456,3.226-6.492,1.006-34.547-25.271-69.194-50.406-103.903-75.456-2.573-1.857-2.7-2.939-.868-5.448,23.181-31.749,46.245-63.582,69.337-95.396,1.091-1.503,2.167-3.016,3.882-5.404Z"/>
</svg>