<svg width="533" height="98" viewBox="0 0 533 98" fill="none" xmlns="http://www.w3.org/2000/svg">
<g clip-path="url(#clip0_2_29)">
<path d="M153.18 75.75C169.417 75.75 182.58 62.5872 182.58 46.35C182.58 30.1128 169.417 16.95 153.18 16.95C136.943 16.95 123.78 30.1128 123.78 46.35C123.78 62.5872 136.943 75.75 153.18 75.75Z" fill="#FBD707"/>
<path d="M150.77 33.35C148.41 37 146.34 40.84 144.33 44.55C142.38 48.15 140.46 51.63 138.35 54.9L149.95 66.5C153.66 61.56 156.78 56.4 159.45 51.47C162.17 46.45 164.92 42 167.99 38.13L156.19 26.33C154.22 28.52 152.39 30.84 150.77 33.34V33.35Z" fill="#030B46"/>
<path d="M129.58 65.4C122.03 71.82 112.02 75.39 101.39 75.45C96.55 75.54 91.37 74.69 86.44 73.16C98.83 58.86 108.24 38.12 100.85 19.56C96.91 9.68001 87.93 2.59001 76.82 0.600012C65.77 -1.36999 54.99 2.11001 47.94 9.94001C32.85 26.68 38.1 53.53 51.9 69.81C53.52 71.73 55.26 73.53 57.11 75.22C55.23 76.12 53.28 76.92 51.27 77.62C36.95 82.57 21.19 81.34 7.77 74.32C6.36 77.11 4.9 79.88 3.44 82.64C2.32 84.75 1.16 86.84 0 88.93C23.51 101.25 51.63 100.01 72.67 85.64C83.63 90.83 96.16 93.02 108.6 91.56C124.79 89.67 136.3 82.02 144.93 72.61L133.66 61.34C132.4 62.79 131.06 64.16 129.58 65.42V65.4ZM83.53 46.53C83.36 46.98 83.19 47.43 83 47.87C80.19 54.6 76.17 60.52 71.15 65.42C63.39 59.61 57.55 51.43 55.86 41.3C54.46 32.88 56.62 21.62 64.84 17.28C72.33 13.33 81.01 16.93 84.23 24.61C87.09 31.44 86.03 39.75 83.52 46.52L83.53 46.53Z" fill="#030B46"/>
<path d="M528.99 82.18C527.49 79.44 525.99 76.68 524.4 73.97C523.8 74.21 523.17 74.48 522.51 74.81C509.51 81.31 494.14 82.39 480.36 77.77C478.1 77.01 475.9 76.11 473.77 75.06C478.46 70.68 482.5 65.57 485.65 59.89C490.58 51 492.88 41.61 492.29 32.71C491.61 22.39 487 13.03 479.62 7.04001C472.1 0.920014 461.57 -1.43999 452.15 0.870014C442.73 3.18001 434.49 10.14 430.65 19.04C425.75 30.37 428.23 42.47 431.17 50.63C434.12 58.81 438.65 66.38 444.36 72.92C433.09 76.8 421.71 75.93 412.01 70.08C401.47 63.71 394.58 52.23 387.93 41.12L385.8 37.58C373.01 16.32 363.76 0.960014 334.17 0.540014C323.36 0.460014 312.43 3.95001 303.09 10C302.96 9.93001 302.84 9.87001 302.71 9.80001C299.62 7.98001 296.35 6.43001 292.97 5.12001C292.1 4.77001 291.21 4.44001 290.3 4.12001C290.22 4.09001 290.14 4.06001 290.05 4.03001C288.05 3.34001 285.94 2.72001 283.6 2.19001C283.35 2.13001 283.11 2.10001 282.86 2.05001C269.43 -0.969986 255.02 -0.259986 242.32 4.63001C237.63 6.44001 233.17 8.79001 229 11.61C222.36 8.60001 215.03 6.72001 207.27 6.16001C190.25 4.93001 173.95 10.39 161.79 20.83L173.35 32.39C176.07 29.92 179.08 27.8 182.58 26.14C191.58 21.87 202.18 20.89 212.44 23.37C213.3 23.58 214.15 23.81 215 24.07C206.4 34.03 200.55 46.3 198.85 59.11C197.11 72.27 201.53 83.83 210.98 90.81C216.92 95.2 224.08 97.51 231.11 97.51C234.66 97.51 238.18 96.92 241.49 95.72C249.68 92.75 255.86 86.75 259.38 78.38C264.03 67.3 263.53 52.47 258.12 40.62C254.85 33.47 250.31 27.23 244.78 22.09C249.98 19.64 255.63 17.97 261.5 17.22C271.59 15.91 281.38 17.42 289.89 21.47C284.55 27.46 280.01 34.57 276.57 42.57C270.64 56.39 270.45 70.94 276.06 81.49C280.41 89.66 288 94.99 298.03 96.89C300.11 97.29 302.16 97.48 304.18 97.48C311.51 97.48 318.31 94.9 323.75 89.94C332.19 82.27 336.7 69.64 335.52 56.97C334.42 45.21 328.12 31.78 317.4 20.83C323.31 17.66 329.35 16.15 335.27 16.45C346.4 17.03 356.66 24 364.96 36.61C367.12 39.89 369.22 43.2 371.32 46.51C375.18 52.59 379.17 58.87 383.46 64.88C398.22 85.55 418.77 94.87 441.36 91.12C447.41 90.12 453.24 88.2 458.67 85.51C462.97 88.38 467.58 90.78 472.43 92.63C490.83 99.66 512.31 98.54 529.89 89.63C530.65 89.24 531.45 88.75 532.22 88.17C531.15 86.17 530.08 84.17 528.99 82.18ZM245.23 69.25C244.18 72.78 242.32 76.01 239.47 78.62C228.1 89.03 214.09 76.8 214.84 63.91C215.39 54.49 219.86 44.88 225.53 37.45C226.12 36.68 226.75 35.94 227.38 35.2C227.55 35 227.71 34.79 227.89 34.59C228.27 34.16 228.69 33.75 229.09 33.34C229.5 32.91 229.92 32.49 230.35 32.07C235.03 35.69 239.01 40.1 241.83 44.98C245.83 51.91 247.6 61.31 245.24 69.24L245.23 69.25ZM318.91 69.27C318.15 72.89 316.5 76.41 313.77 78.9C311.08 81.37 307.4 82.72 303.75 82.59C295.12 82.28 288.25 73.72 287.88 65.44C287.43 55.34 292.71 44.98 298.74 37.19C299.02 36.83 299.3 36.48 299.58 36.13C301.02 34.37 302.5 32.72 303.99 31.18C309.73 36.47 314.22 42.64 316.78 48.96C319.34 55.28 320.3 62.54 318.9 69.26L318.91 69.27ZM460.88 63.66C460.37 64.07 459.85 64.46 459.33 64.85C454.95 60.56 451.27 55.54 448.52 50C444.75 42.4 442.75 33.31 446.44 25.27C448.52 20.73 452.59 16.97 457.48 15.96C464.02 14.6 469.52 18.83 472.66 24.2C481.05 38.5 472.54 54.38 460.88 63.66Z" fill="#030B46"/>
</g>
<defs>
<clipPath id="clip0_2_29">
<rect width="532.23" height="97.51" fill="white"/>
</clipPath>
</defs>
</svg>
