<?xml version="1.0" encoding="UTF-8"?>
<svg id="Capa_2" data-name="Capa 2" xmlns="http://www.w3.org/2000/svg" viewBox="0 0 199.41 199.41">
  <defs>
    <style>
      .cls-1 {
        fill: #030b46;
      }
    </style>
  </defs>
  <g id="Capa_1-2" data-name="Capa 1">
    <g>
      <path class="cls-1" d="M99.71,199.41c-13.46,0-26.52-2.64-38.81-7.84-11.87-5.02-22.54-12.21-31.69-21.37-9.16-9.16-16.35-19.82-21.37-31.69C2.64,126.23,0,113.17,0,99.71s2.64-26.52,7.84-38.81c5.02-11.87,12.21-22.54,21.37-31.69,9.16-9.16,19.82-16.35,31.69-21.37C73.19,2.64,86.25,0,99.71,0s26.52,2.64,38.81,7.84c11.87,5.02,22.54,12.21,31.69,21.37,9.16,9.16,16.35,19.82,21.37,31.69,5.2,12.29,7.84,25.35,7.84,38.81s-2.64,26.52-7.84,38.81c-5.02,11.87-12.21,22.54-21.37,31.69-9.16,9.16-19.82,16.35-31.69,21.37-12.29,5.2-25.35,7.84-38.81,7.84M99.71,1.62c-13.24,0-26.09,2.59-38.18,7.71-11.68,4.94-22.17,12.01-31.18,21.02-9.01,9.01-16.08,19.5-21.02,31.18-5.11,12.09-7.71,24.94-7.71,38.18s2.59,26.09,7.71,38.18c4.94,11.68,12.01,22.17,21.02,31.18,9.01,9.01,19.5,16.08,31.18,21.02,12.09,5.11,24.94,7.71,38.18,7.71s26.09-2.59,38.18-7.71c11.68-4.94,22.17-12.01,31.18-21.02,9.01-9.01,16.08-19.5,21.02-31.18,5.11-12.09,7.71-24.94,7.71-38.18s-2.59-26.09-7.71-38.18c-4.94-11.68-12.01-22.17-21.02-31.18-9.01-9.01-19.5-16.08-31.18-21.02-12.09-5.11-24.94-7.71-38.18-7.71"/>
      <path class="cls-1" d="M99.71,193.47c-12.66,0-24.94-2.48-36.5-7.37-11.17-4.72-21.19-11.48-29.8-20.09-8.61-8.61-15.37-18.64-20.09-29.8-4.89-11.56-7.37-23.84-7.37-36.5s2.48-24.94,7.37-36.5c4.72-11.17,11.48-21.19,20.09-29.8,8.61-8.61,18.64-15.37,29.8-20.09,11.56-4.89,23.84-7.37,36.5-7.37s24.94,2.48,36.5,7.37c11.17,4.72,21.19,11.48,29.8,20.09,8.61,8.61,15.37,18.64,20.09,29.8,4.89,11.56,7.37,23.84,7.37,36.5s-2.48,24.94-7.37,36.5c-4.72,11.17-11.48,21.19-20.09,29.8-8.61,8.61-18.64,15.37-29.8,20.09-11.56,4.89-23.84,7.37-36.5,7.37M99.71,7.56c-12.44,0-24.51,2.44-35.87,7.24-10.97,4.64-20.83,11.28-29.29,19.75-8.46,8.46-15.11,18.32-19.75,29.29-4.8,11.36-7.24,23.43-7.24,35.87s2.44,24.51,7.24,35.87c4.64,10.97,11.29,20.83,19.75,29.29,8.46,8.46,18.32,15.11,29.29,19.75,11.36,4.8,23.43,7.24,35.87,7.24s24.51-2.44,35.87-7.24c10.97-4.64,20.83-11.28,29.29-19.75,8.46-8.46,15.11-18.32,19.75-29.29,4.8-11.36,7.24-23.43,7.24-35.87s-2.44-24.51-7.24-35.87c-4.64-10.97-11.29-20.83-19.75-29.29-8.46-8.46-18.32-15.11-29.29-19.75-11.36-4.8-23.43-7.24-35.87-7.24"/>
      <path class="cls-1" d="M99.71,187.53c-11.86,0-23.36-2.32-34.19-6.9-10.46-4.42-19.85-10.76-27.92-18.82-8.07-8.07-14.4-17.46-18.82-27.92-4.58-10.83-6.9-22.33-6.9-34.19s2.32-23.36,6.9-34.19c4.42-10.46,10.76-19.85,18.82-27.92,8.07-8.07,17.46-14.4,27.92-18.82,10.83-4.58,22.33-6.9,34.19-6.9s23.36,2.32,34.19,6.9c10.46,4.42,19.85,10.76,27.92,18.82,8.07,8.07,14.4,17.46,18.82,27.92,4.58,10.83,6.9,22.33,6.9,34.19s-2.32,23.36-6.9,34.19c-4.42,10.46-10.76,19.85-18.82,27.92-8.07,8.07-17.46,14.4-27.92,18.82-10.83,4.58-22.33,6.9-34.19,6.9M99.71,13.51c-11.64,0-22.93,2.28-33.55,6.77-10.26,4.34-19.48,10.56-27.4,18.47-7.92,7.92-14.13,17.14-18.47,27.4-4.5,10.63-6.77,21.92-6.77,33.55s2.28,22.93,6.77,33.55c4.34,10.26,10.56,19.48,18.47,27.4,7.92,7.92,17.14,14.13,27.4,18.47,10.63,4.5,21.92,6.77,33.55,6.77s22.93-2.28,33.55-6.77c10.26-4.34,19.48-10.56,27.4-18.47s14.13-17.14,18.47-27.4c4.5-10.63,6.77-21.92,6.77-33.55s-2.28-22.93-6.77-33.55c-4.34-10.26-10.56-19.48-18.47-27.4-7.92-7.92-17.14-14.13-27.4-18.47-10.63-4.5-21.92-6.77-33.55-6.77"/>
      <path class="cls-1" d="M99.71,181.59c-11.05,0-21.78-2.17-31.87-6.44-9.75-4.12-18.51-10.03-26.03-17.55-7.52-7.52-13.42-16.28-17.55-26.03-4.27-10.09-6.44-20.82-6.44-31.87s2.17-21.78,6.44-31.87c4.12-9.75,10.03-18.51,17.55-26.03,7.52-7.52,16.28-13.42,26.03-17.55,10.09-4.27,20.82-6.44,31.87-6.44s21.78,2.17,31.87,6.44c9.75,4.12,18.51,10.03,26.03,17.55,7.52,7.52,13.42,16.28,17.55,26.03,4.27,10.09,6.44,20.82,6.44,31.87s-2.17,21.78-6.44,31.87c-4.12,9.75-10.03,18.51-17.55,26.03-7.52,7.52-16.28,13.42-26.03,17.55-10.09,4.27-20.82,6.44-31.87,6.44M99.71,19.45c-10.84,0-21.35,2.12-31.24,6.31-9.56,4.04-18.14,9.83-25.51,17.2-7.37,7.37-13.16,15.95-17.2,25.51-4.18,9.89-6.31,20.41-6.31,31.24s2.12,21.35,6.31,31.24c4.04,9.56,9.83,18.14,17.2,25.51,7.37,7.37,15.95,13.16,25.51,17.2,9.89,4.18,20.41,6.31,31.24,6.31s21.35-2.12,31.24-6.31c9.56-4.04,18.14-9.83,25.51-17.2,7.37-7.37,13.16-15.95,17.2-25.51,4.18-9.89,6.31-20.41,6.31-31.24s-2.12-21.35-6.31-31.24c-4.04-9.56-9.83-18.14-17.2-25.51-7.37-7.37-15.95-13.16-25.51-17.2-9.89-4.18-20.41-6.31-31.24-6.31"/>
      <path class="cls-1" d="M99.71,175.65c-10.25,0-20.2-2.01-29.56-5.97-9.04-3.82-17.16-9.3-24.14-16.27-6.97-6.97-12.45-15.09-16.27-24.14-3.96-9.36-5.97-19.31-5.97-29.56s2.01-20.2,5.97-29.56c3.82-9.04,9.3-17.16,16.27-24.14,6.97-6.97,15.1-12.45,24.14-16.27,9.36-3.96,19.31-5.97,29.56-5.97s20.2,2.01,29.56,5.97c9.04,3.83,17.16,9.3,24.14,16.27,6.97,6.97,12.45,15.09,16.27,24.14,3.96,9.36,5.97,19.31,5.97,29.56s-2.01,20.2-5.97,29.56c-3.82,9.04-9.3,17.16-16.27,24.14-6.97,6.97-15.09,12.45-24.14,16.27-9.36,3.96-19.31,5.97-29.56,5.97M99.71,25.39c-10.03,0-19.77,1.96-28.93,5.84-8.85,3.74-16.8,9.1-23.62,15.93-6.82,6.83-12.18,14.77-15.93,23.62-3.87,9.16-5.84,18.89-5.84,28.93s1.96,19.77,5.84,28.93c3.74,8.85,9.1,16.8,15.93,23.62,6.83,6.83,14.77,12.18,23.62,15.93,9.16,3.88,18.89,5.84,28.93,5.84s19.77-1.96,28.93-5.84c8.85-3.74,16.8-9.1,23.62-15.93,6.82-6.83,12.18-14.77,15.93-23.62,3.88-9.16,5.84-18.89,5.84-28.93s-1.96-19.77-5.84-28.93c-3.74-8.85-9.1-16.8-15.93-23.62-6.83-6.83-14.77-12.18-23.62-15.93-9.16-3.88-18.89-5.84-28.93-5.84"/>
      <path class="cls-1" d="M99.71,169.7c-18.7,0-36.27-7.28-49.5-20.5-13.22-13.22-20.5-30.8-20.5-49.49s7.28-36.27,20.5-49.5c13.22-13.22,30.8-20.5,49.5-20.5s36.27,7.28,49.5,20.5c13.22,13.22,20.5,30.8,20.5,49.5s-7.28,36.27-20.5,49.49c-13.22,13.22-30.8,20.5-49.5,20.5M99.71,31.33c-18.26,0-35.43,7.11-48.35,20.03-12.91,12.91-20.03,30.08-20.03,48.35s7.11,35.43,20.03,48.35c12.91,12.91,30.09,20.03,48.35,20.03s35.43-7.11,48.35-20.03c12.91-12.91,20.03-30.09,20.03-48.35s-7.11-35.43-20.03-48.35c-12.91-12.91-30.09-20.03-48.35-20.03"/>
      <path class="cls-1" d="M99.71,163.76c-17.11,0-33.2-6.66-45.29-18.76-12.1-12.1-18.76-28.18-18.76-45.29s6.66-33.19,18.76-45.29c12.1-12.1,28.18-18.76,45.29-18.76s33.19,6.66,45.29,18.76c12.1,12.1,18.76,28.18,18.76,45.29s-6.66,33.19-18.76,45.29c-12.1,12.1-28.18,18.76-45.29,18.76M99.71,37.27c-16.68,0-32.36,6.49-44.15,18.29-11.79,11.79-18.29,27.47-18.29,44.15s6.49,32.36,18.29,44.15c11.79,11.79,27.47,18.29,44.15,18.29s32.35-6.49,44.15-18.29c11.79-11.79,18.29-27.47,18.29-44.15s-6.49-32.36-18.29-44.15c-11.79-11.79-27.47-18.29-44.15-18.29"/>
      <path class="cls-1" d="M99.71,157.82c-15.52,0-30.12-6.04-41.09-17.02-10.98-10.98-17.02-25.57-17.02-41.09s6.04-30.11,17.02-41.09c10.98-10.98,25.57-17.02,41.09-17.02s30.12,6.04,41.09,17.02c10.98,10.98,17.02,25.57,17.02,41.09s-6.04,30.12-17.02,41.09c-10.98,10.98-25.57,17.02-41.09,17.02M99.71,43.22c-15.09,0-29.28,5.88-39.94,16.55-10.67,10.67-16.55,24.86-16.55,39.94s5.88,29.28,16.55,39.95c10.67,10.67,24.86,16.55,39.94,16.55s29.28-5.88,39.94-16.55c10.67-10.67,16.55-24.86,16.55-39.95s-5.88-29.28-16.55-39.94c-10.67-10.67-24.86-16.55-39.94-16.55"/>
      <path class="cls-1" d="M99.71,151.88c-13.93,0-27.04-5.43-36.89-15.28-9.85-9.85-15.28-22.95-15.28-36.89s5.43-27.04,15.28-36.89c9.85-9.85,22.96-15.28,36.89-15.28s27.04,5.43,36.89,15.28c9.85,9.85,15.28,22.95,15.28,36.89s-5.43,27.04-15.28,36.89c-9.85,9.85-22.96,15.28-36.89,15.28M99.71,49.16c-13.5,0-26.2,5.26-35.74,14.81-9.55,9.55-14.81,22.24-14.81,35.74s5.26,26.2,14.81,35.74c9.55,9.55,22.24,14.81,35.74,14.81s26.2-5.26,35.74-14.81c9.55-9.55,14.81-22.24,14.81-35.74s-5.26-26.2-14.81-35.74c-9.55-9.55-22.24-14.81-35.74-14.81"/>
      <path class="cls-1" d="M99.71,145.94c-12.35,0-23.96-4.81-32.69-13.54-8.73-8.73-13.54-20.34-13.54-32.69s4.81-23.96,13.54-32.69c8.73-8.73,20.34-13.54,32.69-13.54s23.96,4.81,32.69,13.54c8.73,8.73,13.54,20.34,13.54,32.69s-4.81,23.96-13.54,32.69c-8.73,8.73-20.34,13.54-32.69,13.54M99.71,55.1c-11.92,0-23.12,4.64-31.54,13.07-8.43,8.43-13.07,19.63-13.07,31.54s4.64,23.12,13.07,31.54c8.43,8.43,19.63,13.07,31.54,13.07s23.12-4.64,31.54-13.07c8.43-8.43,13.07-19.63,13.07-31.54s-4.64-23.12-13.07-31.54c-8.43-8.43-19.63-13.07-31.54-13.07"/>
      <path class="cls-1" d="M99.71,139.99c-22.21,0-40.29-18.07-40.29-40.29s18.07-40.29,40.29-40.29,40.29,18.07,40.29,40.29-18.07,40.29-40.29,40.29M99.71,61.04c-21.32,0-38.66,17.35-38.66,38.66s17.35,38.67,38.66,38.67,38.66-17.35,38.66-38.67-17.35-38.66-38.66-38.66"/>
      <path class="cls-1" d="M99.71,134.05c-18.94,0-34.34-15.41-34.34-34.34s15.41-34.34,34.34-34.34,34.34,15.41,34.34,34.34-15.41,34.34-34.34,34.34M99.71,66.98c-18.04,0-32.72,14.68-32.72,32.72s14.68,32.72,32.72,32.72,32.72-14.68,32.72-32.72-14.68-32.72-32.72-32.72"/>
      <path class="cls-1" d="M99.71,128.11c-15.66,0-28.4-12.74-28.4-28.4s12.74-28.4,28.4-28.4,28.4,12.74,28.4,28.4-12.74,28.4-28.4,28.4M99.71,72.93c-14.77,0-26.78,12.01-26.78,26.78s12.01,26.78,26.78,26.78,26.78-12.01,26.78-26.78-12.01-26.78-26.78-26.78"/>
      <path class="cls-1" d="M99.71,122.17c-12.38,0-22.46-10.07-22.46-22.46s10.07-22.46,22.46-22.46,22.46,10.08,22.46,22.46-10.07,22.46-22.46,22.46M99.71,78.87c-11.49,0-20.84,9.35-20.84,20.84s9.35,20.84,20.84,20.84,20.84-9.35,20.84-20.84-9.35-20.84-20.84-20.84"/>
    </g>
  </g>
</svg>