<svg width="533" height="99" viewBox="0 0 533 99" fill="none" xmlns="http://www.w3.org/2000/svg">
<g clip-path="url(#clip0_2_31)">
<path d="M153.18 76.26C169.417 76.26 182.58 63.0972 182.58 46.86C182.58 30.6228 169.417 17.46 153.18 17.46C136.943 17.46 123.78 30.6228 123.78 46.86C123.78 63.0972 136.943 76.26 153.18 76.26Z" fill="#FBD707"/>
<path d="M150.77 33.86C148.41 37.51 146.34 41.35 144.33 45.06C142.38 48.66 140.46 52.14 138.35 55.41L149.95 67.01C153.66 62.07 156.78 56.91 159.45 51.98C162.17 46.96 164.92 42.51 167.99 38.64L156.19 26.84C154.22 29.03 152.39 31.35 150.77 33.85V33.86Z" fill="white"/>
<path d="M129.58 65.91C122.03 72.33 112.02 75.9 101.39 75.96C96.55 76.05 91.37 75.2 86.44 73.67C98.83 59.37 108.24 38.63 100.85 20.07C96.91 10.19 87.93 3.10001 76.82 1.11001C65.77 -0.859993 54.99 2.62001 47.94 10.45C32.85 27.19 38.1 54.04 51.9 70.32C53.52 72.24 55.26 74.04 57.11 75.73C55.23 76.63 53.28 77.43 51.27 78.13C36.95 83.08 21.19 81.85 7.77 74.83C6.36 77.62 4.9 80.39 3.44 83.15C2.32 85.26 1.16 87.35 0 89.44C23.51 101.76 51.63 100.52 72.67 86.15C83.63 91.34 96.16 93.53 108.6 92.07C124.79 90.18 136.3 82.53 144.93 73.12L133.66 61.85C132.4 63.3 131.06 64.67 129.58 65.93V65.91ZM83.53 47.04C83.36 47.49 83.19 47.94 83 48.38C80.19 55.11 76.17 61.03 71.15 65.93C63.39 60.12 57.55 51.94 55.86 41.81C54.46 33.39 56.62 22.13 64.84 17.79C72.33 13.84 81.01 17.44 84.23 25.12C87.09 31.95 86.03 40.26 83.52 47.03L83.53 47.04Z" fill="white"/>
<path d="M528.99 82.69C527.49 79.95 525.99 77.19 524.4 74.48C523.8 74.72 523.17 74.99 522.51 75.32C509.51 81.82 494.14 82.9 480.36 78.28C478.1 77.52 475.9 76.62 473.77 75.57C478.46 71.19 482.5 66.08 485.65 60.4C490.58 51.51 492.88 42.12 492.29 33.22C491.61 22.9 487 13.54 479.62 7.55001C472.1 1.43001 461.57 -0.929991 452.15 1.38001C442.73 3.69001 434.49 10.65 430.65 19.55C425.75 30.88 428.23 42.98 431.17 51.14C434.12 59.32 438.65 66.89 444.36 73.43C433.09 77.31 421.71 76.44 412.01 70.59C401.47 64.22 394.58 52.74 387.93 41.63L385.8 38.09C373.01 16.83 363.76 1.47001 334.17 1.05001C323.36 0.970009 312.43 4.46001 303.09 10.51C302.96 10.44 302.84 10.38 302.71 10.31C299.62 8.49001 296.35 6.94001 292.97 5.63001C292.1 5.28001 291.21 4.95001 290.3 4.63001C290.22 4.60001 290.14 4.57001 290.05 4.54001C288.05 3.85001 285.94 3.23001 283.6 2.70001C283.35 2.64001 283.11 2.61001 282.86 2.56001C269.43 -0.459991 255.02 0.250009 242.32 5.14001C237.63 6.95001 233.17 9.30001 229 12.12C222.36 9.11001 215.03 7.23001 207.27 6.67001C190.25 5.44001 173.95 10.9 161.79 21.34L173.35 32.9C176.07 30.43 179.08 28.31 182.58 26.65C191.58 22.38 202.18 21.4 212.44 23.88C213.3 24.09 214.15 24.32 215 24.58C206.4 34.54 200.55 46.81 198.85 59.62C197.11 72.78 201.53 84.34 210.98 91.32C216.92 95.71 224.08 98.02 231.11 98.02C234.66 98.02 238.18 97.43 241.49 96.23C249.68 93.26 255.86 87.26 259.38 78.89C264.03 67.81 263.53 52.98 258.12 41.13C254.85 33.98 250.31 27.74 244.78 22.6C249.98 20.15 255.63 18.48 261.5 17.73C271.59 16.42 281.38 17.93 289.89 21.98C284.55 27.97 280.01 35.08 276.57 43.08C270.64 56.9 270.45 71.45 276.06 82C280.41 90.17 288 95.5 298.03 97.4C300.11 97.8 302.16 97.99 304.18 97.99C311.51 97.99 318.31 95.41 323.75 90.45C332.19 82.78 336.7 70.15 335.52 57.48C334.42 45.72 328.12 32.29 317.4 21.34C323.31 18.17 329.35 16.66 335.27 16.96C346.4 17.54 356.66 24.51 364.96 37.12C367.12 40.4 369.22 43.71 371.32 47.02C375.18 53.1 379.17 59.38 383.46 65.39C398.22 86.06 418.77 95.38 441.36 91.63C447.41 90.63 453.24 88.71 458.67 86.02C462.97 88.89 467.58 91.29 472.43 93.14C490.83 100.17 512.31 99.05 529.89 90.14C530.65 89.75 531.45 89.26 532.22 88.68C531.15 86.68 530.08 84.68 528.99 82.69ZM245.23 69.76C244.18 73.29 242.32 76.52 239.47 79.13C228.1 89.54 214.09 77.31 214.84 64.42C215.39 55 219.86 45.39 225.53 37.96C226.12 37.19 226.75 36.45 227.38 35.71C227.55 35.51 227.71 35.3 227.89 35.1C228.27 34.67 228.69 34.26 229.09 33.85C229.5 33.42 229.92 33 230.35 32.58C235.03 36.2 239.01 40.61 241.83 45.49C245.83 52.42 247.6 61.82 245.24 69.75L245.23 69.76ZM318.91 69.78C318.15 73.4 316.5 76.92 313.77 79.41C311.08 81.88 307.4 83.23 303.75 83.1C295.12 82.79 288.25 74.23 287.88 65.95C287.43 55.85 292.71 45.49 298.74 37.7C299.02 37.34 299.3 36.99 299.58 36.64C301.02 34.88 302.5 33.23 303.99 31.69C309.73 36.98 314.22 43.15 316.78 49.47C319.34 55.79 320.3 63.05 318.9 69.77L318.91 69.78ZM460.88 64.17C460.37 64.58 459.85 64.97 459.33 65.36C454.95 61.07 451.27 56.05 448.52 50.51C444.75 42.91 442.75 33.82 446.44 25.78C448.52 21.24 452.59 17.48 457.48 16.47C464.02 15.11 469.52 19.34 472.66 24.71C481.05 39.01 472.54 54.89 460.88 64.17Z" fill="white"/>
</g>
<defs>
<clipPath id="clip0_2_31">
<rect width="532.23" height="97.51" fill="white" transform="translate(0 0.51001)"/>
</clipPath>
</defs>
</svg>
