<?xml version="1.0" encoding="UTF-8"?>
<svg id="Objects" xmlns="http://www.w3.org/2000/svg" xmlns:xlink="http://www.w3.org/1999/xlink" viewBox="0 0 750 450">
  <defs>
    <style>
      .cls-1 {
        fill: none;
      }

      .cls-1, .cls-2, .cls-3 {
        stroke-width: 0px;
      }

      .cls-2 {
        fill: url(#Nueva_muestra_de_motivo_2);
      }

      .cls-4 {
        opacity: .5;
      }

      .cls-3 {
        fill: #fff;
      }
    </style>
    <pattern id="Nueva_muestra_de_motivo_2" data-name="Nueva muestra de motivo 2" x="0" y="0" width="7" height="7" patternTransform="translate(2601.252 1342.52) scale(1.196)" patternUnits="userSpaceOnUse" viewBox="0 0 7 7">
      <g>
        <rect class="cls-1" width="7" height="7"/>
        <path class="cls-1" d="m7,1.367v4.266c-.755,0-1.367.611-1.367,1.367H1.367c0-.756-.612-1.367-1.367-1.367V1.367c.755,0,1.367-.611,1.367-1.367h4.266c0,.756.612,1.367,1.367,1.367Zm-2.133,2.133c0-.754-.612-1.367-1.367-1.367s-1.367.613-1.367,1.367.612,1.367,1.367,1.367,1.367-.611,1.367-1.367Z"/>
        <circle class="cls-3" cx="3.5" cy="3.5" r="1.367"/>
        <path class="cls-3" d="m5.633,0h0c0,.756.612,1.367,1.367,1.367V0h-1.367Z"/>
        <path class="cls-3" d="m1.367,0H0v1.367c.755,0,1.367-.611,1.367-1.367Z"/>
        <path class="cls-3" d="m5.633,7h1.367v-1.367c-.755,0-1.367.611-1.367,1.367Z"/>
        <path class="cls-3" d="m0,5.633v1.367h1.367c0-.756-.612-1.367-1.367-1.367Z"/>
      </g>
    </pattern>
  </defs>
  <g class="cls-4">
    <path class="cls-2" d="m582.264,140.044c0-.31-.43-.924-.43-1.123-.508.096-.848.398-1.36.715.089.098.77.912,1.108.912.252,0,.682-.204.682-.505Zm-188.175,62.995c-.598-.299-1.019-1.73-1.96-2.043l-1.277-.095c-.085-.197,0-.506,0-.719-1.959,0-4.089-1.123-5.289-2.55-.164-.203-.85-1.223-1.448-1.223-2.805,0-4.603-2.55-8.348-2.55-3.838,0-5.629,1.73-6.991,4.491h.769c.849-1.013,3.155-2.454,4.773-2.454.424,0,.851-.104,1.191.314-.256.304-.341.71.171,1.126h2.47c1.194,0,1.79,1.52,2.987,1.52.679,0,1.109-.305,1.791.106.338.201.249.916.936.916.251,1.539,1.618,1.43,2.899,2.151-.081.502-.433.914-.853.914v.618c1.616,0,2.983.708,4.942.708,1.023,0,2.639,0,3.237-1.23Zm-21.049-5.295v.702c-.254,0-.767.208-.767.919,0,.201,1.108,0,1.19,0,.176-.509.088-1.014,0-1.529l-.251-.092h-.172Zm11.929,10.918c0,.82.686,1.531,1.361,1.531,1.025,0,1.792-.402,2.816-.605-.086-.407-.254-.724-.768-.925l.173.201c-.508-.201-1.702-.819-2.723-.819-.345,0-.859.214-.859.618Zm26.847-.201c0,1.021,1.108,1.126,2.129,1.126.513,0,1.109,0,1.368-.619-.259-.615-2.302-1.135-2.552-1.135-.263,0-.944.1-.944.628Zm-17.555-.417c0,.618.514,1.543,1.022,1.637,0-.299.084-.5.084-.818.429.318.429,0,1.024,0,1.025,0,3.066-.308,3.835.318.425.301.254,1.313,1.019,1.313.936,0,.858-1.832,1.963-1.832.428,0,.342.519.852.519.598,0,.937-.421,1.535-.827h3.152c-.598-1.018-1.445-1.427-2.295-2.248l.419.415c-1.529-.918-2.045-2.655-4.768-2.655-.937,0-1.452.408-2.554.408-.766,0-1.28-.713-2.053-.713-.252,0-.681.399-.681.713,0,.605.602,1.125,1.109,1.125,0,.803.087,1.528.593,2.143-1.021.613-1.871.091-3.83.091-.085.112-.252.411-.425.411Zm30.764,25.43c0,.311.513,0,.772,0,.508,0,.853-.917,1.015-1.324v-.72h-.762c-.513,0-1.026,1.023-1.026,2.043Zm28.211,28.799c-1.026,0-1.706,1.016-1.706,2.558,0,.919,2.22,2.751,3.492,2.751,1.025,0,2.305-2.352,2.305-3.266,0-.203-.257-.92-.597-.92-.428,0-1.193,1.123-1.37-.203-.673,0-1.278-.514-1.784-.921,0,.092-.256,0-.34,0Zm-57.526,137.247h.765v-3.067c.085-.308.342-.516.342-1.132,0-.806-.257-1.629-1.023-1.629-.512,0-1.022,3.065-1.022,3.065v1.335c0,.411.426,1.326.938,1.428Zm-120.168-292.969v.002s0-.002,0-.002h0Zm215.018,175.842c0,7.549-3.465,9.554-5.761,13.74-.513.912-.881,1.165-1.392,2.086-.856,1.529-1.795,1.737-2.645,2.756-1.271,1.527-.016,4.832-.016,7.28,0,1.834-.582,3.547-.582,4.873,0,.507-.34.918-.421,1.213-.342.516-1.11,1.543-1.11,2.359,0,1.019-.259,3.068-.428,3.468-1.275,2.352-1.707,3.38-2.979,5.419-.342.603-.262,1.838-.435,2.237-.505,1.235-2.299,2.666-3.743,2.666-1.618,0-2.903-.104-4.173.602-.512.321-.599.828-.855,1.132-2.043,2.45-4.18,1.025-5.709,3.868-.689,1.346-1.792,1.346-2.471,2.152-1.108,1.332-.938,2.765-.938,4.711v4.792c-1.71,1.016-2.559,2.749-3.409,4.902v-.1c-.596,1.331-.512,2.036-1.195,3.367-1.534,2.751-3.241,3.06-4.689,5.706-1.702,3.075-2.359,8.171-6.279,8.171-1.365,0-3.264-1.115-3.865-1.115-1.192,0-2.299-1.228-3.579-1.228-.256,0-.679.203-.679.516,0,.92,1.278,1.417,1.533,1.726.682.82.682,1.945,1.025,3.165.256,1.13,1.616,1.13,1.616,2.242,0,1.244.007,1.909-.418,2.72-.772,1.438-1.369,2.082-2.222,3.114-1.448,1.728-3.239,1.23-5.283,2.053-1.362.486-4.176-.634-4.944.297-1.107,1.316-.255,4.381-.853,5.819v1.019c0,.507-1.362,1.221-1.956,1.221-1.793,0-2.136-1.424-3.835-1.424-.596,0-.856.71-.856,1.223,0,1.435,1.026,4.086,1.785,4.086.43,0,.94-.626,1.202-.713.339.404.762.515.762,1.018,0,.612-.675,1.327-.852,1.327-1.018,0-1.362-.923-2.212-.923,0,1.131.509,1.332.93,1.54-1.531,1.831-1.531,3.669-2.042,6.224-.17,1.127-1.703,1.23-2.302,1.328-1.362.409-2.554,1.832-2.554,3.574,0,3.982,3.83,2.561,3.83,5.734,0,2.851-2.126,3.153-3.319,4.579-.682.818-.427,2.142-.938,3.477-.595,1.432-1.959.813-2.727,1.734-1.022,1.226-1.452,2.651-1.452,4.587,0,1.027.766,2.254,1.28,2.35,1.535,1.029,1.446,5.731,2.554,7.044,1.88,2.253,4.176,3.178,6.478,4.509-.34.601-.852.299-1.362.299-1.278,0-3.407,1.936-4.175,1.936h-.941c-.251,0-.592.418-.85.418h-2.383c-1.967,0-1.276-2.763-2.646-3.274-1.275-.507-3.155-.507-3.155-2.339h-1.616c-.68,0-.854-.828-.937-1.34-2.388,0-3.07-1.417-4.176-2.747-.256-.314-.765-.826-.765-1.032,0-.907,1.528-.813,1.614-1.728-.251-.107-.425-.308-.68-.514.255-.507.594-1.119.594-1.727,0-2.456-2.302-2.054-2.302-4.198v-1.43c0-2.24-1.279-5.822-1.279-7.557,0-1.827,1.967-2.55,1.967-4.185,0-.806-1.025-2.452-1.195-3.565v-1.032h.085c0-.617.341-1.124.765-1.124,1.537,0,.94,1.847,2.216,1.847l2.81-15.117v-1.539c-.246,0-.512-.094-.762,0-.599.311-.686,1.127-1.28,1.127-.682,0-1.191-2.347-1.191-3.475,0-1.936.595-2.761.849-4.594.598,0,.849-.301.849-.61,0-.618-.507-1.12-.507-1.12-.342,0-.428-2.854-.428-3.576,0-2.35,1.197-4.705,1.958-6.133.346-.703.512-2.151.941-2.86.254-.399.684-.303.768-.715.595-2.35.595-4.076,1.109-6.537l-.089-7.651c-.505-1.84.426-3.268.426-4.9,0-3.879,1.965-6.439,1.965-9.911v-.921c0-.716.424-2.55.596-3.577v-4.478c0-1.438.765-4.194.765-5.831,0-1.02-.425-7.047-.676-8.171-.772-2.448-2.139-3.974-3.673-4.895-1.274-.713-2.21-.512-3.155-1.63-1.023-1.227-1.533-1.636-2.722-2.046-2.391-.918-3.579-2.359-5.112-4.194-.682-.809-.348-1.941-.348-3.16,0-1.63-1.272-2.448-1.612-3.874-.683-2.464-2.389-4.302-2.987-6.546-.598-2.338-1.105-3.663-1.874-5.606-.252-.608-.848-.422-1.104-.713-.598-.726-.768-2.144-1.024-2.87-.258-.61-.938-.402-1.282-.808-.936-1.122-2.129-3.163-2.129-5.001,0-1.23.594-2.664.935-3.073.769-1.534,2.305-1.934,2.641-3.582-.762-.601-.675-.1-1.274-.1-1.195,0-1.367-2.041-1.367-3.462,0-2.345,2.153-1.932,1.79-6.434,2.303,0,2.903-2.749,3.583-4.395.94-2.24,3.153-1.527,3.663-4.283-.422-.201-.852-.717-.852-1.026l.342-.812v-.514c0-.806-.512-1.428-.512-2.251,0-1.226.432-1.624.432-2.637,0-2.158-1.536-1.856-1.536-3.687,0-.235.06-.447.137-.641-.093.076-.172.13-.204.11-.172-.206-.963-.494-.963-.798,0-.41.342-.613.513-1.018-.933-.521-1.189-1.845-2.126-1.845-.599,0-2.989,2.052-2.989,2.654,0,.409.512.82.689.918-.176,1.029-.603,1.541-1.284,1.541-1.359,0-2.214-1.948-2.895-2.756-.597-.716-1.962-.109-2.56-.109-.163,0-.423-.404-.423-.608-1.193-.318-1.193-1.333-1.533-2.156-.262-.605-3.156-2.747-3.236-2.747-.173.306-.173.715,0,.918h-.854c-1.283-1.019-.429-2.45-.856-3.978-.255-1.019-.682-1.242-1.106-1.742-1.366-1.641-2.812-2.561-3.321-5.006h-.51c-.596,0-1.026.513-1.624.513-1.623,0-2.472-1.13-3.58-1.737-1.617-.914-2.809-.404-4.518-1.421-2.641-1.545-2.977-3.891-5.279-5.217h-.512c-.685-.505-1.194-.818-1.878-.818-1.535,0-1.791,2.048-3.241,2.048-.673,0-1.363-.716-1.704-.922-.676-.411-1.274-.213-1.954-.213-1.024,0-3.923-2.45-4.773-2.955-.94-.509-1.539.1-2.476-.208-1.193-.4-1.452-1.623-2.638-2.343-1.108-.608-1.705-.41-2.814-1.015-.511-.315-.681-.411-.935-.715-1.029-1.24-3.669-1.945-3.924-3.27-.763,0-1.278-1.127-1.278-2.041,0-1.123.854-1.747.854-2.858,0-1.338-.686-1.644-.854-2.352-1.023-3.682-3.919-6.647-5.794-8.889-.853-1.02-2.218-1.434-3.073-2.452-.678-.811-.081-1.833-.511-2.96-.762-1.833-3.408-2.043-3.408-4.495-.766-.203-.681-.3-.934,0-1.112-1.323-1.962-2.45-2.901-3.566-.767-.926-.506-2.663-1.276-3.576-.769-.918-.601-3.172-1.278-3.573-1.445-.825-2.813-.714-3.924-2.041-.256.398-.17,1.015-.17,1.327,0,2.139.844,3.459,1.528,5.196.599,1.527,1.716,1.534,2.567,2.563,1.191,1.427,1.362,2.454,1.787,4.18.597,2.348,2.302,3.475,2.899,5.617.68,2.456,1.196,5.107,2.723,6.336.689-.816,1.704.917,1.704,1.73,0,.514-.338,1.537-.594,1.537-.168,0-1.304-1.758-1.393-2.18-1.526,0-2.355-2.424-3.289-3.132-.509-.412-.602-.412-.856-.918v-2.657c-.932-1.127-1.618-2.248-2.472-3.266-1.192-1.436-3.063-1.127-3.919-2.654.429,0,2.443.37,1.697-.904-1.262-2.152-2.662-4.338-4.155-5.487-1.012-.773-.951-3.623-1.462-4.848-.772-1.833-1.533-2.442-2.133-4.804v-.708h.172c-1.28-3.063-5.624-5.213-8.691-6.634-.683-.301-.427-1.439-.683-2.253-1.191-3.572-3.58-4.802-3.15-8.981-1.789-.305-3.653-4.836-5.119-7.863-.421-.884.343-1.54.856-1.938-.938-2.242-.033-6.01-.856-8.581-.793-2.482,1.446-8.277,1.446-11.443,0-2.242-2.128-3.167-2.128-5.405,0-.617.942-.714,1.281-.714,1.279,0,2.039.809,2.471,1.74.425-.624,1.195-1.846,1.195-2.764,0-1.009-.767-1.322-1.111-2.34v-.002h0c-.34-.201-.772-.418-.938-.622-.848-1.02-2.978-1.22-3.239-2.248-.677-2.651-3.662-1.317-4.085-3.364-2.899,0-3.07-2.76-3.671-5.106-.079-.313-2.299-1.941-2.299-1.941-1.021-.812-.084-2.146-.853-3.069-.511-.61-1.196-.61-1.873-.809-1.195-.416-.852-3.165-.852-4.505,0-.601-.507-.911-.507-1.424,0-.716,1.192-.914,1.192-2.039,0-1.957-1.205-2.559-2.001-3.347.794.789,1.999,1.39,1.999,3.347,0,1.121-1.191,1.326-1.191,2.039-.425,0-.425.104-.855.104-1.449,0-3.58-1.938-3.58-3.063v-1.534c0-1.532-1.025-1.532-2.559-1.532-1.189,0-1.531-.916-1.531-1.532,0-.818,1.278-.915,1.278-1.73v-1.332c-1.619.104-1.195,1.332-2.305,1.332-.339,0-1.276-.922-1.276-1.534,0-1.226.598-1.635.853-2.146-.425-.506-1.196-1.427-1.531-.721-1.285,0-1.878-.706-2.562-1.519-.257.813-.595,1.83-1.276,1.83-1.789,0-2.987-2.956-4.009-3.868-2.208-1.952-5.11-1.847-7.661-3.583h-4.693c-2.811-1.124-6.563-1.528-8.006-5.108-1.03.512-2.733,1.015-3.496,1.534.251.719.421,1.027.849,1.436-1.109,2.031-6.559,5.721-8.521,5.721-.343,0-.854-.315-.854-.724,0-.609.511-.717.679-.818-.415-.715-.084-.715-.084-1.227,0-2.238,1.279-3.984,3.752-4.907,0-.297.086-.708.086-1.015h-1.027c-2.046,0-7.672,5.622-7.672,8.993v1.531c0,2.348-1.875,3.163-3.829,4.082-1.109.51-1.45,1.531-2.13,2.55-1.283,1.938-4.177,2.959-5.542,4.601-1.282,1.525-4.349,2.655-6.817,3.06-3.068.611-4.774,4.898-8.351,3.676,1.017-1.945,2.643-1.122,4.087-2.149,1.028-.71,1.796-2.749,2.731-3.366,1.448-1.026,3.069,0,4.093-1.534,1.444-2.241,4.766-3.978,6.817-5.615,1.955-1.528,1.955-4.596,4.005-6.121h-1.285c-1.275.602-1.873,1.321-3.143,1.321-1.031,0-1.454-.506-2.306-.819-.258.819-.511,1.124-.596,1.847-2.047-.928-2.642-1.534-4.097-2.862-.163.611-.077,1.115-.077,1.535h-1.019c-.518,0-.942.813-1.286.813-.509,0-.846-1.737-.846-2.55v-2.046c0-.305.082-1.531-.682-1.531-.68,0-1.367,1.733-1.704,1.733-1.111,0-5.112-3.776-5.714-4.692.428,0,.856-.311,1.28-.311-.678-2.248-3.408-2.755-3.408-4.394,0-3.056,4.599-5.608,6.389-5.608.768,0,6.564-2.764,6.564-4.088,0-.72-1.362-2.15-1.448-2.451.856-.616.686-.51,1.28-.1v-1.536c-.77-.105-.77,0-1.28,0-1.367,0-1.878,1.74-3.663,1.74-1.71,0-2.31-1.024-3.586-.719h-4.513c-.083-1.527-1.105-1.938-1.105-2.859,0-.306.163-.711.258-1.02-1.369,0-2.138-.613-2.559-1.636,2.127-1.529,5.626-2.855,7.668-4.485h1.528c0,3.27,1.368,2.346,3.159,2.346,1.194,0,1.369.307,2.384,0-.846-3.272-2.638-3.475-5.111-4.912-.681-.397-1.707-3.464-2.556-4.067-1.02-.727-4.513-1.54-4.513-2.255,0,0,1.185-2.554,1.273-2.86h4.689c2.557-4.082,6.396-7.963,10.906-9.707,1.192-.396,1.961.311,3.152-.203,1.364-.613,2.221-2.858,3.666-2.858,1.113,0,1.54,1.123,2.641,1.536-.422.611-.508.817-.765,1.321.853.203,1.702-.505,2.129-1.321.935.408,1.195.708,1.964,1.022h4.258c1.027.813,1.365,1.324,2.557,2.036h6.566c1.703,2.045,6.984,2.553,9.624,2.553,1.538,0,2.476-.713,4.01-.713,2.472,0,3.244,1.227,5.371,2.043l.003-.106c.846.213.419.417,1.014,0,0,.313,1.053,1.229,1.195,1.332,3.505,2.558,7.328,3.063,9.459,3.063.767,0-3.073-2.417,2.471-2.659.804-.026.415-3.212,2.649-.707.744.829,2.977-1.129,3.919-1.337,2.383-1.11,3.322-1.323,5.957-2.033.255.817.856,1.416,1.537,1.416,1.789,0,1.193-2.95,2.897-2.95.512,0,2.812,4.594,4.432,4.594,1.709,0,1.709-2.243,3.327-2.657.167.815,1.108,2.757,2.046,2.757,1.36,0,2.043-1.328,3.664-1.328,5.194,0,7.77,5.08,12.95,4.599,4.874-.453,4.448-1.096,6.822,2.855-.513.619-3.121.241-3.121,1.154,0,.311,0,1.795,3.377,1.601,1.876-.092,2.98-.918,4.688-.918h5.449l1.283.728c1.45.807,1.789,3.357,3.493,3.357.427,0-.517-2.35-.517-3.054,0-3.475,4.351-.724,4.012-4.087-1.022.807-3.267,1.614-4.631,1.614-.683,0-1.084-.394-1.084-1.105,0-2.251,5.118-2.354,6.649-2.853,1.109,4.184,6.475,6.129,11.081,6.129,4.857,0,5.799-.217,7.245,0,0-2.153.598-3.276,2.132-3.276,1.275,0,3.579.711,3.831,1.222.679,1.121-1.515,4.477,1.278,3.57,0-4.999,5.628-2.95,4.521-7.147-.688.415-1.195.617-1.798,1.02,0,0,.688-2.443.688-3.063,0-3.467-5.793-1.42-5.793-4.795,0-1.427,1.105-1.327,1.105-2.353s-.68-1.525-.68-2.549c0-1.533,1.359-1.224,2.382-1.533-.085-1.018-.768-2.296.856-2.248,3.323.1,5.198,2.13,5.28,5.309.04,1.511,2.562,1.437,2.562,3.374,0,1.328-1.538,2.034-2.135,2.45,1.028,1.538,2.903.508,4.266,1.538-.429.405-.598.707-.853,1.222,1.793,1.021,1.963,2.245,1.963,3.983,2.635,0,.934-4.398,3.406-4.398.681,0,3.156,2.865,3.156,3.584,0,1.525-1.446,1.217-1.446,2.543,0,1.124,2.529,5.878,4.446,2.95,1.233-1.889,1.007-3.25,1.679-4.994.427-1.021,2.393-1.021,2.393-2.041,0-.917-1.28-1.423-1.28-2.75,0-1.229,1.108-2.054,2.129-2.054.765,0,1.367.617,2.128.717,3.495,0,2.819,2.564,5.544,2.564,0,1.733.339,1.625,0,2.542-2.681,1.545-1.533,3.177-1.533,3.882,0,.62,1.959,1.642,1.959,2.56,0,1.325-4.384,5.824-4.943,4.796-1.046-1.911-1.452-.103-1.026.51-1.528,0-2.045.82-2.81.82-1.193,0-1.875-2.045-3.752-2.045-.677,0,.604,1.844.604,2.239,0,1.231-2.479,3.372-3.839,3.372-1.618,0-2.728-1.522-3.833-2.347h-1.538c1.282,3.069,4.176,2.554,7.073,3.365v1.542c-1.361,1.226-2.471,3.774-4.511,3.774h-1.88c-1.021,0,.067,2.84-1.727,2.18-6.925-2.551-4.346-.456-5.11-.768,1.189.821,4.452.935,4.452,2.47,0,2.456-2.558,1.438-4.003,2.045-.685.313-2.132,4.288-2.814,5.101-1.959,2.351-2.982,4.795-2.982,8.885,0,2.96.342,3.372,0,4.6.849-.204,1.279-1.02,2.129-1.02,1.875,0,3.235,5.712,3.235,8.164,1.285,0,1.877-1.529,3.156-1.529,1.193,0,3.156,1.735,3.832,2.038,3.752,1.735,7.331,3.377,10.486,6.135h5.54c2.382,1.828,1.875,4.392,1.875,7.65,0,2.966,3.001,6.145,5.109,8.17.802.775,1.536-1.227,2.56-1.227.086-1.115,1.194-1.83,1.536-2.443-1.195-1.734-.022-7.292-2.984-9.091,1.709-.412,6.818-5.003,6.818-6.84,0-6.741-2.966-8.052-4.926-12.042,1.108-.519,3.526-1.276,3.225-4.297-.157-1.524-2.789-3.778-1.71-4.601,2.753-2.082-.255-3.568-.255-4.595,0-1.831,1.279-2.549,2.554-2.549,2.391,0,3.92,1.735,6.399,1.735,1.274,0,1.274-1.016,2.382-1.016,2.384,0,2.897,3.473,5.283,3.873,0,3.782,4.604,1.738,4.951,4.603.25,2.138.843,7.147,2.295,7.147,1.025,0,1.283,2.24,2.815,2.24,2.129,0,4.856-3.777,4.856-5.307,0-1.43,1.363-2.346,1.959-2.86.344.415,1.194,1.331,1.45,1.331.252,2.755,3.873,3.298,2.983,5.614-.722,1.874,2.043,3.984,2.811,4.29-.167,1.018.597,1.835.597,2.855,0,1.224-.854,1.545-1.277,1.838,1.105,1.022,2.22,2.45,4.089,2.45v.313c0,3.464,4.346,4.587,6.393,4.287.085.502.812.652.727,1.16-.509,1.943-5.246,2.716-6.949,3.844.089.202.594.403.855.403,2.041,0,6.133-1.736,8.09-3.063v1.229c.986.53,0,1.533.686,1.533.77,1.526,1.448,2.549,1.448,4.901,0,3.261-6.868,3.71-8.097,5.615-2.527,3.919-4.856,2.251-9.118,2.251-3.237,0-5.113-.719-8.351.506-1.789.719-.94,1.638-2.13,3.056-1.875,2.246-3.663,1.337-4.77,4.089,2.55-.408,4.262-3.567,8.007-3.567,1.788,0,4.434-.414,4.434,1.526,0,2.041-3.069,2.562-3.582,3.371.768,0,1.706.301,2.136.301-.175,1.027-.855,1.846-.855,2.452,0,2.56,3.919,5.423,6.392,5.423.509,0,2.73.098,2.73,1.213,0,.824-5.836,3.497-6.267,3.597-1.701.612-3.283,3.358-3.965,3.358-.505,0-1.698-1.643-1.698-2.564,0-2.24,3.06-3.875,5.026-4.074-1.362,0-1.278-.106-1.278-1.529-1.284.098-1.284,1.423-2.049,2.036-.763.606-2.889.196-3.407.196-.254,0-.68.105-.851,0v.311l.037.234c.113.273.231.542.39.783-.596,1.124-1.533,1.741-2.733,1.741-1.019,0-1.104-.508-1.956,0-1.364,1.643-4.262,2.768-4.262,6.635,0,.306.088.816.344.925,0,.507.342,1.833.853,1.833.175,0,.936-.703.936-.703v.703c-1.025.311-2.473.713-2.81.311-1.708,1.528-4.604.919-6.311,2.251h.853c.767,0,1.535-.519,2.136,0-1.193.508-2.049.508-3.239.508-.256,0-.513-.11-.769-.11-.26.11-.509.41-.509.71,0,.522.765,1.236.765,1.236-.173.813-1.791,4.39-2.389,4.39-.252,0-.426-.618-.597-.81l-.426.495c.175.825.771,1.134.771,1.953,0,.608-1.707,4.183-1.964,4.183-.165,0-.342-.398-.342-.619v-1.112c0-.715-.762-2.355-.941-3.38-.165.52-.079,1.328-.079,1.328,0,.71.431,2.554.431,3.583,0,1.014-.517.918,0,1.522h.589v1.023c0,.82-.699,1.252-1.126,1.252.338.707.742.79,1.171.886-.168,1.124-.558,1.03-1.323,1.03v.817l1.001.709c-.255.407-.529,1.014-1.001,1.124-1.004.229-1.448,1.024-2.125,1.23-1.022.399-.943.707-1.449,1.324l.232.199c-3.993,2.694-9.099,4.634-9.099,12.056,0,3.368,2.384,4.386,2.384,7.66v.508c.261,1.216,1.023,2.246,1.023,4.094,0,2.138-.428,4.078-1.872,4.078-1.278,0-1.199-1.636-1.703-2.551-1.025-1.636-1.882-2.143-2.557-3.773-1.371-3.271-.346-9.508-4.093-9.508-.765,0-1.112,1.339-1.873,1.339-1.538,0-2.471-2.359-4.519-2.359-1.191,0-1.445.821-2.129.821-.259,0-.595-.505-.595-.821-1.362.417-3.159.216-4.603.821.848.303.678.303,1.191,0-.085,1.538-.852,2.455.174,3.268-2.388,1.428-4.434-2.043-6.138-2.043-.515,0-.768.811-1.279.811-.94,0-1.449-1.019-2.386-1.019-2.472,0-3.662,2.559-4.688,3.783-.686.815-1.452.093-2.299.514-1.879.804-2.984,3.561-2.984,6.639,0,.297.425.707.425,1.011-.069-.009-.148-.022-.223-.036l.05.245c.173.612.342,1.024.342,1.632,0,1.844-.594,2.555-.849,4.088v5.713c-.174.816.507,1.64.68,2.048.342.917-.085,1.527.254,2.434.344.835,1.449,2.254,2.052,2.977,1.528,1.84,1.528,3.579,3.75,4.393.76.306.76,1.227,1.445,1.227,1.619,0,2.983-1.448,4.684-1.448.935,0,1.281.62,1.622.62.679,0,1.108-1.214,1.193-1.628.338-1.23,1.79-2.555,1.79-4.094,0-2.955,2.812-3.977,5.117-3.977.764,0,1.362.106,1.704.307.338.105,1.448.202,1.958.202v.926c0,1.422-1.448,3.269-1.448,5.206,0,1.632-.51,2.345-1.027,3.374v-.717h-.681v4.902c0,1.014-1.021,1.428-1.535,2.034v.521c0,.708.515,1.11,1.029,1.11,2.803,0,5.107-.614,8.092-.614,2.048,0,2.561,1.756,4.088,2.149v1.534c0,.923-.082,3.466-.593,4.491v6.231c0,2.251,1.793,3.17,3.152,3.98.933.518.933,2.45,2.386,2.45,2.216,0,3.324-2.038,5.371-2.038,2.378,0,3.431,2.046,4.794,3.27-.034.086-.269.409-.566.789.267-.235.506-.453.629-.698.681.213.429.213,1.021,0v-.61c0-.196.339-.506.513-.506,0-1.019.855-1.327,1.36-1.731.517-.409.599-1.737.774-2.558.421-1.642,1.188-1.938,2.299-2.35,2.045-.812,3.407-1.226,5.545-2.043,1.106-.41,1.359-1.931,2.462-1.931.426,0,.77,1.127.77,1.223,0,.811-.515,1.229-.85,1.229-.255,1.522-.768,3.256-.768,4.173,0,1.124.468,3.094,1.405,3.094.344,0,.813-1.247.813-1.657,0-1.222-1.023-1.942-1.023-3.17,0-1.521,1.358-1.32,2.13-1.943h2.039c-.339-1.22-1.615-.713-1.615-1.936l1.492.027c.337,1.642,2.254,2.213,3.534,2.532,0,1.004.513,1.727,1.024,1.827h4.603c0,.924,1.028,1.125,1.709,1.125,1.276-.201,2.122-.201,2.638-1.431.083-.308,1.869-.308,2.129-.518.848,0,2.386.317,2.386.317-.341.311-1.019.407-1.275.201v.823c.595,1.436,2.385,1.733,3.662,2.255,1.107.394.851,1.932,1.195,3.258h2.386c1.621,1.945,2.388,1.63,3.407,4.175.173.41.852.623,1.28.623.596,2.867,4.172,2.548,6.475,3.07h2.219c.59.298,1.957,1.122,2.815,1.122v.199h.505c1.369,0,3.152,3.364,4.602,3.788,0,1.215,1.11,4.482,1.539,5.606.428,1.02,1.531,1.02,1.531,2.041-1.36,2.044-3.832,3.067-3.832,6.133,0,1.027.763.914,1.192,1.119.848.518,1.28,1.333,1.449,2.355h2.047c0,.308.169,1.117.425,1.117.34,0,.68-.719.942-1.215.848-1.646,1.871-3.783,3.241-3.783,1.528,0,4.597,1.938,5.706,2.756.679.509,1.449.299,1.616,1.125.256.918.166,1.633.166,2.54h.602c.765-.4,1.11-1.117,1.878-1.117,1.789,0,2.126,1.646,3.832,1.646l3.236-.529c1.618.422,3.072,1.134,4.006,1.649.766,1.522,3.413,4.384,4.773,4.901,1.194.4,1.962-.207,3.153.193,1.706.63,2.129,2.769,2.129,4.913Zm-110.106-154.71c0,.347.31.547.448.855-.096-.249-.193-.479-.277-.648.596,0,.596-.113,1.016-.113,2.474,0,7.911.986,7.933-2.85.02-.014.091-.084.176-.178-.088.093-.158.164-.178.178-2.131,0-6.139,1.224-8.01,1.934-.257.114-1.109.31-1.109.823Zm-.312,3.461c.515-.304.984-.592,1.338-.8,0,0-.002-.003-.002-.005-.355.206-.814.494-1.335.805Zm-2.072-.395c-1.198,0-2.48-.102-3.239.809-.346.414-.428,1.032-1.192,1.032-.514,0-1.023-.714-1.282-1.235,0,1.018.344,2.562,1.193,2.562,1.747,0,4.589-1.582,6.559-2.751-.425.3-.93-.416-2.038-.416Zm-21.152-20.897c-.764-.006-4.418,2.924-6.377,5.888h1.278c.598-.311.937-.62,1.53-.719.345.919.599,1.015,1.28,1.015,1.45,0,1.536-1.32,2.305-1.32.937,0,2.471-1.941,3.747-2.244,0,1.425-.593,1.726-.939,2.549h1.7c.091.719.86,1.226,1.456,1.226,1.106,0,1.448-1.016,2.385-1.016,2.043,0,3.066,1.325,4.855,1.325v1.225c-1.278.513-3.151,0-3.833,0-1.872,0-5.279,2.859-5.456,4.899.858-.598,1.197-1.434,2.05-1.434-1.456,2.253-2.129,7.462-2.129,10.109,0,1.127,1.016,2.053,1.953,2.053,1.282,0,1.711-3.063,1.711-4.393v-3.269c0-1.283-.023-4.373.922-4.449,3.105-.222,1.676-2.699,3.08-2.699.685,0,3.837,1.834,3.837,3.065,0,1.425-.681,2.345-.938,3.775,1.022,0,.853-.404,1.705-.713.341,1.633.344,2.346,1.192,3.164h0c1.196-.001,1.959-4.901,2.302-6.538.338.415,1.361,1.737,2.384,1.737.508,0,.855-.507.855-1.23,0-1.526-1.279-2.546-2.301-3.361h-2.218c-2.129-1.636-4.773-1.126-6.731-3.473-.68-.817-.171-1.842-.68-3.067-.172-.405-3.757-3.878-4.262-3.878h-.681c0,.2.082,1.019-.091,1.429-.342-.41-1.019-2.254-2.039-2.254-.852,0-.516,1.641-1.365,2.154-.941.508-1.596.453-2.487.445Zm-113.958-45.619c-.559.775-.783,1.983-1.677,1.983-.718,0-1.446-.483-2.112-1.135.667.652,1.394,1.138,2.11,1.138.897,0,1.122-1.212,1.679-1.986Zm6.51,4.057c-1.267-1.827-2.428-3.031-4.184-5.14h0c1.755,2.111,2.917,3.312,4.184,5.14Zm4.679,8.441c.112.131.243.22.388.293-.145-.074-.277-.162-.384-.293-.94-1.125-1.363-2.658-1.706-3.885-.226-.823-.78-1.077-1.023-1.41.239.333.795.588,1.021,1.41.343,1.227.768,2.761,1.704,3.885Zm.401.297c.432.206.977.232,1.381.574-.404-.341-.948-.368-1.381-.574Zm129.652,111.209c0,.821,0,1.939.853,1.939.171,0,.429-.304.429-.507,0-.71-.258-1.322-.936-1.432-.093,0-.346-.096-.346,0Zm-.086-5.821c-.418,0-1.018.409-1.187.823.505,0,1.362.099,2.217,0-.175-.312-.432-.823-1.03-.823Zm2.646,1.235c-.079.297.165.917.425.807l-.425-.807Zm10.311,16.228v-.916c-.342.615-1.025,1.119-1.703.916v.613c0,.102.252,0,.339,0,.426,0,1.022-.2,1.363-.613Zm-144.115-115.289c.435,0,.682-.301.682-1.026,0-2.243-2.303-2.548-2.047-5.301-1.789-.412-2.213-.412-2.213,2.043,1.025-.824.511-.307,1.871,0-.252.506,0,1.324,0,2.042,0,.097.942,2.241,1.706,2.241Zm-6.134-10.21c-.169.103-.854.304-.854,0-.425-1.642,0-1.642,0-4.293-1.196.825-.425,0-1.961,0-.338,0-1.018.204-1.018,1.028,0,1.528,1.018,2.855,2.3,3.062,0,1.632.335,2.856,1.364,4.086.854-1.024,0-2.454.169-3.884Zm87.524-55.648c-.339.099-1.871-.312-1.871.504,0,.31,6.297,3.06,7.409,3.06.938,0,1.28-1.018,2.134-1.629-.509-1.431-4.007-5.217-5.283-5.217-1.711,0-1.366,2.862-2.39,3.282Zm41.333,24.3c-.427-.412-.169-1.124-.595-1.838-1.535-2.458-4.266-1.428-6.051-4.088-.259.194-.511.41-.764.825-.432-1.021-.854-1.328-1.283-2.865-2.386.303-2.815,4.388-2.815,6.128v1.529c0,.606-.422.924-.846,1.332-.175.506-1.194.304-1.281,2.038.679-.096,2.3-.415,3.664,0-.171,1.022-.429,2.042.593,2.042.426,0,.426-.303.685-.816,1.195.606,4.01-1.528,4.01-3.788.505.208,3.235,2.561,3.235,2.561h2.302c1.109,0,1.874-.415,2.814-1.116-.765-1.237-2.302-.716-3.667-1.945Zm-2.98,5.822c-.085.6-1.198,1.526-1.88,2.548v1.324c1.367-.202,3.495-2.243,4.266-3.467-1.03-.51-.682-.51-2.385-.405Zm7.24,5.916c.851,0,1.026-1.429,1.539-2.247-.854-1.221-2.816-1.122-2.816.716,0,0,1.11,1.531,1.278,1.531Zm3.836-7.756c.854.814,1.109.814,1.965,0-1.026-.613-1.112-1.332-1.965,0Zm-14.23-12.462c-.088.715.594,1.527,1.703,1.631-.594-.916-.594-2.239-1.703-1.631Zm69.715,63.005c0-.402-.257-1.018-.59-1.018-1.373,0-1.889,1.735-2.564,3.06-1.276,2.35-2.219,6.951-4.603,8.368.084.308.424.519.679.519v.609c0,.104-1.529,1.536-1.529,1.938,0,.308.423,1.026.851,1.026,1.021,0,1.367-.608,2.643-.608.936,0,1.449.709,2.556.709.596,0,1.109-.209,1.699-.502.432,1.015,1.54.401,2.39.401-.252.615-.937.615-.937,1.635,0,.202.343,0,.512,0,1.021,0,1.795-1.533,2.472-2.768.682.824.168,2.768.853,2.768.255,0,.427.202.679.202,0,.405.175,1.223.772,1.223.845,0,1.358-1.223,1.358-2.445,0-1.015-.592-.924-.592-2.147-.513.399-.261.61-1.11.61,0-.711-.597-1.122-.597-1.631,0-.41.766-.612.855-1.537-.339,0-.773.106-.938.308,0-1.529.083-2.451.083-3.367-.425.313-1.531.313-2.474,0l-1.021.41v-.507h-1.533v-.928l.43-.499c-.341-.419-.851-.52-1.364-.52-.595,0-.595.613-1.279.816v-.911c.507-1.852,2.302-2.958,2.302-5.212Zm-61.447-5.099c.081,0,.422.092.422,0,0-1.435-1.446-1.737-2.898-1.737.091.198.091.507,0,.712.51.616,1.708,1.026,2.476,1.026Zm-110.706,13.069c1.362,1.025,4.343,3.776,6.303,3.776h.769v-.921c-2.214-2.653-4.262-5.102-7.927-6.537-.6-.206-1.362-1.429-2.302-1.429-.421,0-.849.307-1.192.505h.343s.849.31,1.279.415c-.093.304-.43.717-.851.915.337,1.227,2.723,2.254,4.429,2.254-.255.311-.68.311-.852,1.022Zm-12.785-13.885c0-.519-.426-.724-.426-1.227,0-1.021.175-1.64,0-2.248-.165.502-.505,1.317-1.107,1.317-.51,0,.509-1.115.509-1.219-.765-.098-1.194-.719-1.963-.719v.823c.346.612.686,1.831,1.023,1.831.516,0,.685,1.129,1.372,1.332,0,.201-.339.515-.339,1.125,0,.819.505,1.937,1.187,1.937.852,0-.682-1.532-.682-1.937s.426-.61.426-1.015Zm-55.059-17.981v1.226c.603.51,1.03.612,1.789,1.339,1.28-1.235,1.796-1.95,3.328-2.872v-1.223h-1.022c-1.533,0-2.641,1.021-4.095,1.531Zm224.992,32.162c-1.788-1.221-3.408-3.159-6.05-2.44,1.026.914,3.495,3.054,4.858,3.054.681,0,.939-.097,1.192-.614Zm-5.284,8.583c-.168.106-.34.404-.34.715,0,.71,3.155,2.657,3.754,2.657.167,0,1.02-.518,1.02-1.125v-.618h-2.556c-.848-.203-1.45-.608-1.877-1.629Zm9.804,3.372v-.714c-1.963,0-.68-.613-.68-1.534,0-.409-.428-.611-.596-1.018-.771.298-1.962,2.858-1.962,3.476,0,.606.513,1.117,1.365,1.117.931,0,1.873-.612,1.873-1.327ZM171.4,61.413c-.682,0-.944-.202-1.281.711h-1.275c.168.403.677.722,1.019,1.025h2.817c-.175-1.025-.258-1.736-1.28-1.736Z"/>
  </g>
</svg>