<?xml version="1.0" encoding="UTF-8"?>
<svg id="Objects" xmlns="http://www.w3.org/2000/svg" xmlns:xlink="http://www.w3.org/1999/xlink" viewBox="0 0 750 450">
  <defs>
    <style>
      .cls-1 {
        fill: none;
      }

      .cls-1, .cls-2, .cls-3 {
        stroke-width: 0px;
      }

      .cls-2 {
        fill: url(#Nueva_muestra_de_motivo_2);
      }

      .cls-4 {
        opacity: .5;
      }

      .cls-3 {
        fill: #fff;
      }
    </style>
    <pattern id="Nueva_muestra_de_motivo_2" data-name="Nueva muestra de motivo 2" x="0" y="0" width="7" height="7" patternTransform="translate(1080.65 -181)" patternUnits="userSpaceOnUse" viewBox="0 0 7 7">
      <g>
        <rect class="cls-1" width="7" height="7"/>
        <path class="cls-1" d="m7,1.367v4.266c-.755,0-1.367.611-1.367,1.367H1.367c0-.756-.612-1.367-1.367-1.367V1.367c.755,0,1.367-.611,1.367-1.367h4.266c0,.756.612,1.367,1.367,1.367Zm-2.133,2.133c0-.754-.612-1.367-1.367-1.367s-1.367.613-1.367,1.367.612,1.367,1.367,1.367,1.367-.611,1.367-1.367Z"/>
        <circle class="cls-3" cx="3.5" cy="3.5" r="1.367"/>
        <path class="cls-3" d="m5.633,0h0c0,.756.612,1.367,1.367,1.367V0h-1.367Z"/>
        <path class="cls-3" d="m1.367,0H0v1.367c.755,0,1.367-.611,1.367-1.367Z"/>
        <path class="cls-3" d="m5.633,7h1.367v-1.367c-.755,0-1.367.611-1.367,1.367Z"/>
        <path class="cls-3" d="m0,5.633v1.367h1.367c0-.756-.612-1.367-1.367-1.367Z"/>
      </g>
    </pattern>
  </defs>
  <g class="cls-4">
    <path class="cls-2" d="m453.896,325.887v1.28c-.362-.17-1.077-.422-1.216-.422,0,6.217-1.635,10.497-3.206,15.355-1.277,3.85-1.924,9.556-6.265,9.556-1.786,0-3.348-2.469-3.348-4.682,0-1.108.21-1.542.141-2.137-.854-.768-.854-2.132-.854-3.416,0-.336,1.282-1.712,1.43-1.712,0,0,1.422-3.672,1.422-3.836,0-.938-1.076-3.073-1.076-4.443,0-4.18,2.569-3.92,4.634-5.372,1.638-1.114,3.845-4.357,4.99-5.722.358-.424.135-1.874.423-2.556,2.424.34,2.213,5.888,2.926,8.105Zm59.407-55.312c0,1.196.782,2.391,1.787,2.391,1.342,0,2.271-1.956,2.271-3.5,0-2.725-2.065-3.758-3.065-5.798,0,2.56-.993,4.436-.993,6.907Zm52.851,29.707c0-.855-.353-2.044.367-2.386v-3.678c0-.856-1.006-1.11-1.432-1.614-.783-.941-1.642-1.447-1.642-3.247-.783,0-1.349-.254-1.349-1.364l.283-.853c-.144-.344-.363-.771-.643-.771h-.562c0-.09.133-.346.133-.418,0-1.286-1.21-1.714-2.278-2.142-1.997-.776-2.778-1.874-4.133-3.5-.707-.856-1.211-1.88-2.275-2.303-.286-.084-.645,0-.778-.43-.576-1.361-1.077-2.644-2.64-3.239h-2.347c-.578-.347-.717-.774-1.429-.774h-.428v.685c.211.858,1.353,3.246,1.924,3.418.64.16,1.353,0,1.632.763.436,1.023.647,1.54,1.071,2.561.499,1.194,2.139.855,2.638,2.818.142.689.637,2.722.998,2.987.205.174,1.067.26,1.137.433.145.256,0,.764.218.764.211,0,1.065,1.701,1.205,2.132.786,1.964,1.358,3.5,2.78,5.204,1.279,1.535,2.572,2.22,3.914,3.842.075.079,1.36,2.306,1.711,2.306.5,0,1.924-.254,1.924-1.194Zm6.631-15.022c0,.422.714,3.492,1.064,3.58.362.086.782.086.927.517,0,.084-.071.34-.071.428.929,1.708-.215,4.697,2.424,4.697.572,0,.925-.521,1.5-.43.06.334,0,1.276.139,1.276.211,0,.352.426.565.426.859,0,1.211-.934,1.779-.934,1.213,0,1.999,1.014,3.138,1.369,0,.513.211,1.19.921,1.19.931,0,1.073-1.024,2.216-1.368,0-.944.852-2.208.852-2.904,0-.422-.352-.594-.352-1.186,0-.518.707-1.798,1.562-1.968,0-1.448.573-1.962.933-3.842l.349-.853c.217-.088.507-.168.717-.168.775,0,1.35.416,1.566-.857-1.28,0-3.207-4.266-3.207-5.55,0-.256.28-.517.498-.597-.072-.262-.218-.512-.282-.772,0,0,1.928-.934,2.065-1.194-.138,0-.283-.252-.283-.428,0-.762,1.572-.254,1.572-1.024,0-1.705-2.995-.68-2.995-2.472,0-1.277.137-2.132-1.075-2.132-1.137,0-2.707,3.24-3.277,4.604-.279.686-1.919.263-2.559,1.024-.147.176-.216.605-.439.689-.342.163-.273.342-.706.598,0,0-.773.685-.493,1.025-.576.679-.576,1.536-1.64,1.792-.781.171-1.504.171-1.999.76-.99,1.204-.712,3.851-2.915,3.851-.993,0-2.493-.6-2.493.852Zm25.063,1.019c1.213,0,1.717-.328,2.716-.328.922,0,1.565.58,2.493.58,1.425,0,1.921-1.439,2.135-2.722.218,0,.283-.424.356-.686h-.427c-.866.686-1.852,1.452-2.278,1.97h-.574l-4.982-1.032c-1.851,0-2.702,2.829-2.702,4.866,0,.515-.574.936-.645,1.288-.499,1.96-1.281,2.732-1.281,4.603,0,1.024.987,1.024,1.422,1.106v4.098c0,.512.568,1.106,1.133,1.106.795,0,1.076-2.986,1.076-3.406,0-1.112-.635-1.704-.635-2.818,0-.6.565-1.025,1.068-1.025.205,0,.353.084.563,0l-.286,1.796c0,1.103,1.143,1.532,1.143,2.64,0,.252.072.515,0,.769h.918c0-.94,1.571-.845,1.571-1.788-.285-.088-.993-1.022-.993-1.54,0-.174.216-.334.28-.508-.419-.259-1.776-3.324-1.776-3.584,1.988,0,2.133-1.878,3.774-2.474v-.683c-.432-.09-4.205,1.278-4.276,1.526l.151-.339c-.29.431-.361.854-.792.854-1.069,0-1.494-1.622-1.494-2.897,0-1.7,1.138-1.372,2.342-1.372Zm-13.669,21.593c.858,0,.787.599,1.495.599.145,0,.644-.599.778-.934-.495-.248-.495-.512-1.134-.778-.639-.25-1.209.442-1.704-.159-.144-.164-.144-.767-.584-.767-1.278,0-2.201-.186-2.979-1.111.141.077,2.563-.172,2.638-.597h-.571l-2.14.336c-1.29,0-1.785-1.535-3.21-1.535-.849,0-1.062,1.279-2.137,1.279-2.346,0-3.275-2.728-5.411-2.728-.432,0-.713.514-1.139.514-.212,0-.359-.348-.573-.348-.428,0-1.708,1.542-1.78,1.796,1.069,0,1.646,1.022,2.354,1.874.707.864,1.78,0,2.843.439,1.433.501,2.574.59,3.924.59.708,0,.931,1.109,1.782,1.109,2.78,0,5.201.168,7.549,1.284-.069-.264-.212-.862,0-.862Zm14.963,1.116c.922-.338,1.558-.592,2.06-1.7-.639.33-.995.847-2.06.847-1.074,0-1.567-.599-2.853-.599-.499,0-1.288-.09-1.288.599,0,.934,1.071.854,1.57.854h2.57Zm-7.698-1.37c0,.26-.071.439-.071.686-.351-.173-.713-.336-1.352-.336-.646,0-1.216-.091-1.216.846,0,.342.859.603,1.427.603.715,0,1.005-.518,1.718-.853l.564.336h.64c-.141-.166,0-.596,0-1.282h-1.71Zm4.062,2.392h-.714c-.5,0-1.352-.165-1.352.526,0,.842,1.146.93,1.851.93,0,.257.069,1.106.424,1.106h.289c.216,0,.567-.332.567-.599,0-1.02-1.065-.77-1.065-1.964Zm-7.697-2.474h-.644v.86c0,.254.36.592.575.592.353,0,.64-.338.718-.854-.285-.166-.285-.599-.649-.599Zm17.601,2.652c1.135,0,3.488-.686,4.203-1.97-.642-.498-3.781-.162-4.491.691-.14.166-.14.674-.358.765-1.065.419-2.42.419-2.42,2.299,0,.352.219.771.5.771.781,0,1.996-1.022,2.349-1.448.218-.262-.142-1.107.218-1.107Zm19.659-8.546c0-.592-.14-.246-.285-.928-.497.073-.427.85-.427,1.456,0,.495-.715.586-.715,1.439,0,.26.207.684.423.684.576,0,.436-.943.436-1.804.352,0,.568-.319.568-.848Zm-17.589-6.488c0,.689.845,1.624,1.271,1.624.219,0,.723-.935.723-1.103,0-.854-1.993-1.542-1.993-.521Zm3.695,0s.997.351,1.283.351h1.642c.995,0,1.49.852,2.491.852.144,0,.425,0,.425-.166,0-.686-.781-.861-.854-1.54l-.216.086c-.425,0-.921.252-1.063-.35h-3.209c-.137.181-.498.35-.498.768Zm-.28-13.565c-.572.347-.641,1.032-.641,1.712,0,1.116.567,1.448.567,2.382v1.114c0,.512.213,1.62.923,1.62-.356-.592-.503-.935-.781-1.446v-.601c.564,0,1.349-.09,1.638-.17-.07-.685-.569-.851-.569-1.288,0-.494.713-.586.713-1.102-1.217-.343-1.71-1.023-1.85-2.221Zm42.383,19.126c.19.989,1.238.891,1.869,1.48.018.015.02.026.042.049.054.05.111.104.157.17l-.136-.153c.313.271.854.582,1.059.582,1.491,0,2.134-.936,3.419-1.278,0-1.542,1.499-1.194,1.499-2.998,0-.504-.215-1.271-.64-1.271-1.003,0-.576,1.876-1.571,2.472-.642.332-1.709.256-2.781.688,0,0-.64.334-.783.261h-2.134Zm-3.564.762c-1.708-1.022-1.638-3.33-3.92-4.182-.353-.084-.927-.168-.927-.853-.85,0-1.277-1.195-2.133-1.195-1.587,0-3.771-.879-4.842-1.792v-.093c-.033-.01-.095-.028-.143-.047-.07-.066-.154-.135-.212-.207l.157.192c-.358-.112-.933-.346-1.23-.696h-1.932c-.417-.266-.985-1.285-1.848-1.621-.212-.095-.78,0-.844-.435-.853.172-1.715,1.706-2.357,1.966-.995.347-1.142.433-1.706,1.11-.143.172-.79,1.443-1.28,1.443-.434,0-1.429-1.35-1.429-1.706-.642,0-1.07-.333-1.07-.758v-3.073c-1.283-.345-2.215-1.706-3.422-1.706-1.281,0-1.778,1.45-2.633,1.45-.43,0-.999.256-.999.758,0,1.204,1.713.688,2.212,1.89.065.252.215.682.431.764.349.084.635.261.989.261.787,0,1.283-.086,2.064-.343h.5c-.5,1.021-2.634.849-3.631,1.448.142.684.925.334,1.28,1.016.355.686,0,1.032.355,1.887.069.256.499.256.714.256.57,0,.855-.854,1.071-1.536v.768c1.134-.43,1.571,1.79,2.637,1.79,1.138,0,3.06.428,3.847.851.712.434,2.71,1.371,2.982,2.394.363,1.28-.065,2.48.939,3.67-.434.258-1.786.686-1.786,1.706,0,.684.64.684,1.135.684h1.505c0-.426.778-.512,1.065-.512,1.846,0,2.346,2.65,4.196,2.65h2.715c0-.606.637-.94.353-2.057,1.002-.594.854-2.128,2.636-2.128,2.356,0,3.633,2.382,5.058,4.094.142.172.709.33.709.689,0,.932,1.64,1.869,2.71,2.126h1.855c.142.174,1.209,1.029,1.349,1.029h.424c0-.6.5-1.029.931-1.37-.207-.084-1.285.084-1.419-.337-.149-.343-.288-.858-.717-1.026-.281-.082-.704.26-.851-.164-.147-.35-.36-.946-.574-.946-.503,0-1.353-.428-1.561-.85-.575-1.022-.433-1.624-1.143-2.482-.141-.166-1.357-1.613-1.357-2.048,0-.766,1.357-.42,1.357-1.361,0-1.882-1.496-.936-2.213-1.366Zm11.898-5.552c-.787-.936-1.424-1.962-2.779-2.472.213.686.712.594,1.282,1.029.922.672.788,1.627,1.714,2.13-.145.846-.145,1.457.714,1.626.133.162.279,0,.42,0-.064-.169,0-.436,0-.604,0-1.192-.779-1.022-1.351-1.71Zm4.627,4.529c-.138.86.151,1.717.999,1.877v.686c0,.258.217.594.429.594.209,0,.499-.426.499-.686s-1.494-2.137-1.927-2.471Zm13.749,11.436c-.066.508.428,1.785,1.143,1.785-.071-.166,0-.334,0-.502,0-.688-.571-.855-1.143-1.283Zm-3.132-1.36c0,1.018,1.138,1.353,1.99,1.353.075,0,.288-.163.362-.163-.505-.858-1.215-1.19-2.353-1.19Zm.358-3.33c.074.672,1.351,2.714,2.066,2.714-.364-1.268-1.073-2.042-2.066-2.714Zm-4.205-1.796h-.141c0,.936,1.636,1.62,2.204,1.62.215,0,.43-.084.57-.172-.427-.766-1.853-1.282-2.495-1.706l-.139.258Zm-3.351-2.388l.357.258c0,.076-.287.076-.357.076l1.069.854h.643c-.431-.766-.925-.508-1.712-1.188Zm-20.589,90.039c-.066,0-3.912-1.364-3.912,0,0,1.8,2.354,8.107,4.482,8.107,1.433,0,3.352-4.512,3.352-6.394,0-1.026-.567-1.529-.787-2.554-1.003.336-2.207.84-3.135.84Zm3.567-1.708c.073-.42.216-.59.216-1.441-.216.083-.574.083-.927,0,0,.68.061,1.193.711,1.441Zm-23.863-12.544c.641.771,1.708.603,2.493,0-1.005-.6-1.141-.766-2.493,0Zm-11.185-62.565h.707v-1.274c-1.061-.077-1.56.09-2.848.427.288.346,1.287.848,2.141.848Zm44.023,33.207c-1.352-1.624-4.059-3.078-4.059-6.482-.928,0-2.065,0-2.351-1.113-.294-1.194-.434-2.818-1.287-3.842-1.205-1.452-4.275-2.221-4.846-4.267-.567-2.144-1.137-3.237-1.775-5.546-.356-1.378-.356-4.096-1.217-4.781-.282-.168-1.636-.686-2.349-.94-.786-.688-.427-2.222-.711-3.407-.434-1.633-1.355-3.166-1.565-5.475-1.213.771-.863,1.882-1.997,2.902v7.694c-.348,1.947-.788,6.991-2.991,6.991-1.353,0-1.708-1.88-2.706-2.308-1.777-.851-2.847-1.282-4.775-2.126-.28-.084-.28-1.374-.708-1.71-.418-.342-1.43-.174-1.43-.848l.861-4.274c.568-.514,1.629-.592,1.629-1.706,0-.688-.994-1.546-1.417-1.546-.783,0-1.073.691-1.998.691-2.561,0-3.989-1.2-6.41-2.389.146.936.85,1.189,1.28,1.962-.211.076-.778.595-1.28.595-1.214,0-4.062.77-4.062,1.961,0,1.202-1.067,1.807-1.067,2.992,0,.772.214,1.366-.21,2.128-.146-.08-.714-.676-1.066-.676-.645,0-1.212.336-1.567.936-.148-1.534-.866-3.24-2.139-3.24-1.498,0-1.855,1.706-3.773,1.706-.149,1.964-1.567,2.302-1.567,4.693-.578,0-.93-.34-1.495-.682-.363.94,0,2.216-.786,2.811-.29-.596-.71-.936-1.076-1.701-.708.422-.924,1.268-.924,2.134v1.445c0,2.908-5.832,5.292-8.403,5.81-1.352.252-3.921.423-4.773,1.454-.779.926-2.426,3.064-3.768,3.24,0-.26,0-.602-.079-.856-.288.173-.785.341-.785,1.03v4.94c0,2.131.864,3.163.864,4.443,0,.426.2.769,0,1.105-.216-.254-.507-.68-.645-1.105-.22.426-.29.769-.434,1.105-.347,1.282,1.078,1.713,1.426,2.996.932,3.328,1.146,4.524,1.992,8.282.365,1.53,1.429,2.899,1.429,5.374,0,1.964-1.633,2.559-1.633,3.84,0,1.191,3.42,2.981,4.629,2.981,3.201,0,4.269-2.808,6.766-2.808.853,0,.853-.688,1.995,0,1.563,0,2.779-.438,4.271-.608.567-4.348,5.056-2.811,8.687-4.266,1.572-.594,2.069-1.954,4.631-1.954,2.351,0,6.556.846,7.696,2.557.565.942,2.142,5.123,2.635,5.123,0,0-.284,1.536.568,1.536,1.496,0,3.281-4.438,4.566-5.981.063,1.283-.291,5.722-2.076,6.153,0,.429.362.846.719.846,1.066,0,1.142-1.527,1.787-1.875,0-.263.14-.592.14-.849.28.336.707.676.707,1.706,0,.856-.291,1.356-.503,1.872h.857c.573-.164.93-.258,1.421-.594,0,.078.075.43.075.43.074,1.104,1.002,2.13,1.002,3.408,0,3.502,4.557,5.716,7.333,5.716,1.786,0,1.224-1.702,2.852-1.878.071.52,2.991,2.472,3.559,2.569.57-4.104,6.41-2.302,7.201-6.233v.166c0-2.988,1.497-5.628,2.064-7.684.718-2.725,1.999-3.58,3.28-5.972.354-.677.142-1.017.498-1.702v-2.392c.636-.771,1.061-3.416,1.061-5.29,0-2.562-.712-7.183-1.851-8.97l.075-.252Zm42.456,44.044c-.353.17-.71.765-1.209.765-.431,0-.36-.595-.36-1.198-.217,0-.498-.256-.498-.84-.642.336-1.705,1.527-1.705,2.808,0,.172-.076.34-.076.515-.563.084-.996.254-1.28.938-.075.252-.075.854-.075.854,0,0-1.003,1.878-1.348,2.046-1.211.683-2.279,2.822-3.995,2.822-.497,0-.855.513-1.137,1.108-.715,1.271-2.847,2.472-2.847,4.691,0,.172.212.34.353.34,0,.424,2.774,1.708,3.205,1.708.425,0,1.278.426,1.566.426.787,0,2.065-1.277,2.714-2.042,0,0,1.988-4.947,2.204-5.981.567,0,2.283-.426,2.625-.426.15-1.026-.205-1.358,0-2.647,1.152,0,2.568-3.157,2.786-4.268-.282-.168-.421-.6-.421-1.286-.224,0-.431-.078-.503-.332Zm9.117-9.985c-1.146,0-1.065.855-2.419.855-1.709,0-2.642-1.28-2.642-3.505h-.421c-.361,0-.642.341-.642.853h-.428c-.361-.422-1.217-2.3-1.217-2.724,0-.259.217-.34.294-.606-.427-.254-.427-.848-.864-1.359-.707-.858-1.921-.939-2.703-2.387.431,2.044,1.418,4.86,3.065,5.204-.073.254-.217.596-.217.85,0,.683.566.94.785,1.622v-.053c.105.435.29,1.139.29,1.671,0,1.28-.144,2.478-.858,3.33-.361.428-1.002.512-1.002,1.372,0,1.533,2.637.846,2.637,2.558,0,1.028-.851,1.45-.851,2.476,0,.686.426,1.11,1.069,1.11,1.492,0,1.92-1.714,2.631-2.996.14-.25.996-1.098.996-1.697,0-.257-.282-.604-.282-.852,0-.684.711-.936,1.425-1.116.065,0,.136-.252.207-.252l.299.433c.708-1.288.417-3.084,1.419-4.27-.14-.263-.359-.515-.571-.515Zm.212-51.906v-1.014c-.352-.08-.647-.347-.854-.767-.64.261-1.633.504-1.633,1.614,0,.348.922.518,1.498.518.561,0,.561.157.989-.352Zm.359-3.148c0,.247.213.766.428.766.713,0,.925-.854,1.775-1.108v-.767c-.428,0-2.203.088-2.203,1.11Zm-107.492-65.264c-.061.221-.014,1.256-.214,1.779-.205.439-1.363.119-1.387,1.155-.389.061-.59.439-.601.958-.131-.006-.252-.01-.388-.01-.453-.017-.307-1.2-1.15-1.208-1.167-.035-.872,1.618-2.237,1.583-.14.741-.405,1.176-.412,1.915-.006.23.252.526.244.745,0,.305-.544,1.708-.027,1.714.721.009.625-2.431,1.285-3.164,0,0,.449.604.64.683.063-.076.202-.371.202-.371.124.151.256.377.645.379-.056-.221.01-.442.015-.664l.903.029c.064.219.189.516.249.745-.196.134-.326.366-.336.877-.019,1.419.743,2.613,1.652,2.634.191.002.446.079.648-.05-.002.209.124.601.322.601.452.004.721-.439.723-1.032.011-.815-.761-1.053-.751-1.577,0-.439.327-.584.6-1.028.128.226.313.379.373.603l-.034-.179c.109.416.569,1.686.793,1.755.022-1.261.807-1.686.825-2.508.002-.664-1.041-5.069-1.545-5.684-.261-.291-.579-.672-1.037-.68Zm-15.181,2.945l.451.019c.789-.58,2.034-1.519,2.325-3.222.52.008.975-.129,1.116-.787.322,0,.394-.227.654-.434-.256-.306-.576-.467-.567-1.202-.196.211-.205.582-.34.952-.734,1.616-2.96,2.468-3.64,4.674Zm3.605-15.659c-.01.442,1.147,1.352,1.41,1.358.195.006.328-.291.467-.506l.383.004-.009.743c-.131.153-.393.364-.399.81-.012.379.503,1.052.953,1.062.394.012.66-.43,1.048-.424.91.015.949,1.65,1.862,1.673-.184-.603-.377-.909-.044-1.415.377.672,1.928,1.374,2.306,2.279.063.219.122.594.319.603.126.002.259-.295.264-.444,0-.222.005-.365.005-.592-.445-.009-.839-.311-.828-.912-.129.07-.453.14-.453-.002.007-.387.326-.44.4-.889-.127-.002-.254-.157-.381-.157-.268,0-.339.516-.595.504-.396-.005-.565-1.708-1.345-1.731-.385-.008-.717.279-.718.576-.004.075-.004.303-.009.366-.709-.385-1.589-2.261-1.571-3.371.015-1.554,1.188-1.671,1.214-3.313.017-1.262-.814-2.39-.795-3.356.005-.144-.129-.379-.129-.521.008-.079-.118-.31-.118-.372-.259.137-.468.727-.854.723-.584-.017-.437-1.346-1.155-1.366-.521-.002-.658.733-.66,1.471-.024.893.292,1.497.279,2.388-.007.672-.152,1.706-.42,2.218-.646-.163-.411,1.399-.427,2.595Zm10.883,6.69c-.515-.02-.9-.323-1.422-.335-.195,0-.388.219-.588.28.113.606,1.55,1.15,1.528,2.188,0,.159-.206.439-.329.439-.069,0-.523-.008-.851-.014l-.007.444c.067.219.513.983.969.987l-.012.444c-.264.435-.144,1.038.312,1.05.19,0,.389.009.583.009l.004-.448c-.253-.15-.507-.901-.556-1.491l.971.011c.066-.293.199-.509.276-.953-.071,0-.506-.685-.506-.685,0,0,.068-.741.01-1.178-.132-.011-.26-.011-.392-.011.071-.225.009-.518.009-.737Zm-5.584,1.452c-.084-.114-.184-.241-.276-.249-.131,0-.403.208-.403.36-.005.676.238,2.091.217,3.354.587-.435,2.102-1.071,2.111-2.339.008-.565-1.138-.834-1.648-1.127Zm1.963,2.178c-.329.069-.683,1.919-.691,2.136-.189,0-.581.211-.581.442-.01.516,1.144,1.955,1.402,1.958.124,0,.394-.22.394-.363.005-.452-.323-.308-.316-.975.016-.895.741-1.466.757-2.355.003-.441-.31-1.059-.965-.843Zm.611,2.912h.316c.021-1.114.874-1.465.892-2.802-.202,0-.399-.004-.587-.004-.024,1.335-.418,1.927-.621,2.806Zm2.019-.928c-.197.293-.518.137-.829-.021-.214.448-.609.661-.613,1.1,0,.155.251.377.381.377.584.026,1.055-.633,1.062-1.456Zm-1.365-4.112c.016-.955-.829-1.202-1.017-1.872l-.58-.02c-.01.308-.01.594-.019,1.118.323.01.582-.056.912.021-.01.368.7,1.133.704.754Zm-5.182-1.362c.264,0,.595-.883.476-1.483-.187-.895-.896-.764-1.67-1.372l-.649-.007s1.454,2.85,1.844,2.861Zm.686-2.371c.126.151.513.09.648.018-.126-.147-.513-.089-.648-.018Zm-.928-30.871c-.999,0-2.501,3.33-2.501,5.116,0,1.28-.218,2.394,1.069,2.394,1.637,0,3.204-7.511,1.432-7.511Zm-21.024,14.506c0-.502-.49-1.274-.849-1.274-.926,0-3.351,2.131-3.924,2.131-.353,0,0,.772,0,1.286,0,1.107.497,1.699,1.575,1.699,1.06,0,3.197-2.647,3.197-3.842Zm-10.117,54.124c.074.257.362,1.188.503,1.188.287,0,.501.508.928.508h.494c-.068-.248-.068-.582-.068-.848-.999,0-1.427-1.616-1.782-2.898-.503.08-1.495.679-1.495,1.106,0,.685,1.138.254,1.421.943Zm4.273,2.214c.432,0,.718-.51.794-1.025-.213-.082-.435-.426-.654-.426h-.703c-.072,0,0,.344,0,.426,0,.426.142,1.025.563,1.025Zm-18.083-5.21h-.574v.339c0,.607.928,1.968,1.283,2.056.058-.848-.274-1.348-.709-1.973v-.422Zm-2.788-5.195l-.349.166h.066c.07.508.997,1.866,1.28,1.866.57,0-.561-1.702-.998-2.032Zm64.684-81.172c0,.423.358.936.711.936.217,0,.498-.349.855-.349-.142-.25,0-.51,0-.766.069.43.144.942.568,1.114l-.28,1.189s-.711,1.201-.711,1.378c0,.339.423,1.354.991,1.354v-.51c0,.26,0,.766.216.766,1.001,0,1.57-2.644,1.785-4.176.211.167.423,0,.638,0-.139-.263,0-.599,0-.858l-.638-.682c-.215,0-.074-.606-.074-.856-.854,0-1.284-.682-1.853-.682-.21,0-2.208,1.623-2.208,2.141Zm6.56.674c.923,0,1.07-1.365,1.704-2.133.215.084.503.6,1.064.6.715,0,1.574-2.985,0-2.985-.991,0-1.205,1.453-2.42,1.015,0,.092-1.347,1.291-1.347,1.291,0,.417.137.591.566.93-.074.432.067,1.283.432,1.283Zm7.686-10.411c-.642,0-1.064,2.639-2.277,2.639h-4.417c-1.859,0-2.498,2.145-3.993,3.334-.274.171-.923.341-.923.603,0,.332.504.332.998.332,1.495,0,2.775-.674,3.703-1.186.563-.35,1,.078,1.568-.255.207-.095.285-.683.715-.683.855,0,1.282.51,2.141.766,0,.343-.221.938-.221,1.449,0,.253-.218.686,0,.686.502,0,.429.672.998.843.359-.843,1.214-2.215,1.708-2.215.213,0,.498,0,.715-.08-.074,0-.715-1.029-.715-1.37,0-.252.213-.68.432-.68.64,0,.575,1.451,2.061,1.451.572,0,.998-.521,1.428-1.023h.712c0,.173.222.423.356.423.285-1.191.929-1.279,1.924-2.045-.068.594-.355.68-.068,1.361.851-.333.851-1.19,1.714-1.712-.153-.51-.364-.844-.364-1.621,0-1.098.788-1.616.788-2.39,0-.938-.217-3.581.491-3.834.212-.088.433.086.652-.172v-.509c0-1.11.991-1.286.991-2.649,0-1.199-.991-1.79-.991-2.985,0-.594.066-1.104-.146-1.704-.073-.26-.354-.43-.857-.43-.212,0-.075.774.143.774.075,0,.146.081.209.081-.854.851-.774-.258-.915-.258-.933,0-1.646,2.129-1.646,3.155,0,.428.279.428.279,1.024,0,2.733-2.416,6.319-3.913,6.92-.85.344-.994,1.185-2.068,1.185-.139,0-.356-.247-.356-.426,0-.343.153-.677.356-.939-.203.092-1.141,2.138-1.21,2.138Zm8.052-19.035c-.14.597-1.281,1.198-1.281,2.138,0,.338.36.51.36.851v1.956h.413c.574-.681,1.154-.335,1.714-1.276-.276-.337-1.346-.337-1.346-1.192,0-1.446,1.207-.594,2.133-.594,0-.264.289-.603.495-.683,1.221.939,1.93,1.107,3.062,1.963.573-1.023,1.076-2.981,2.571-2.981,1.065,0,1.566-.259,2.211-.774-.284-.082-.859-.596-.859-1.107,0-.432.289-.596.431-1.031-.431-.332-.931.175-1.496.175-2.775,0-3.634-2.73-5.556-4.265-.142.254-.435.513-.435,1.11,0,.338.366.503.366.851,0,1.109-.501,4.438-1.716,4.438-.21,0-.501.082-.715,0l.15.17c-.222-.17-.362-.26-.503-.422v.677Zm10.26-2.559c-.145.257-.211.761,0,.761.639,0,1.496-1.268,1.775-1.791l-.24-.224c-.557.076-1.265.774-1.535,1.254Zm1.421-1.363l.114.109c.035-.007.071-.032.101-.032l-.215-.077Zm3.995-3.079c-.853,0-1.573,1.881-1.573,1.881,0,.087-.064.426,0,.426.999,0,.999-1.709,2.64-1.709v-.598c-.287.09-.643,0-1.066,0Zm3.345-.761c.567,0,1.144-1.196,1.212-1.711-.148,0-.998,0-1.139.515-.073.249.141.682-.073.682-.14,0-.14.515,0,.515Zm-13.535-23.82c-.284-1.106-.857-2.218-.857-3.924h-.494v1.799c0,.422-.29.594-.29,1.101-1.06.254-1.5,2.561-1.5,4.355,0,1.279,1.081,1.791,1.081,3.076v5.038c0,1.023-.363,1.361-.363,2.645,0,1.021.433,1.184.433,2.389,0,1.279-.289,2.298-.289,3.843,0,.417-.208,2.471,0,2.471.859,0,.859-1.884,1.711-1.884h.709c.074.347.43.944.714.863.075,0,.218-.089.218-.089-.573-1.458-2.071-2.391-2.071-4.355,0-2.217.22-4.952,2.141-4.952.632,0,1.143.514,1.497,1.118-.423-2.05-1.354-3.763-1.927-5.894-.142-.51-.642-1.458-.497-2.305v-2.05c-.498-1.202.069-2.052-.214-3.247Zm-185.206-68.878s1.917-.086,2.136,0c1.205.426.571,1.796,1.069,2.988.136.428,1.282,0,1.776,0,.216,0,.356.518.497.6h5.561c-.068-.167-.15-.285-.232-.416-1.578-1.693-3.899-2.467-3.899-5.562,0-5.459,4.915-11.18,8.549-12.373,1.279-.427,1.636-2.314,3.419-2.314.853,0,1.141-1.705,1.569-1.959,2.347-1.365,4.123-.681,6.622-2.127,1.782-1.024,7.265-1.539,7.265-4.445,0-.935-1.997-2.134-2.851-2.134-3.56,0-6.913,4.867-10.687,4.867-.854,0-1.281-1.025-2.135-1.025-1.357,0-1.357,1.025-2.277,1.025-2.635,0-4.631,4.093-6.411,4.093-1.073,0-1.779.601-2.846.601-.502,0-.713.511-.713.86,0,.507.496.849.496,1.532,0,2.393-3.703,3.667-3.703,5.12,0,.683.996.856,1.066,1.877-1.141.342-3.42.942-3.42,2.395v1.274c0,1.535-2.135,1.368-2.135,3.415,0,1.024,1.284,1.707,1.284,1.707Zm10.754,3.074c.019.029.037.067.054.098.075.082.162.156.232.244l-.286-.342Zm269.335,19.373c-1.91.764-3.056.602-4.277,2.31-.78,1.109-1.061,4.266-2.49,4.266-3.208,0-6.913-7.259-11.395-7.259-1.416,0-.709,2.138-1.068,2.993-.853,2.039-4.986,1.445-4.986,5.122,0,1.362,8.438,6.148-2.141,6.398-5.548.125-10.038,9.816-16.376,9.816-2.146,0-7.423-7.931-13.184,6.83-.688,1.771,0,2.81,0,3.839,0,1.531-2.487,2.303-2.487,5.123,0,1.791-3.21,2.301-2.853,4.688-2.923.857-3.917,5.544-5.346,8.113-1.993-1.882-2.851-12.208-2.851-15.364,0-3.671,2.495-5.636,4.28-6.828,2.133-1.452,3.489-4.695,4.987-7.262,1.278-2.219,3.035-1.479,4.979-2.982,5.584-4.306,1.858-6.153,1.075-5.974-7.772,11.488-7.271,4.095-6.054,2.984-2.422-.43-2.994,0-4.276,0-4.913,0-7.052,3.332-8.198,8.962h-3.918c-1.776,0-3.134-1.704-6.048-1.704-2.35,0-10.829.854-13.537,1.704-3.067,1.031-5.981,5.463-8.195,8.109-1.491,1.794-5.335,4.436-5.335,6.831,0,.513,2.187,6.369,6.409,2.552,1.424-1.277,4.511,3.217,4.511,5.522,0,1.883-.83,3.81-1.245,4.696-1.111,2.368-.28,3.957-.773,6.436-.426,2.225-2.01,5.006-3.147,6.368-2.856,3.417-6.684,13.692-10.745,13.692-2.201,0-4.972-.857-4.986-.861l-.004.002c-1.702,1.627-2.277,2.983-3.204,5.295-.281.681-1.559,1.537-2.062,2.13-.569.69-1.283,1.284-2.136,1.284-.146,1.45.57,2.219,1.214,2.986,1.567,1.868,2.634,3.84,2.634,7.172,0,1.961-.427,2.9-1.426,3.241-.433.173-2.217.253-2.217,1.02-.847.263-.983.263-1.414.777h-1.07c0-.432.353-.688.431-1.118-.358-.079-.358-.507-.358-.846,0-.608.635-1.713.635-1.969,0-.511-.355-.934-.355-1.45-.426-.084-.566-.426-.713-.594v-.861c.576,0,1.142-.508,1.142-1.11,0-1.017-1.062-1.692-1.925-1.692-.498,0-.78.41-.998.41-.492,0-.71-1.02-.71-1.451,0-1.024.786-.939.786-1.789,0-1.019-.353-1.019,0-1.882-1.074,0-1.427-.933-2.28-.933-2.286,0-3.922,2.561-5.911,2.561,0-1.541,1.355-2.134,1.355-3.507,0-.502-.786-1.613-1.355-1.613-.71,0-.993.848-1.14,1.111-.574,1.109-2.211,2.38-3.066,3.158-.997.851-3.062.252-3.062,2.046,0,.847,1.215,1.185,1.499,1.45.849.772.566,1.619,1.424,2.301.569.432,1.282.182,1.848.182.427,0,.427-1.883.993-1.883.795,0,1.077.683,1.571,1.02.997.77,2.066-.168,2.638.77-1.427,1.713-4.482,1.713-5.126,4.013-.288,1.02-1.501,1.104-1.501,2.132,0,1.198,1.35,2.051,1.927,2.139,0,.251.068,1.623.068,1.623h.149l-.077.08c.641.428.641,1.459.862,1.882,1.274,2.311,1.987,3.668,1.987,7.342,0,2.472-1.065,3.33-1.065,5.203-1.068.257-2.992,3.66-3.421,4.692-.65,1.621-1.141,4.781-2.848,4.781-.136.856-.5,1.199-1.065,1.534-1.995,1.372-2.776,3.763-6.057,3.763-.71,0-1.07-.691-1.782-.691-.144,0-.858,1.626-.858,1.626-.854,1.023-2.207.679-3.559,1.451-.575.348-1.999.595-2.492,1.194-.574.681-.148,1.791-.929,1.791-.645,0-.42-1.701-.353-2.137-1.354-.767-2.209-.254-3.427-.94-1.418,2.647-4.913,3.254-4.913,6.922,0,.765.356.94.642,1.27,1.638,1.97,2.349,4.191,4.135,5.552,1.705,1.366,2.854,5.122,2.854,7.936,0,1.968-.857,2.738-.857,4.271-2.282.687-2.496,1.618-4.348,2.722-.861.524-.715,1.893-1.568,1.893-.216,0-.216-.514-.216-.773v.942c0,.852-1.423,2.132-1.704,2.132-.289,0-.574-1.19-.574-1.714,0-.684,0-1.019.285-1.189-.285-.171-.426-.851-.498-1.291-1.061,0-2.489-.411-2.489-1.703-1.572,0-.783-1.268-1.645-2.305-.993-1.185-1.993-1.272-3.129-1.705-.144,0-.36-1.104-.36-1.104-.215-.941-1.065-1.103-1.849-1.103-.571,0-.43.51-.43.928,0,.778.286.941.286,1.628,0,2.562-2.07,3.24-2.07,5.54,0,2.649,2.423,1.622,2.423,4.103h-.136c.282.594.347,2.136.85,2.728,1.924,2.305,6.127,2.818,6.127,7.084,0,.858-.283.858-.283,1.628,0,1.53,1.062,2.048,1.354,3.068.289,1.116.289,1.54.637,2.481-.566.078-.637.078-.929.078-.211,0-.277.344-.5.344-.709,0-.775-.598-1.203-.766-2.211-.855-4.205-3.414-4.991-6.231-.636-2.477-.779-4.264-1.564-6.23-.499-1.197-.995-4.267-2.14-4.267-.708,0-.275.514-.923,0-.142,0,0-.34,0-.52,0-1.194.141-2.04.354-3.234h.354c-.567-.36.002-2.31.002-3.243,0-3.765-1.854-5.97-1.854-8.712-.923,0,.293-2.559-.424-3.838-.211-.426-.787-.254-.93-.426-.42-.515-.206-.858-.634-1.366-1.211,1.445-1.711,3.926-3.711,3.926-1.063,0-1.139-1.026-1.139-2.134,0-1.114.358-1.626.358-2.562,0-.418-.358-.684-.428-1.109-.494-1.799-1.353-3.156-2.063-4.522-.997-.943-1.777-1.619-2.354-2.731-.569-1.027-.428-2.395-.71-3.416-.285-1.193-1.494-1.704-2.567-1.964,0,2.561-1.989,3.073-3.843,3.073-1.14,0-1.14-.42-1.711-.853-.501,1.281-1.993,1.373-2.213,2.132-.277,1.197-.209,2.14-.849,2.906-1.287,1.537-3.346,1.965-4.487,3.324-1.434,1.7-2.706,3.42-4.061,5.032-.568.69-1.353,1.718-1.856,1.888-1.276.515-2.776.763-2.776,2.56,0,1.533.504,2.386.504,3.756,0,2.128-.856,3.495-.856,5.117l.353,2.219-.353.092c0,.252-.499.252-.713.334-1,.342-.786,2.558-1.36,2.901-.849.51-.988.181-1.352,1.03-.282.682-.352,1.712-.924,1.712-.568.082-.993-.262-1.072-.858-.351,0-.563-.604-.637-.854-.57-2.058-1.352-3.766-1.848-5.558-.288-1.18-1.283-2.042-1.571-2.725-.567-1.367-.216-2.483-.783-3.493-.567-1.118-.567-1.633-.857-2.732-.349-1.279-1.634-4.094-2.138-5.983-.424-1.696-1.212-3.326-1.212-4.95,0-.252-.111-.96-.111-1.208l.056.061c.027-1.141.342-1.368.342-2.433,0-1.371-.709-2.389-.709-3.507,0-.248.423-.852.423-1.186h-.564c-.925,1.108-1.001,4.004-2.847,4.004-2.209,0-3.069-2.645-4.131-3.924.64-.516,1.134-.08,1.778-.343.567-.173.636-.935.928-1.277-.567-.178-1.075-.178-1.645-.178-1.419,0-3.489-1.698-4.198-2.98-.575-1.11-.999-3.075-1.855-3.416-.783-.256-1.348-.078-2.137-.078-.854,0-1.064.677-1.788.677l-1.85-.599c-.282.175-.491.431-.632.599l-2.496.171c0,.083-.288,0-.356,0-1.352,0-4.493-1.025-6.41-1.025-.359,0-2.422-.68-2.501-.77-.707-.848-.707-3.412-2.197-3.412-.783,0-1.071.77-1.496,1.284h-3.562c-1.143-.432-1.717-1.542-2.431-2.394-.851-1.03-1.99-.515-2.774-1.45-.423-.512-.21-1.192-.351-1.538-.786-1.87-2.356-4.521-4.352-4.521-.998,0-1.427,1.531-1.427,2.727,0,.858,0,1.278.149,1.969.428,2.046,2.428,5.708,4.063,6.142,0,.935.424,1.192.492,1.962.852-.256.71-1.367,1.424-1.535.071.339.071.593.071.935,0,1.028-.494,1.708-.494,2.734,0,1.196,1.844,1.793,2.915,1.793,4.774,0,5.133-3.499,7.693-5.803v3.155c.996,2.471,2.353,2.903,4.416,3.674.787.246.857,1.698,1.35,2.044v-.088c.362.771,1.358.603,1.358,1.373,0,1.959-2.068,2.64-2.068,4.691-1.068,0-1.776.341-2.064,1.363-.285,1.028-.211,2.479-1.064,2.479-1.076,0-.995,2.477-2.069,2.477-.639,0-1.989,1.447-1.989,2.468-1.929.424-6.268,1.368-6.268,3.248,0,.254.138.596.276.768-1.631.936-3.839,1.534-5.554,2.044-.853.254-3.702,2.648-4.631,3.164h-2.204c-1.216,1.028-1.406,1.728-2.902,1.728l-.444.321c-.217,0-2.031-1.065-2.227-1.176-.176-.106.382-.108-.086-.954-.739-1.339-1.255-2.738-1.255-4.372-.778-.076-.227-1.697-.08-2.46.355-1.888-.846-2.651-1.626-3.592-.858-1.02-2.833-3.967-2.833-6.02-2.487-.677-3.081-2.428-3.081-5.671,0-1.961-.923-2.392-1.213-4.013-.351-.334-.715-.851-.927-1.106-.287-.341-1.21-.174-1.421-.423-.433-.517-.281-1.798-.433-2.305-.211-.863-.71-1.544-.997-2.054-.849-1.532-1.566-2.817-2.344-4.271-.219-.426-1.211-1.789-1.211-2.043,0-.58.226-1.668.371-2.708-.299,1.229-1.07,3.415-1.297,4.248-1.499-.263-2.712-4.101-3.924-5.552v1.451l6.773,14.34c-.356,1.784,1.776,5.552,2.845,6.566v4.53c.714,2.295,2.139,2.295,3.208,4.009,1.284,2.046.501,4.273,1.782,5.802,1.135,1.37,1.915,1.45,3.206,2.558,1.141,1.03,1.752,4.569,4.093,4.569,0,1.456.678,1.671-.034,2.687.919.853,1.853,3.584,3.056,3.584,1.144,0,1.217-1.11,2.141-1.444,1.07-.438,1.779.173,2.852,0,2.706-.516,5.272-1.792,7.837-2.564.211.508.497.771.497,1.277,0,4.866-3.204,11.18-4.99,14.086-2.136,3.41-3.056,6.488-5.696,8.962-4.695,4.446-9.754,5.802-11.539,13.407-.493,2.124-2.35,2.716-2.35,5.124,0,2.643.563,3.832.563,6.396,0,2.902,2.645,4.348,2.645,5.966,0,.52-.434,1.116-.507,1.288v2.13c0,1.37-.212,2.986-.212,5.38.433.506.572,1.017.572,1.715,0,6.653-9.404,5.89-10.186,11.515-.991.172-2.136,1.618-2.136,2.559,0,1.88,1.996,3.161,1.996,5.72,0,1.37-.143,4.176-.575,4.945-.427.685-1.641.352-2.136.601-1.705,1.031-2.704,1.878-3.559,4.02.632.418,1.064,1.02,1.064,1.788,0,2.388-1.994,4.258-2.841,5.296-1.575,1.865-1.721,3.844-2.853,5.55-1.781,2.726-2.565,5.117-5.487,6.825-1.211.683-2.993,0-3.213,1.538-.921.086-1.488.586-2.133.586-.777,0-1.208-.846-1.995-.846-2.99,0-4.769,2.566-7.476,2.566-1.21,0-1.849-.772-2.284-1.721-.427.09-.563.346-.714.439,0-1.706-.71-3.584-1.279-4.271.569-.686.927-1.369.927-2.31,0-1.366-1.994-3.93-2.346-4.689-2.569-5.214-5.848-10.25-5.848-17.754v-2.308c0-1.196-.85-1.616-1.421-2.814-1.996-4.008-4.132-7.258-4.132-12.806,0-5.972,4.49-7.428,4.49-11.955,0-2.128-.711-2.986-.929-4.858-.502-3.669-1.068-4.951-1.783-7.083-.565-1.704-.285-3.67-1.207-5.114-1.856-2.828-5.915-5.81-5.915-9.821,0-.939,1.138-3.076,1.635-3.416-.282-.768,0-.944,0-1.276,0-1.032,0-3.588.717-4.273-.779-1.876-2.072-3.588-4.487-3.588h-2.99c-2.14,0-2.637-4.94-5.563-4.94-3.553,0-6.188,1.957-8.9,2.983-1.07.42-1.424,1.538-2.49,1.538-1.072,0-2.856-1.284-4.276-1.284-2.775,0-3.991,1.702-6.769,1.702-.854,0-1.847-.418-2.135-.676-1.998-1.799-6.126-4.702-7.626-7.432-1.35-2.471-1.778-4.522-3.557-6.225-.501-.434-4.275-4.441-4.275-4.785-.355-.509-.571-.67-.93-1.189h.221c0-1.29-.361-1.968-.361-2.731,0-1.2-.568-1.63-1.068-2.815,1.567-.941,2.988-5.548,2.988-7.68,0-3.762-1.421-6.157-1.421-9.56,0-1.712,1.642-2.744,1.997-4.105.924-3.328,3.062-7.848,4.774-10.67.995-1.618,2.846-1.443,4.128-2.302,1.07-.769,2.851-2.474,3.205-3.844.855-3.156-.211-4.519,1.209-6.657,1.853-2.812,4.275-5.468,6.06-8.109h-.146c.57-.846.713-1.622,1.427-2.304,1.778,1.536,3.634,2.133,6.057,2.133,1.497,0,1.779-1.023,2.636-1.531,2.78-1.623,8.047-4.009,11.254-4.009.997,0,1.921.848,2.488.848.784,0,1.931-1.276,2.999-1.276.92,0,1.35.592,2.139.592,1.421,0,1.488-1.273,2.848-1.273,1.35,0,.997,1.532,2.129,1.532.435,0,.647-.422,1.072-.513-.072,1.283-1.072,1.105-1.072,2.219,0,.769.928,1.11.928,1.881,0,1.279-.928,1.953-.928,3.242,0,2.125,1.853,4.008,3.21,4.008h2.001c4.625,0,6.266,6.828,11.531,6.828.644,0,1.424-.856,1.424-1.282v-1.705c0-2.73,1.713-2.73,3.925-3.578l.213.167h1.563c0,1.192.789,1.447,1.071,1.956.642,1.031,2.283.347,3.42.861,2.272,1.028,5.484,2.299,7.977,2.299,2.275,0,2.989-1.27,5.2-1.27,1.35,0,2.134,1.102,3.706,1.102,1.058,0,1.058-.425,1.995-.677.071.213.16.406.244.606l-.392-1.124c0-.593.502-.593.573-.935.5-1.876.712-2.817,1.135-4.53.433-1.708,1.854-2.129,1.854-4.094,0-1.451-.353-2.643-.353-3.662,0-.516.353-.693.495-.857v-.854c-.566.259-.78.764-1.351.764-.714,0-1.143-.335-1.426-.678-1.138,1.02-1.494,2.128-3.561,2.128-1.497,0-2.063-2.128-3.562-2.128s-1.212,1.96-2.487,1.96c-1.354,0-2.069-2.306-3.424-1.54h-.783c.211-.077.5-.34.567-.506-.432-.509-2.491-1.795-1.782-2.646-.641-1.112-1.423-1.025-2.412-1.621.707-.852,1.489-.688,1.489-2.305,0-.598-.144-.598,0-1.025-.5,0-1.211.088-1.211-.434,0-2.636,5.132-2.129,6.407-2.896-.139-.683-.566-.429-.566-1.023,0-.769,1.352-.433,1.715-.433h2.203c.855,0,2.136-1.107,2.923-1.704.924-.684,2.921-.769,4.132-.769,1.927,0,1.851,1.289,3.492,1.289,0,1.024,2.773,1.616,3.562,1.697h4.056c1.466,0,2.31-1.329,3.572-1.967-.021.014-.055.02-.082.031l-.284.053c0-6.737-8.189-5.886-9.974-10.917,4.141-1.27,2.275-3.585,2.139-4.093.361-.175,1.281-1.454,1.281-1.454-1.928.852-7.122,3.158-7.122,3.835,0,1.035.927,1.281,1.21,1.281,0,0,1.851.341,1.992.341-.566.853-3.983,2.652-4.986,2.652-.996,0-4.271-6.402-5.55-6.402-1.57,0-1.718,2.217-3.284,2.73.077.433,0,.851.077,1.28-.712.17-1.475.586-1.475,1.442-.272,1.388-.237.696-.451,1.202v2.223c-.714.855-1.998,2.557-1.998,3.756,0,1.708,1.926,2.896,2.358,3.663-.29.343-.571.262-.933.343-.641.259-1.135-.081-1.778.259-.925.512-1.143,1.618-2.065,1.618-1.069,0-1.714-1.703-2.989-1.703-1.142,0-1.424.768-2.356,1.106.145.688.145,1.193,0,1.877-1.064,0-1.204-1.279-1.849-1.279-.359,0-.777.521-.777.944l1.341,1.878c-.064.507-.282.767-.282,1.019,0,.266,1.93,2.392,2.5,2.392,0,.255.139.595.282.769-.359.254-1.069-.08-1.215.515h-.143c-.777-.171-1.494-.855-1.847-1.283v.688c.211.506.422.764.422,1.451,0,.506-.713,1.532,0,1.958h-.991c-1.144,0-2.136-1.372-2.136-2.814,0-.595.71-.855.923-1.283h-1.216c-.281,0-.425-.764-.425-.94-.29-1.186-.85-1.964-1.489-2.728-.865-1.019-1.996-1.796-1.996-3.58v-2.226c0-1.2-1.572-2.988-2.566-3.582-.998-.603-2.139-.686-2.139-1.877h-.999c-1.572,0-3.344-2.905-3.344-4.867h-2.136c-.931,0-.507-1.787-.931-2.306-.786.599-2.351.599-2.351,1.536,0,.168.212.512.359.512-.147.51-.29,1.029-.29,1.531,0,1.287.64,1.791,1.495,2.141,1.07.424,1.641,1.876,1.857,2.644.279,1.199.778,2.564,1.349,2.899,1.07.61,1.782.17,2.849.17,0,.266,0,.515-.139.681-.292,1.033,1.421,1.466,1.85,1.713,1.426.856,3.134,1.535,2.928,3.326-.719-.164-1.142-1.279-2.29-1.279-.853,0-1.562.521-1.562,1.37,0,1.112,1.282,1.364,1.282,2.472,0,.426-.928.426-.928.426-.639.769-.5,2.56-1.492,2.56-.497,0-.787-.251-.787-.595.859,0,1.206-1.28,1.206-2.308,0-1.273-.564-1.615-.715-2.379-.201,0-1.916-2.035-1.985-2.551-.285,0-1.354-.36-1.354-.873-2.212-.592-2.706-1.363-3.916-2.816-.502-.599-1.572-.937-1.717-1.535-1.277-1.963-1.703-5.463-4.413-5.463-1.276,0-1.351,1.106-1.993,1.453-1.357.769-2.277,2.301-3.848,2.301s-2.563-.937-3.989-.937c-1.071,0-2.206.851-2.206,2.14l.427,1.871c-.427,1.709-1.995,2.313-3.493,2.736-1.283.343-3.35,3.842-3.35,5.716,0,.679.361.933.715,1.11-.928,1.703-1.355,2.728-2.848,3.582-.854.509-.998,2.648-2.422,2.14v.077c-.645-.247-1.851.178-2.21.178-1.709,0-2.635,1.704-4.206,1.704-1.063,0-1.137-3.154-2.774-3.154-1.208,0-1.991.589-3.065.589-.424,0-.563-.422-.563-.682v-3.416c-.573,0-1.14-.506-1.14-1.195,0-1.102.779-1.363.779-1.956,0-2.137.641-4.35.641-6.565,0-1.292-.781-2.483-.781-3.258,0-.504,2.423-2.301,2.847-2.301.284,0,.646.512,1.071.34h3.203c.285.345.859.435,1.212.52h3.419c.855-.26,1.286.333,1.993.333.497,0,1.569-.417,1.786-.417,0-1.719.919-2.223.919-3.843,0-.347-.073-1.84-.073-2.355l-.139.132c.145-.338.287-.938.287-1.275,0-.772-.429-.602-.429-1.289-1.425,0-1.854-1.531-1.854-2.895-.424-.084-.497-.519-.85-.599-1.136-.43-4.274-1.111-4.274-2.396-.068,0-.068-.252-.068-.338,0-.762,1.99-1.278,2.703-1.536.217.514,1.352.857,1.928.857.562,0,1.353-.344,1.635-.43v-.592c-.498-.174-.282-1.453-.358-1.709v-.689h.714c.568.689,1.281,1.107,2.135,1.107.574,0,1.072-.593,1.213-1.273,2.142,0,2.705-1.881,3.137-3.928.426,0,.643-.084.998-.175.428-.167,3.273-1.53,3.557-1.87.572-.684.357-1.713.357-2.735,0-.339.639-.849.714-.94.997-1.191,1.999-2.561,3.633-2.561.928,0,.499.259.995,0,.211.259.428-.422.568-.591.5-.604,1.139-.089,1.782-.089.427,0,1.568-.769,1.568-1.447,0-.432-.495-2.057-.495-2.144-.288-2.302-1.429-2.982-1.429-5.034,0-3.583,2.776-3.837,4.563-5.372v1.028c-.357.851-.43,1.362-.43,2.214,0,.862.783.941,1.358.941v.684c0,.42-.645.594-.857.854-.711.85-1.569,1.62-1.569,3.159,0,.848.355,1.444.777,1.526,0,.519.081.688,0,.938.792,0,1.074.348,1.714.348.145.427.289,1.025.499,1.025,1.924,0,3.28-1.96,4.917-1.71-.073.43-.424.684-.424.941,0,.17,1.211,1.192,1.211,1.192.778,0,.85-.591,1.21-.76,1.209-.69,2.14-.433,3.2-1.037.644-.337,1.778-1.616,2.639-1.616.926,0,1.925.087,2.422.343-.143.336-.286.771-.286.937.864,0,1.737-.098,2.562-.195.14-2.986,2.419-2.534,2.419-5.861,0-2.051,1.574-5.979,2.854-5.979,1.217,0,1.428,2.137,2.849,2.137.861,0,2.747-1.558-.849-5.584-1.093-1.221,2.49-2.954,4.06-2.954,1.561,0,2.345.603,3.561.603.923,0,3.06-1.197,3.913-1.88-.493-1.618-1.207-2.049-1.781-2.99-.711,1.711-3.987,1.965-5.342,1.711-1.427.514-3.064,1.279-4.276,1.279-.919,0-1.56-.171-1.56-1.116-1.498,0-3.067-1.186-3.067-2.975,0-.861.787-1.46.999-1.882-.716-.346-1.354-2.311-1.354-3.244,0-.601.14-1.117,0-1.709,2.99,0,4.563-4.695,6.412-5.977.996-.679,2.7-1.109,2.7-2.56,0-2.135-2.34-2.56-4.129-2.56-2.351,0-4.271,1.026-4.271,3.414,0,1.027.216,1.441,0,1.966,0,1.962-3.278,3.669-4.773,4.697-1.212.849-2.494,1.196-3.203,2.729-.57,1.194.142,2.813-.921,3.413v1.713c.35.334.559.93.559,1.528,1.284.26,3.207,1.797,3.207,3.417,0,1.279-2.137,3.416-2.846,3.416-1.429,0-1.992,2.474-1.992,4.268,0,1.016.636,1.356,1.071,1.448-.221,2.306-1.933,2.476-2.141,4.093h-1.922c-1.217,0-1.644,2.734-3.423,2.734-.573,0-1.564-3.582-1.564-4.002,0-.268.138-.607.138-.862-1.207-1.453-1.07-2.648-1.566-4.53-.353-1.27-1.424-1.618-1.424-3.148,0-.417.2-.904.354-1.225-.779-.506-.959-1.222-1.425-2.023-1.489,2.566-3.774,5.806-6.767,5.806-.428,0-3.209-2.053-3.209-2.39,0-.683.932-1.108,1.216-1.283v-1.276q-.999,0-1.854.421c0-.593.783-1.618,1.142-2.211-1.073-1.539-1.207-3.675-1.207-6.062,0-1.28,1.132-1.193,1.561-1.967.854-1.448,1.641-2.48,3.21-2.986,1.286-.424,1.564-2.478,4.129-2.135-.783-.255-1.069-.425-1.711-.597,3.133-.942,4.344-3.924,6.481-5.979.854-.767.715-3.413,1.282-3.413,0,0,.712-1.878.712-1.959.859-1.709,1.86-2.903,3.35-3.586,1.493-.682,3.49-3.588,3.845-5.381-1.779.431-2.489,1.543-4.206,1.543.361-.603,1.147-1.027,1.432-1.198-.354,0-1.07-.257-1.07-.257.142-.854.509-1.36,1.07-1.36.216,0,.357.25.569.25.215-.511.426-.851.641-1.105.358.505.426.938.218,1.531,1.138,0,1.43.852,2.342.852.358,0,1.146-2.044,1.29-2.13-.503-.17-.503-.254-1.141-.17.359-.682.922-1.369,1.637-1.369.502,0,.925.17,1.421-.168-.351-.432-.279-.338-.561-.685.711-.85,1.987-.768,3.059-1.017v1.017c.923-.255,1.145-2.215,2.635-2.3v1.45c.926-2.048,2.133-1.539,3.423-2.393-.569-.255-1.066-.428-1.066-1.027,0-.421,1.276-.767,1.488-1.277.431.597.858,1.277,1.496,1.277,1.076,0,3.78-2.129,3.78-1.017,0,1.188-1.21,1.54-1.498,2.729,1.423.17,1.846-1.79,3.061-2.564.283.602.283,1.024.358,1.537,1.005-1.195,1.566-1.537,2.703-2.389.073,1.111-.07,1.876.714,1.967.215-.683.503-1.279,1.074-1.279.354,0,1.92,1.017,2.488,1.366-.644,2.05-1.211,1.362-2.849,2.05.715.684,1.208.765,1.208,1.272.641.091,2.132.344,2.354.344,1.637-.253,1.709.087,1.923.087,2.348,0,10.052,4.643,13.532,5.978,12.152,4.655,4.178,10.593.223,9.349-2.965-.932-4.636-.818-7.7-.818,1.426,2.477.927,7.682,4.987,8.115v-3.415c8.237,4.227,7.263-3.928,9.26-4.7,1.995-.767,5.695,1.285,5.695-1.708,0-1.531-1.266-1.827-1.065-2.558,3.072-11.348,4.666-3.875,3.565-.427-.313.958.926,1.71,1.781,1.71,2.633,0,13.314-11.435,14.95-6.404,3.251,1.884,7.766-1.706,9.973-1.706,1.284,0,3.609,5.295,3.926-1.279.022-.592-3.123-4.562,6.633-1.531,3.528,1.095,12.998,9.386,9.038,1.956-1.715-2.045-3.209-4.608-3.209-8.534,0-3.242,5.837-9.264,8.904-8.533,6.099,1.453,2.133,2.641,2.133,5.544,0,2.645.799,15.541,3.789,15.541,2.321,0-2.08-6.349-.583-8.281,2.188-2.81-.849-5.292-1.417-7.688,1.854-1.195,3.339-2.39,3.702-5.116.998,1.532.619,9.342,4.843,2.559,4.991,0,5.553,1.19,7.118,0-.271-1.37-1.063-2.392-1.063-3.411,0-4.87,8.834-3.844,11.183-3.844,1.637,0,1.97-3.525,3.067-4.692,5.213-5.587,15.242-6.406,17.59-7.263-.8,4.018,8.409-.421,9.83-1.703,1.924-1.795,3.42-5.122,7.127-5.122,3.06,0,4.625,2.307,5.334,4.693h7.487c17.68,5.081-3.853,12.041-6.058,15.367,0,0-2.083,5.723,7.266-3.417,1.564,3.07,13.895,4.781,16.241,5.544h7.834c0-2.643,1.01-3.599,2.853-3.407,14.656,1.456,8.908,5.802,8.908,6.402,0,2.391,1.276,6.827,4.269,6.827,1.142,0,1.56-2.645,1.784-3.843,2.351.17,2.631,2.135,4.627,2.135h11.393c.434-3.332,1.211-6.825,6.769-6.825s10.259,1.277,14.604,2.98c2.066.769,2.143,2.82,3.564,4.271,1.568,1.621,5.552.425,8.192.425,4.841,0,7.263,1.539,8.189,5.981l16.377.418c1.358-.082,6.843,8.287,4.643,0-.304-1.133,1.285-1.701,3.559-1.701,8.263,0,15.74,4.179,21.369,8.109,4.063,2.811,12.401,5.114,14.959,9.214Zm-314.661,116.098l-.039-.102c.012.068.028.133.031.204,0-.033.003-.071.008-.102Zm27.287-25.687c-.272.515.592.573.941,1.259.569,1.017-.064,1.709.357,2.733.354.938,1.277.424,2.066.596.644.175.786,1.03,1.21,1.533.571.684,2.355.517,3.273.517,1.213,0,2.498-.253,3.346-.517v-1.529c-.065-.092-.704-1.029-.704-1.797,0-.764.499-1.019.499-1.967,0-1.617-.997-3.33-2.495-3.577.145-1.287.783-2.135,1.428-2.135h2.128c0-1.278-1.133-1.964-1.209-3.25-.494.097-1.851.945-2.423,1.286,0-3.329-1.922-4.446-3.271-7.259-.431-.94-1.57-.85-1.642-2.562.221.097,3.06-2.132,4.989-2.132,1.285,0,2.7.944,3.775-.079-1.429-2.561-2.062-4.783-5.915-4.783-2.346,0-3.491.599-5.338,1.453-.214.084-2.355,1.536-2.708,1.279-.364.512-1.712,3.671-1.712,4.089,0,1.282,1.571,2.563,1.571,3.42,0,2.906,2.922,8.025,4.838,9.309-1.138.679-1.138,2.721-1.989,4.094,0,0-.742-.494-1.017.021Zm102.182,74.706c-.092.262-.186.523-.301.815h.002c.112-.291.209-.553.299-.815Zm1.123-3.201c-.413,1.047-.652,1.811-.921,2.615.268-.797.508-1.568.921-2.615Zm.571-.934c0-.277-.165-1.104-.392-2.025.223.921.391,1.746.391,2.025,0,.168-.092.316-.197.442.105-.127.198-.269.198-.442Zm160.921-181.724c.78,0,6.404-.421,6.404-1.537,0-1.277-2.699-2.129-3.768-2.129-1.215,0-3.349,1.534-3.349,2.814,0,.432.284.852.712.852Zm-20.163,5.293c.357,0,.716-.427.716-.849,0-.517-.431-.685-.502-1.026h-2.355c.428,1.026,1.14,1.875,2.141,1.875Zm-67.813-27.056c.514,0,.617-.626.691-1.128l.021.017-.019-.026c.008-.046.015-.098.019-.142h-.14l-.573-.685c-.288.426-.572.767-.572,1.285,0,.508.221.679.572.679Zm-46.871,4.269c-.709,0-1.565.426-1.565,1.276,0,.766.785,1.03,1.565,1.03.576,0,1.032-.227,1.488-.519.085-.141.149-.3.149-.512,0-1.021-.644-1.276-1.638-1.276Zm1.638,1.704c-.049.033-.102.054-.149.084-.124.204-.297.361-.422.519l.571-.602Zm-28.351-19.46c0,.856.21,1.279,1.067,1.279l3.774-1.279s2.212-.431,2.487-.431c1.29.262,4.993-.082,4.993-2.13,0-1.195-2.923-3.411-3.915-3.411-.495,0-.786.68-1.29.853.584-.683.212-.683.212-1.881h-.925c-2.846,0-3.485,3.157-5.123,5.122-.43.513-1.281.513-1.281,1.878Zm-17.237-10.242c0,.768.995,2.136,1.423,2.136.851,0,3.203-.17,3.344-1.707-.495-.166-2.492-1.28-2.848-1.28-.425,0-1.919,0-1.919.851Zm9.752-.258c-2.274.855-2.987,1.793-5.338,2.73,1.065.684,2.922,3.075,3.776,3.075,2.564,0,4.843,1.535,7.978,1.535.644,0,1.42-.516,1.42-1.275,0-.598-.563-.856-1.065-1.033.427-.167,1.428-.251,1.428-1.105s-.143-1.026.567-1.703c-.93-1.112-.93-1.703-2.35-1.703h-1.429c-.855,0-1.282-.856-2.14-.856-.562,0-.779-.259-1.489,0,.57-.345,1.354-1.033,1.354-1.542,0-.428.064-.682,0-1.708.281.087.135.257.859-.082-1.148-1.024-2.285-3.33-4.282-3.33-3.42,0-4.481,4.014-7.479,5.035,1.849,1.11,3.207,1.797,5.201,1.797.429,0,2.278.165,2.987.165Zm-.138,17.328c.854,0,1.279-.509,1.426-1.705h-1.071c-.289.256-.642.596-1.07.854.076.424.359.852.716.852Zm-8.547-23.22l-.217-.676h-2.635c.425,1.112,1.784.851,2.852.676Zm32.197,17.07c.497,0,.853-.676.923-1.276-.642.347-.849-.085-2.352.253.209.43.574,1.023,1.43,1.023Zm-115.759-13.056c-.176.165-.34.266-.499.343v.343l.499-.686Zm-7.476-1.708c.643,0,.998.515,1.634.77-.353.34-.716.511-1.066.773.289.08.641.165,1.277.165-.564.166-.927.342-1.49.686.213.766.926,1.026,1.993,1.026h-.068c.209.337.423.764.779.851.644.083.787-1.454,1.427-1.878.971-.657,1.585.104,2.491-.343v-.508c.217.08.499.08.72,0,.85-.773,1.772,0,1.918-1.543-.423-.167-1.284-.852-2.139-.852-1.065,0-1.563,1.109-2.628,1.109-1.362,0-2.359-1.109-4.138-1.109-1.492,0-4.845.255-5.485,1.622.572.089.996.34,1.568.34,1.072,0,2.425-1.109,3.207-1.109Zm33.838-.424c.496,0,3.274-.683,3.773-1.113l-.998-2.725c-1.063,0-3.991,1.364-3.991,2.558,0,.85.355,1.28,1.216,1.28Zm-3.923,2.132l-.353-1.021c.636,0,1.353.34,1.78-.429,0-.34.067-.505,0-1.279-.643.167-1.85.089-2.276,0,.145,0,.567-.254.71-.683h-2.353c0,.162-.072.429,0,1.109-.854.348-1.42,1.023-1.42,2.303,0,.425,3.489.258,3.912,0Zm-7.479-.165c-.71,0-3.559.51-3.559,1.707,0,.335.358.593.709.593.64,0,.928,0,1.068-.851.43,0,.998.851,1.426.851.997,0,.927-1.279,2.351-1.279-.354-.6-1.067-1.02-1.996-1.02Zm-.355-1.71c.783,0,1.566.167,2.136-.342-1.561-.767-2.062-.941-4.062-1.28.717-.854,2.143-1.37,3.28-2.227,0-.425.353-.851.643-1.101,0-.258-.073-1.029-.216-1.029-.637,0-1.136.685-1.207,1.45-2.069,0-2.141,1.708-4.273,1.708v1.118c.707-.518.425-.176,1.205.166h-2.987c-.361.334-.503.512-.925.942.141.083,3.055,1.618,3.561,1.618.853,0,1.992-1.023,2.846-1.023Zm-92.958,9.389c.215,0,.355.25.567.339-.285,1.364.786,2.052,1.996,2.818-.218,0-.355.088-.567.178.35.85,1.132,1.354,2.275,1.354,1.495,0,1.495-1.874,2.136-2.298h.576c.285.252.917.767,1.064.767h1.85c-.78.766-2.704,1.792-3.629,2.131-.36.086-1.997.086-1.997.855,0,2.051,1.849,1.109,2.712,1.109.494,0,2.775.089,3.197.428-.856.252-1.634,0-2.346.688,0,0-1.638-.255-2.637-.086,0,2.901,3.848,4.008,5.554,5.374,1.002-1.19.853-3.585,2.065-4.696.357-.336.927-.17,1.078-.678.709-2.219,1.491-5.979,3.908-5.979,0,0,.57,1.108,1.711,1.285-.354,0-.638.08-.995.165.283.68.929,2.221,1.42,2.39-.134,1.283-.919.855-1.062,2.392.929.089,2.42,0,3.272.166-.212.434-.212.855-.07,1.542,1.783-.687,2.563-2.13,4.49-2.901-.64-1.109-2.707-.432-2.707-3.075h-2.279c.216-.343.144-.854,0-1.28-.499.086-.711.172-1.278,0,.208,0,.494,0,.71-.089-.71-1.017-4.484-3.581-5.702-3.581-.214,0-.5-.088-.708-.088.141-.682.282-2.043-.86-2.043-.569,0-.711.763-1.274,1.105,0-.595.206-1.105.206-1.703,0-.851-1.924-1.703-2.848-1.703s-1.42,0-1.42,1.273c0,1.62.417,2.39.851,3.76-1.782-.776-1.284-3.76-3.214-3.76-.633,0-1.204.684-1.204,1.449,0,.518.217.94.496,1.112-.496-.594-1.203-.594-1.921-1.277.21-.432.5-.684.854-1.196-1.637-.338-2.423-.338-3.564-.338-.707,0-2.203,1.617-2.487,2.041.495.599,1.276,2.053,1.78,2.053Zm14.103-4.611c-.145,1.964,1.283.939,2.494.939.14,0,3.061.26,3.346.26-.356.17-1.143.17-1.779.422-.143,0-.932,0-1.427.084.076.684.283,1.118.925,1.371h4.058c.502,1.02,1.216,1.536,2.495,1.536,2.063,0,5.631-2.991,7.341-4.354-.424-1.024-1.786-2.305-3.212-2.305h-2.34c-1.076,0-1.5.856-2.142.856-.149-.602,0-1.023,0-2.135h-.853c-.355.342-.931,1.966-1.782,1.966-.355,0-2.427-1.203-2.853-1.712h-1.988l.352.857h-1.204v.422c-.435.259-1.004.083-1.43-.255h-1.07c.067.856.502,1.543,1.07,2.048Zm-13.466,9.3c-.483-1.821-1.434-2.203-2.338-3.549-1.063.8.977,3.145,2.338,3.549Zm-2.206-3.668c-.057.029-.08.076-.123.112l.123.146v-.259Zm-.216,0c.028.045.058.077.084.119.007-.004.007-.006.009-.007l-.093-.112Zm-41.386,110.959c0,1.031.923,1.963,1.779,1.963.426,0,1.002-.08,1.352-.333.574-.432,1.425-1.881,2.572-1.881.703,0,1.418.082,1.85-.426.565-.685.07-1.713.07-2.395v-2.898c0-.681,1.283-.595,1.283-1.282,0-1.455-.788-3.499-2.426-3.499h-1.211c-.714,0-2.139,1.025-2.139,1.621,0,.423.144.593.43,1.105-.43.516-1.639.942-2.064.942-.211,0-.787-.17-.787.94,0,.854.646,1.366,1.355,1.79-.285,2.05-2.064,2.218-2.064,4.351Zm6.406-19.631c.791,0,1.359-1.018,1.359-1.956-.568,0-1.778.424-1.778.939,0,.34.207,1.018.419,1.018Zm2.282,2.479v.683c0,.083-.497.685-.497,1.105,0,.349.64.602,1.065.689v.763c-.21.174-.286.341-.286.601v1.369h.574c-.139-.343-.357-.598,0-1.287.217.173.643.428,1.212.428-.215.682,0,.859,0,1.625,0,.678-.71,1.113-.71,1.792s.495.679,1.137.679c.572,0,.93-.42,1.64-.42.211,0,.424.08.64.08-.142.34-.498.51-.498,1.19,0,.86.99,1.037,1.712.941v1.282c-.354.857-1.929,1.619-3.208,1.619,0,.942.574,1.37.574,2.485,0,1.273-1.996,1.362-1.996,2.643,0,.168.209.426.353.426.357,0,.286-.426.716-.426.781,0,1.067,1.023,1.99,1.023.502,0,.994-.341,1.285-.856,0,.168.144.431.144.601,0,1.188-1.43.773-2.422,1.105-.217.083-2.352,2.816-2.499,3.158v.514h.499c.286-.342.496-.679,1.002-.679h.998c0-.69.424-1.454,1.134-1.454.503,0,.788.513,1.288.513,1.066,0,2.986-.766,3.702-.766h2.847c.855,0,1.358-.517,1.994-1.286v-.591c-.425,0-.707-.093-1.428-.345.572-1.11,2.288-1.877,2.288-3.414,0-.849-.647-1.619-1.496-1.619-.575,0-.434-.091-.931.337l.355-.337c-.283.165-.355.424-.853.595v-.595c.219-.091.353-.345.353-.604,0-.673-.779-1.109-.779-1.792,0-2.042-1.853-2.648-2.989-4.009-.861-1.025-.644-3.071-1.996-3.588-.572-.169-.925.171-1.646-.084.08-.333.295-.596.58-.682,0-1.802,2.201-2.815,1.92-5.209h-4.204c-.138-.252-.208-.421-.208-.683.208-1.19,1.775-1.02,1.775-2.209,0-.173-.428-.773-.713-.773h-2.06c-.436,0-1.145.682-1.145,1.104,0,.43-.286.767-.286,1.45-.491,0-.992.34-.992,1.028,0,.167.209.43.349.511,0,.171-.14.506-.282.506-.14,0-.497-.249-.497-.758h-1.139c0,1.106.572,1.359,1.636,1.618Zm2.424,9.643c-.426.257-.501.598-.501,1.025h.787c0-.428.069-.769.069-1.025h-.355Zm290.492-82.703c.709,0,1.069-.77,1.564-1.285.36.516.647.848,1.285.848.712,0,1.137-.677,1.564-.677.578,0,.859-.6,1.427-.6.499,0,.784.856,1.288.856.851,0,1.207-.856,1.776-.856h1.923c0-.679.999-1.62,1.279-2.814-1.49-.508-5.693-2.302-6.977-2.302-.853,0-1.205,1.026-1.205,2.302-1.93,0-2.074-2.732-4.281-2.732-1.498,0-3.205,1.457-3.205,3.409,0,2.058,1.707,3.852,3.56,3.852Zm-250.736,132.588c-1.074-.261-1.501.563-2.428.563-.999,0-1.644-1.113-3.137-.266v.604c.212.424.784.336.994.424,1.143.426,2.07,1.883,3.279,2.222,0,.253.357.349.571.349s.427-.349.427-.602c0-.681-.357-.767-.357-1.371,0-.343.357-.934.357-.934l.293-.988Zm-12.048-9.511c.215-.514.426-2.39.642-3.41-.217-.092-.29-.517-.29-.945-.352.086-.635.854-1.132.854-.143,0-.362.172-.502.172.359.676.57,3.162,1.281,3.33Zm-1.068,3.504c0,.596-.353,1.017-.426,1.705,0,.686,0,1.785.715,1.785.564,0,1.863-1.201,1.863-2.393,0-1.369.18-2.135-.441-3.493-.217,0-.428-.506-.925-.506-.64,0-.712.846-1.495,1.109.072.672.709,1.097.709,1.792Zm-10.684,1.876c0-.259-.359-.772-.359-.938-.425.08-.709.333-1.137.598.074.082.644.763.926.763.211,0,.57-.171.57-.422Zm15.102-48.31c0-.862-.497-.689-.497-1.712h-1.357v.85c0,.862.787,1.116,1.638,1.116v.681c.071-.432.217-.256.217-.935Zm.851.854l-.136-.347c-.079.085-.286.257-.361.428.075.083.497.512,1.001.512,1.567,0,.998-2.991,2.208-3.418-.355-1.443-.43-2.214-1.853-2.214-.495,0-1.355,2.214-1.355,2.564,0,.509.786,1.186,1.497,1.364,0,.427-.496,1.021-1,1.111Zm15.316-11.277c-1.272.093-1.633,1.626-1.633,2.135,0,.429-.222.773,0,1.114.501-.774,1.069-1.19,1.069-2.13,0-.437.419-.77.563-1.119Zm6.415-.414c.281,0,1.208-.606,1.208-.857v-1.026c.144-.088.505-.679.571-1.111-.279-.17-.427-.342-.785-.852,0,0-.634.432-.634.852,0,.433.278.688.494,1.023-.573.088-1.002.599-1.565.682,0,.52.067,1.29.711,1.29Zm8.19,71.518c-1.212-.426-2.922-.85-4.49-.509.787.509,2.138.68,2.707.68.501,0,.856.431,1.783-.171Zm16.813-1.531c-1.211.248-3.064,1.109-4.132,1.702,0,.171.212.431.356.431,0,.256.281.428.5.428.643,0,1.992-.428,2.213-.938.065-.269-.081-.767.138-.855.425-.26.784.089.925-.768Zm38.891,61.195c.565,0,1.14-.683,1.278-1.02-.918,0-1.417.164-2.064.424.079.422.572.597.786.597Zm-10.82-175.143c-.144,0-.928,1.62-.928,1.959,0,.858.415,1.023,1.282,1.023,1.209,0,2.06-.852,2.987-1.444v-1.113c-.998-.166-1.497-1.279-2.497-1.279-.354,0-.49.855-.845.855Zm20.436-3.585c0,1.026,1.568,2.139,2.497,2.139,0,0,.925.161.925-.434,0-1.704-3.422-3.412-3.422-1.704Zm26.21-13.743c-.708-.684-.919-1.628-1.772-1.628-.643,0-1.071.944-1.071,1.71,0,.261-.207.855,0,.855.851,0,2.495-.595,2.844-.938Zm144.394-.772h2.14c-.075-1.957-1.498-3.413-3.348-3.413-1.642,0-2.569,1.206-3.425,2.558l.362-.42c1.356.597,2.992.42,4.27,1.275Zm14.103-7.514c1.146,0,3.209-.333,3.209-1.274,0-.426-.286-.857-.713-.857-.278,0-7.765-1.105-8.408-1.699l.712.676c0,2.133,3.354,3.154,5.2,3.154Zm-16.953,2.991c0-1.194-1.915-1.367-1.915,0,0,.775.06,1.109.85,1.109.501,0,1.065-.42,1.065-1.109Zm-313.352,40.883l.139-.173c0-2.382-2.639-1.787-2.639-4.26,0-.262.217-.596.43-.773-.637,0-1.069.433-1.707.433-.715,0-1.283-.089-1.283-1.113-.283.257-.283.169-.785,0-.142.341-.281.6-.281,1.278-.643-.769-1.499.255-2.422.255-.646,0-1.211-.255-2.283-.255,0,.255-.069.601,0,.85-.281-.162-.429-.425-.995-.595l-1.71.519c-.427,0-.642-.431-.929-.773-.21.343-.14.514,0,1.111-.353.088-.786.513-1.278.513-.502,0-1.145-1.11-1.068-1.711-.077-.511-.359-.764-.428-1.277h-.57c-.568,0-.713.943-1.28.943v.676c-.433-.255-.792-.42-1.425-.169.139.939,2.773,1.877,3.626,1.877,0,.259.077.511.288.685-.783.344-2.635.768-3.706.768.716.856,1.929,0,3.067.343-.144.938-.359,1.456-.359,2.56-.211,0-.422.253-.639.423,1.568,0,2.139,1.197,3.133,1.544,1.922.769,3.777,1.537,6.408,1.537,2.426,0,3.777-1.451,5.49-2.139.924-.343,2.639-1.875,3.207-3.075Zm-122.884,137.503c-.5-.25-.852-1.446-1.638-1.708l-1.067-.079c-.071-.165,0-.423,0-.601-1.637,0-3.417-.938-4.42-2.132-.137-.17-.711-1.022-1.21-1.022-2.344,0-3.847-2.132-6.978-2.132-3.208,0-4.705,1.446-5.844,3.754h.643c.709-.847,2.637-2.051,3.989-2.051.354,0,.711-.087.996.263-.214.254-.285.594.143.941h2.064c.998,0,1.496,1.27,2.497,1.27.567,0,.927-.255,1.497.089.282.168.208.766.782.766.21,1.286,1.352,1.195,2.423,1.798-.068.42-.362.764-.713.764v.517c1.351,0,2.493.592,4.13.592.855,0,2.206,0,2.706-1.028Zm-17.594-4.426v.587c-.212,0-.641.174-.641.769,0,.168.926,0,.995,0,.147-.426.073-.848,0-1.278l-.21-.077h-.144Zm9.971,9.126c0,.686.574,1.279,1.138,1.279.857,0,1.498-.336,2.354-.506-.072-.34-.212-.605-.642-.773l.145.168c-.425-.168-1.422-.685-2.276-.685-.289,0-.718.179-.718.517Zm22.44-.168c0,.853.926.941,1.779.941.429,0,.927,0,1.143-.518-.216-.514-1.924-.948-2.133-.948-.22,0-.789.084-.789.524Zm-14.673-.349c0,.517.43,1.29.854,1.368,0-.25.07-.418.07-.684.358.266.358,0,.856,0,.856,0,2.563-.258,3.205.266.355.252.212,1.098.852,1.098.782,0,.717-1.531,1.641-1.531.358,0,.286.434.712.434.499,0,.783-.351,1.283-.691h2.634c-.499-.851-1.208-1.192-1.918-1.879l.35.347c-1.278-.768-1.709-2.219-3.985-2.219-.783,0-1.213.341-2.135.341-.64,0-1.07-.596-1.716-.596-.211,0-.569.334-.569.596,0,.506.503.94.927.94,0,.671.073,1.277.496,1.791-.853.513-1.564.076-3.201.076-.071.094-.211.344-.355.344Zm25.714,21.256c0,.26.429,0,.645,0,.425,0,.713-.767.849-1.106v-.602h-.637c-.429,0-.857.855-.857,1.708Zm23.58,24.071c-.857,0-1.426.85-1.426,2.138,0,.769,1.855,2.3,2.919,2.3.856,0,1.927-1.966,1.927-2.729,0-.17-.215-.769-.499-.769-.357,0-.997.939-1.145-.17-.562,0-1.068-.43-1.491-.77,0,.077-.214,0-.284,0Zm-48.083,114.718h.639v-2.563c.071-.258.286-.432.286-.946,0-.674-.215-1.361-.855-1.361-.428,0-.854,2.561-.854,2.561v1.116c0,.344.356,1.108.784,1.193Zm-100.442-244.878v.002s0-.002,0-.002h0Zm179.723,146.978c0,6.31-2.896,7.985-4.815,11.484-.429.763-.736.974-1.163,1.743-.716,1.278-1.5,1.452-2.211,2.304-1.062,1.276-.014,4.039-.014,6.085,0,1.533-.486,2.965-.486,4.073,0,.424-.284.768-.352,1.014-.286.432-.928,1.29-.928,1.972,0,.852-.217,2.564-.358,2.898-1.065,1.966-1.427,2.825-2.49,4.529-.286.504-.219,1.536-.363,1.87-.422,1.032-1.922,2.228-3.129,2.228-1.352,0-2.427-.087-3.488.503-.428.269-.501.692-.715.946-1.708,2.048-3.494.856-4.772,3.233-.576,1.125-1.498,1.125-2.065,1.799-.926,1.113-.784,2.311-.784,3.938v4.006c-1.43.85-2.139,2.298-2.85,4.098v-.084c-.498,1.112-.428,1.702-.999,2.815-1.282,2.3-2.709,2.558-3.919,4.77-1.423,2.57-1.972,6.83-5.248,6.83-1.141,0-2.728-.932-3.23-.932-.996,0-1.922-1.026-2.991-1.026-.214,0-.567.17-.567.432,0,.769,1.068,1.185,1.281,1.442.57.685.57,1.626.856,2.645.214.944,1.351.944,1.351,1.874,0,1.04.006,1.596-.35,2.274-.645,1.202-1.144,1.74-1.857,2.602-1.21,1.444-2.707,1.028-4.416,1.716-1.139.406-3.49-.53-4.133.248-.926,1.1-.213,3.662-.713,4.864v.852c0,.424-1.139,1.021-1.635,1.021-1.499,0-1.785-1.19-3.205-1.19-.498,0-.716.594-.716,1.022,0,1.199.857,3.415,1.492,3.415.359,0,.786-.523,1.005-.596.283.338.637.431.637.851,0,.512-.564,1.109-.712,1.109-.851,0-1.139-.771-1.849-.771,0,.945.426,1.113.777,1.287-1.279,1.53-1.279,3.066-1.707,5.202-.142.942-1.424,1.028-1.924,1.11-1.139.342-2.135,1.531-2.135,2.987,0,3.328,3.202,2.141,3.202,4.793,0,2.383-1.777,2.636-2.774,3.827-.57.684-.357,1.79-.784,2.906-.498,1.197-1.637.68-2.279,1.449-.854,1.024-1.213,2.216-1.213,3.834,0,.858.64,1.884,1.07,1.964,1.283.86,1.209,4.79,2.135,5.888,1.572,1.883,3.491,2.656,5.414,3.769-.284.502-.712.25-1.139.25-1.068,0-2.848,1.618-3.489,1.618h-.787c-.21,0-.495.35-.711.35h-1.992c-1.644,0-1.067-2.31-2.212-2.736-1.066-.424-2.637-.424-2.637-1.955h-1.351c-.568,0-.714-.692-.783-1.12-1.996,0-2.566-1.185-3.491-2.296-.214-.263-.639-.69-.639-.862,0-.758,1.277-.68,1.349-1.444-.21-.09-.355-.258-.568-.43.213-.424.497-.936.497-1.443,0-2.053-1.924-1.717-1.924-3.509v-1.195c0-1.872-1.069-4.866-1.069-6.316,0-1.527,1.644-2.132,1.644-3.498,0-.674-.857-2.05-.999-2.98v-.862h.071c0-.516.285-.939.639-.939,1.285,0,.786,1.544,1.852,1.544l2.349-12.636v-1.286c-.206,0-.428-.078-.637,0-.5.26-.573.942-1.07.942-.57,0-.996-1.962-.996-2.904,0-1.618.498-2.308.709-3.84.5,0,.71-.252.71-.51,0-.517-.424-.936-.424-.936-.286,0-.357-2.386-.357-2.989,0-1.964,1-3.933,1.636-5.126.29-.588.428-1.798.786-2.391.212-.333.572-.253.642-.598.497-1.964.497-3.407.927-5.464l-.075-6.395c-.422-1.538.356-2.731.356-4.096,0-3.242,1.642-5.382,1.642-8.284v-.77c0-.599.354-2.132.498-2.99v-3.743c0-1.202.64-3.506.64-4.874,0-.853-.355-5.891-.565-6.83-.645-2.046-1.788-3.321-3.07-4.092-1.065-.596-1.847-.428-2.637-1.362-.855-1.025-1.281-1.367-2.275-1.71-1.999-.767-2.991-1.972-4.273-3.506-.57-.676-.29-1.622-.29-2.642,0-1.362-1.063-2.046-1.348-3.238-.571-2.06-1.997-3.596-2.497-5.472-.499-1.954-.924-3.061-1.566-4.685-.211-.508-.709-.353-.923-.596-.499-.606-.642-1.792-.856-2.399-.215-.51-.784-.336-1.071-.676-.782-.938-1.779-2.644-1.779-4.18,0-1.028.497-2.227.781-2.568.643-1.282,1.927-1.616,2.207-2.994-.637-.502-.564-.084-1.065-.084-.999,0-1.143-1.706-1.143-2.894,0-1.96,1.8-1.615,1.496-5.378,1.925,0,2.427-2.298,2.995-3.674.786-1.872,2.636-1.276,3.062-3.58-.352-.168-.712-.6-.712-.857l.286-.679v-.43c0-.674-.428-1.193-.428-1.882,0-1.024.361-1.357.361-2.204,0-1.804-1.284-1.552-1.284-3.082,0-.196.05-.374.115-.536-.078.063-.144.108-.171.092-.143-.172-.805-.413-.805-.667,0-.343.286-.513.429-.851-.78-.436-.994-1.542-1.777-1.542-.501,0-2.498,1.715-2.498,2.219,0,.342.428.686.576.768-.147.86-.504,1.288-1.073,1.288-1.136,0-1.851-1.628-2.42-2.304-.499-.599-1.64-.091-2.14-.091-.136,0-.353-.338-.353-.508-.997-.266-.997-1.114-1.282-1.802-.219-.506-2.638-2.296-2.705-2.296-.144.256-.144.598,0,.768h-.714c-1.073-.852-.358-2.048-.715-3.325-.213-.852-.57-1.038-.925-1.456-1.142-1.372-2.35-2.141-2.776-4.185h-.426c-.498,0-.858.429-1.357.429-1.357,0-2.066-.944-2.992-1.452-1.351-.764-2.348-.338-3.776-1.188-2.208-1.291-2.488-3.252-4.412-4.36h-.428c-.572-.422-.998-.684-1.57-.684-1.283,0-1.497,1.712-2.709,1.712-.562,0-1.14-.599-1.424-.771-.565-.344-1.065-.178-1.633-.178-.856,0-3.279-2.048-3.989-2.47-.786-.426-1.286.084-2.07-.174-.997-.334-1.213-1.356-2.205-1.958-.926-.508-1.425-.343-2.352-.849-.427-.264-.569-.344-.781-.598-.86-1.036-3.066-1.626-3.28-2.733-.638,0-1.068-.942-1.068-1.706,0-.939.714-1.46.714-2.389,0-1.118-.574-1.374-.714-1.966-.855-3.077-3.275-5.556-4.843-7.43-.713-.853-1.853-1.198-2.568-2.05-.567-.678-.067-1.532-.427-2.474-.637-1.532-2.849-1.708-2.849-3.757-.64-.17-.569-.251-.78,0-.93-1.105-1.64-2.048-2.425-2.98-.641-.774-.423-2.226-1.067-2.989-.643-.768-.502-2.651-1.068-2.986-1.207-.689-2.351-.597-3.28-1.706-.214.333-.142.849-.142,1.109,0,1.788.705,2.892,1.277,4.343.501,1.276,1.435,1.282,2.145,2.143.995,1.192,1.139,2.051,1.494,3.494.499,1.963,1.924,2.904,2.423,4.695.568,2.053.999,4.269,2.276,5.296.576-.682,1.424.767,1.424,1.446,0,.43-.283,1.285-.497,1.285-.141,0-1.09-1.47-1.164-1.822-1.276,0-1.969-2.026-2.749-2.618-.425-.345-.503-.345-.716-.768v-2.221c-.779-.942-1.352-1.879-2.066-2.729-.996-1.2-2.56-.942-3.276-2.219.358,0,2.042.309,1.418-.756-1.055-1.799-2.225-3.626-3.473-4.586-.846-.646-.795-3.028-1.222-4.052-.645-1.532-1.281-2.041-1.783-4.016v-.592h.144c-1.07-2.561-4.701-4.357-7.265-5.545-.571-.252-.356-1.203-.571-1.883-.996-2.985-2.992-4.014-2.633-7.507-1.495-.255-3.053-4.042-4.278-6.572-.352-.739.287-1.287.716-1.62-.784-1.874-.027-5.023-.716-7.173-.663-2.074,1.208-6.918,1.208-9.565,0-1.874-1.778-2.647-1.778-4.518,0-.516.787-.597,1.071-.597,1.069,0,1.704.676,2.065,1.454.355-.521.999-1.543.999-2.311,0-.844-.641-1.105-.928-1.956v-.002h0c-.284-.168-.645-.35-.784-.52-.708-.853-2.489-1.019-2.707-1.879-.566-2.216-3.061-1.101-3.415-2.811-2.423,0-2.566-2.307-3.069-4.268-.066-.262-1.922-1.622-1.922-1.622-.853-.679-.07-1.794-.713-2.565-.427-.51-.999-.51-1.565-.676-.999-.348-.712-2.646-.712-3.766,0-.502-.424-.762-.424-1.19,0-.599.996-.764.996-1.704,0-1.636-1.007-2.139-1.673-2.798.663.659,1.671,1.162,1.671,2.798,0,.937-.995,1.108-.995,1.704-.355,0-.355.087-.715.087-1.211,0-2.992-1.62-2.992-2.561v-1.282c0-1.28-.857-1.28-2.139-1.28-.994,0-1.279-.766-1.279-1.28,0-.684,1.068-.765,1.068-1.446v-1.113c-1.353.087-.998,1.113-1.926,1.113-.284,0-1.067-.77-1.067-1.282,0-1.024.5-1.366.713-1.794-.355-.423-.999-1.192-1.279-.603-1.074,0-1.57-.59-2.141-1.27-.215.68-.497,1.529-1.067,1.529-1.495,0-2.497-2.471-3.351-3.233-1.846-1.632-4.271-1.544-6.403-2.995h-3.922c-2.349-.939-5.485-1.277-6.692-4.269-.861.428-2.284.849-2.922,1.282.21.601.352.858.709,1.2-.927,1.697-5.482,4.782-7.123,4.782-.287,0-.713-.264-.713-.605,0-.509.427-.6.568-.684-.347-.598-.07-.598-.07-1.025,0-1.871,1.069-3.33,3.136-4.102,0-.248.072-.592.072-.849h-.858c-1.71,0-6.413,4.699-6.413,7.517v1.279c0,1.963-1.567,2.644-3.2,3.412-.927.427-1.212,1.279-1.781,2.132-1.073,1.62-3.492,2.474-4.632,3.846-1.072,1.274-3.635,2.219-5.698,2.558-2.564.511-3.99,4.094-6.981,3.072.85-1.626,2.209-.938,3.416-1.796.859-.594,1.501-2.298,2.282-2.814,1.21-.857,2.565,0,3.421-1.282,1.207-1.873,3.984-3.325,5.698-4.693,1.634-1.277,1.634-3.842,3.347-5.116h-1.074c-1.065.503-1.565,1.104-2.627,1.104-.862,0-1.215-.423-1.928-.685-.215.685-.427.939-.498,1.544-1.711-.775-2.209-1.282-3.425-2.393-.136.511-.064.932-.064,1.283h-.852c-.433,0-.788.68-1.075.68-.426,0-.708-1.452-.708-2.132v-1.71c0-.255.068-1.279-.57-1.279-.568,0-1.143,1.448-1.424,1.448-.929,0-4.273-3.156-4.776-3.922.357,0,.716-.26,1.07-.26-.567-1.879-2.849-2.303-2.849-3.673,0-2.555,3.844-4.688,5.34-4.688.642,0,5.486-2.31,5.486-3.417,0-.602-1.139-1.797-1.21-2.049.716-.515.573-.427,1.07-.084v-1.284c-.644-.088-.644,0-1.07,0-1.143,0-1.57,1.454-3.062,1.454-1.43,0-1.931-.855-2.997-.601h-3.773c-.069-1.276-.924-1.62-.924-2.39,0-.256.136-.595.215-.852-1.144,0-1.787-.513-2.139-1.367,1.778-1.278,4.702-2.387,6.409-3.749h1.277c0,2.733,1.144,1.961,2.641,1.961.998,0,1.144.257,1.993,0-.708-2.735-2.205-2.904-4.272-4.105-.569-.332-1.427-2.896-2.136-3.399-.852-.607-3.772-1.287-3.772-1.885,0,0,.99-2.135,1.064-2.391h3.919c2.137-3.412,5.346-6.656,9.116-8.113.996-.331,1.639.26,2.634-.17,1.14-.513,1.857-2.389,3.064-2.389.931,0,1.287.938,2.208,1.284-.353.511-.425.683-.639,1.104.713.17,1.422-.422,1.78-1.104.781.341.999.592,1.642.854h3.559c.858.68,1.141,1.106,2.137,1.702h5.488c1.423,1.709,5.837,2.134,8.044,2.134,1.286,0,2.069-.596,3.352-.596,2.066,0,2.711,1.025,4.489,1.708l.003-.089c.708.178.351.349.847,0,0,.262.88,1.027.999,1.113,2.93,2.138,6.126,2.56,7.906,2.56.641,0-2.568-2.02,2.065-2.223.672-.021.347-2.685,2.214-.591.622.693,2.488-.943,3.276-1.117,1.992-.928,2.777-1.105,4.979-1.699.213.683.716,1.184,1.285,1.184,1.495,0,.997-2.466,2.421-2.466.428,0,2.35,3.84,3.704,3.84,1.428,0,1.428-1.875,2.781-2.221.139.682.926,2.305,1.71,2.305,1.137,0,1.708-1.11,3.063-1.11,4.341,0,6.495,4.246,10.824,3.844,4.074-.379,3.718-.916,5.702,2.387-.429.518-2.609.201-2.609.965,0,.26,0,1.5,2.822,1.338,1.568-.077,2.491-.768,3.918-.768h4.555l1.072.608c1.212.675,1.496,2.806,2.92,2.806.356,0-.432-1.964-.432-2.553,0-2.904,3.637-.605,3.353-3.416-.854.675-2.73,1.349-3.871,1.349-.571,0-.906-.329-.906-.924,0-1.882,4.278-1.968,5.558-2.385.927,3.497,5.412,5.123,9.262,5.123,4.06,0,4.847-.182,6.056,0,0-1.8.499-2.738,1.782-2.738,1.065,0,2.991.595,3.202,1.021.567.937-1.267,3.742,1.068,2.984,0-4.179,4.704-2.466,3.779-5.974-.575.347-.998.516-1.502.852,0,0,.575-2.042.575-2.56,0-2.898-4.842-1.187-4.842-4.008,0-1.192.923-1.109.923-1.967s-.568-1.274-.568-2.131c0-1.281,1.136-1.023,1.991-1.281-.071-.851-.642-1.919.716-1.879,2.778.084,4.345,1.78,4.413,4.438.034,1.263,2.141,1.201,2.141,2.82,0,1.11-1.285,1.7-1.785,2.048.859,1.285,2.427.425,3.565,1.285-.358.339-.5.591-.713,1.021,1.499.854,1.641,1.877,1.641,3.329,2.203,0,.78-3.676,2.847-3.676.569,0,2.638,2.394,2.638,2.996,0,1.274-1.208,1.017-1.208,2.126,0,.94,2.114,4.913,3.716,2.466,1.031-1.579.841-2.717,1.404-4.174.357-.854,2-.854,2-1.706,0-.767-1.07-1.19-1.07-2.299,0-1.027.926-1.717,1.78-1.717.64,0,1.143.516,1.778.6,2.921,0,2.356,2.144,4.634,2.144,0,1.448.284,1.358,0,2.125-2.241,1.291-1.282,2.655-1.282,3.245,0,.519,1.637,1.372,1.637,2.14,0,1.107-3.665,4.868-4.132,4.009-.874-1.598-1.213-.086-.858.427-1.277,0-1.709.686-2.349.686-.997,0-1.567-1.709-3.136-1.709-.566,0,.505,1.541.505,1.871,0,1.029-2.072,2.818-3.209,2.818-1.353,0-2.28-1.272-3.204-1.962h-1.285c1.071,2.565,3.491,2.135,5.912,2.812v1.289c-1.138,1.024-2.065,3.154-3.77,3.154h-1.572c-.853,0,.056,2.374-1.444,1.822-5.788-2.132-3.633-.381-4.271-.642.994.686,3.721.781,3.721,2.064,0,2.053-2.138,1.202-3.346,1.709-.572.262-1.782,3.584-2.352,4.264-1.637,1.965-2.492,4.008-2.492,7.427,0,2.474.286,2.818,0,3.845.709-.171,1.069-.853,1.78-.853,1.567,0,2.704,4.774,2.704,6.824,1.074,0,1.569-1.278,2.638-1.278.997,0,2.638,1.45,3.203,1.703,3.136,1.45,6.128,2.822,8.765,5.128h4.631c1.991,1.528,1.567,3.671,1.567,6.395,0,2.479,2.509,5.137,4.27,6.829.67.648,1.284-1.025,2.14-1.025.072-.932.998-1.529,1.284-2.042-.999-1.449-.018-6.095-2.494-7.599,1.428-.345,5.699-4.182,5.699-5.717,0-5.635-2.479-6.73-4.117-10.065.926-.434,2.947-1.066,2.695-3.592-.131-1.274-2.331-3.158-1.43-3.846,2.301-1.74-.213-2.983-.213-3.841,0-1.53,1.069-2.131,2.135-2.131,1.998,0,3.277,1.45,5.348,1.45,1.065,0,1.065-.85,1.991-.85,1.993,0,2.421,2.903,4.415,3.237,0,3.161,3.849,1.453,4.139,3.848.209,1.787.705,5.974,1.918,5.974.857,0,1.073,1.872,2.353,1.872,1.779,0,4.059-3.157,4.059-4.435,0-1.195,1.14-1.961,1.638-2.391.287.347.998,1.112,1.212,1.112.211,2.303,3.237,2.757,2.493,4.692-.604,1.566,1.708,3.33,2.35,3.586-.14.851.499,1.534.499,2.387,0,1.023-.714,1.291-1.067,1.536.924.854,1.855,2.048,3.418,2.048v.262c0,2.895,3.633,3.834,5.344,3.583.071.42.679.545.607.97-.426,1.624-4.385,2.27-5.809,3.213.074.169.496.337.715.337,1.706,0,5.126-1.451,6.762-2.56v1.027c.824.443,0,1.281.573,1.281.644,1.275,1.21,2.131,1.21,4.097,0,2.726-5.74,3.101-6.768,4.693-2.112,3.275-4.059,1.882-7.621,1.882-2.706,0-4.273-.601-6.98.423-1.496.601-.786,1.369-1.78,2.555-1.567,1.877-3.062,1.117-3.987,3.418,2.132-.341,3.562-2.981,6.692-2.981,1.494,0,3.706-.346,3.706,1.275,0,1.706-2.565,2.142-2.994,2.817.642,0,1.426.252,1.785.252-.146.858-.715,1.543-.715,2.05,0,2.14,3.275,4.533,5.343,4.533.426,0,2.282.082,2.282,1.014,0,.688-4.878,2.923-5.238,3.007-1.422.512-2.744,2.807-3.314,2.807-.422,0-1.419-1.373-1.419-2.144,0-1.872,2.558-3.239,4.201-3.405-1.139,0-1.068-.089-1.068-1.278-1.073.082-1.073,1.189-1.713,1.702-.638.507-2.415.164-2.848.164-.212,0-.568.088-.711,0v.26l.031.195c.094.229.193.453.326.654-.498.94-1.281,1.455-2.285,1.455-.852,0-.923-.425-1.635,0-1.14,1.373-3.562,2.314-3.562,5.546,0,.256.074.682.288.774,0,.424.286,1.532.713,1.532.146,0,.782-.588.782-.588v.588c-.857.26-2.067.596-2.349.26-1.427,1.277-3.849.769-5.275,1.882h.713c.641,0,1.283-.434,1.786,0-.997.425-1.713.425-2.707.425-.214,0-.429-.092-.643-.092-.217.092-.425.343-.425.594,0,.437.639,1.033.639,1.033-.144.68-1.497,3.669-1.997,3.669-.211,0-.356-.517-.499-.677l-.356.414c.146.689.644.948.644,1.633,0,.508-1.427,3.496-1.642,3.496-.138,0-.286-.333-.286-.518v-.93c0-.598-.637-1.969-.787-2.825-.138.435-.066,1.11-.066,1.11,0,.594.36,2.135.36,2.995,0,.848-.432.768,0,1.273h.493v.855c0,.686-.584,1.047-.941,1.047.283.591.621.66.979.74-.141.939-.466.861-1.106.861v.683l.836.593c-.213.34-.442.848-.836.939-.839.191-1.21.856-1.776,1.028-.854.333-.788.591-1.211,1.106l.194.166c-3.337,2.252-7.605,3.873-7.605,10.077,0,2.815,1.993,3.666,1.993,6.402v.425c.218,1.017.855,1.877.855,3.422,0,1.787-.357,3.408-1.564,3.408-1.068,0-1.002-1.367-1.423-2.132-.856-1.367-1.573-1.791-2.137-3.153-1.146-2.734-.29-7.947-3.421-7.947-.639,0-.93,1.119-1.566,1.119-1.285,0-2.065-1.972-3.777-1.972-.995,0-1.208.686-1.779.686-.216,0-.497-.422-.497-.686-1.139.349-2.641.181-3.848.686.708.253.567.253.995,0-.071,1.285-.712,2.052.145,2.731-1.996,1.193-3.706-1.708-5.13-1.708-.431,0-.642.678-1.069.678-.786,0-1.211-.852-1.995-.852-2.066,0-3.061,2.139-3.918,3.162-.574.682-1.214.078-1.921.43-1.571.672-2.494,2.977-2.494,5.549,0,.248.355.591.355.845-.058-.008-.124-.019-.187-.03l.042.205c.145.512.286.855.286,1.364,0,1.541-.497,2.136-.709,3.417v4.775c-.146.682.424,1.371.568,1.712.286.767-.071,1.276.212,2.034.288.698,1.211,1.884,1.715,2.488,1.277,1.538,1.277,2.991,3.134,3.672.635.256.635,1.025,1.207,1.025,1.353,0,2.493-1.21,3.915-1.21.781,0,1.07.519,1.356.519.568,0,.926-1.015.997-1.36.283-1.028,1.496-2.136,1.496-3.422,0-2.47,2.35-3.324,4.277-3.324.638,0,1.139.089,1.424.257.283.088,1.21.169,1.637.169v.774c0,1.189-1.21,2.733-1.21,4.352,0,1.364-.426,1.96-.858,2.82v-.6h-.569v4.098c0,.848-.853,1.193-1.283,1.7v.436c0,.592.43.928.86.928,2.343,0,4.269-.514,6.764-.514,1.712,0,2.141,1.468,3.417,1.796v1.282c0,.772-.069,2.897-.496,3.754v5.208c0,1.882,1.499,2.649,2.634,3.327.78.433.78,2.048,1.995,2.048,1.852,0,2.778-1.703,4.489-1.703,1.987,0,2.868,1.71,4.007,2.733-.029.072-.225.342-.473.659.223-.196.423-.379.525-.583.569.178.358.178.853,0v-.51c0-.164.284-.423.429-.423,0-.852.715-1.109,1.137-1.447.432-.342.501-1.452.647-2.138.351-1.372.993-1.62,1.922-1.964,1.709-.679,2.848-1.024,4.635-1.708.925-.343,1.136-1.614,2.058-1.614.356,0,.644.942.644,1.022,0,.678-.43,1.027-.71,1.027-.213,1.273-.642,2.722-.642,3.488,0,.94.391,2.586,1.174,2.586.288,0,.679-1.042.679-1.385,0-1.021-.855-1.623-.855-2.649,0-1.271,1.135-1.103,1.78-1.624h1.704c-.284-1.02-1.35-.596-1.35-1.618l1.247.022c.282,1.372,1.884,1.85,2.954,2.116,0,.839.429,1.443.856,1.527h3.847c0,.773.859.94,1.428.94,1.066-.168,1.773-.168,2.205-1.196.069-.258,1.562-.258,1.779-.433.709,0,1.994.265,1.994.265-.285.26-.851.34-1.065.168v.688c.497,1.2,1.993,1.448,3.061,1.885.926.329.711,1.615.999,2.724h1.994c1.354,1.626,1.996,1.362,2.848,3.489.144.343.712.521,1.07.521.498,2.396,3.487,2.13,5.412,2.566h1.854c.493.249,1.636.938,2.352.938v.166h.422c1.144,0,2.635,2.812,3.847,3.166,0,1.016.928,3.746,1.286,4.686.357.853,1.279.853,1.279,1.706-1.137,1.708-3.203,2.564-3.203,5.126,0,.858.638.764.996.936.709.433,1.07,1.114,1.211,1.969h1.711c0,.258.142.934.355.934.284,0,.568-.601.787-1.016.709-1.376,1.564-3.162,2.709-3.162,1.277,0,3.843,1.62,4.77,2.304.567.426,1.211.25,1.35.94.214.768.139,1.365.139,2.123h.503c.64-.334.928-.934,1.569-.934,1.495,0,1.777,1.376,3.203,1.376l2.705-.442c1.352.352,2.567.948,3.349,1.378.641,1.272,2.853,3.664,3.989,4.097.998.334,1.64-.173,2.636.161,1.426.526,1.779,2.315,1.779,4.106Zm-92.032-129.314c0,.29.259.457.375.715-.08-.208-.162-.4-.231-.542.498,0,.498-.095.849-.095,2.068,0,6.613.824,6.631-2.382.017-.012.076-.07.148-.148-.074.078-.132.137-.148.148-1.781,0-5.131,1.023-6.695,1.616-.215.096-.927.259-.927.688Zm-.261,2.893c.43-.254.822-.495,1.118-.669,0,0-.002-.003-.002-.004-.296.172-.68.413-1.116.673Zm-1.731-.33c-1.001,0-2.073-.085-2.707.676-.29.346-.357.862-.997.862-.43,0-.855-.597-1.072-1.032,0,.85.288,2.142.997,2.142,1.46,0,3.836-1.322,5.482-2.3-.355.251-.777-.348-1.704-.348Zm-17.68-17.467c-.638-.005-3.692,2.444-5.33,4.922h1.068c.499-.26.783-.519,1.279-.601.289.769.5.849,1.07.849,1.212,0,1.284-1.103,1.926-1.103.783,0,2.065-1.622,3.132-1.876,0,1.191-.496,1.442-.785,2.131h1.421c.076.601.719,1.024,1.217,1.024.924,0,1.21-.85,1.993-.85,1.708,0,2.563,1.107,4.058,1.107v1.024c-1.068.429-2.634,0-3.204,0-1.564,0-4.412,2.39-4.56,4.095.717-.5,1-1.198,1.713-1.198-1.217,1.883-1.78,6.237-1.78,8.449,0,.942.85,1.716,1.632,1.716,1.072,0,1.43-2.561,1.43-3.672v-2.732c0-1.072-.02-3.655.771-3.719,2.596-.186,1.401-2.256,2.574-2.256.572,0,3.207,1.533,3.207,2.561,0,1.191-.569,1.96-.784,3.155.854,0,.713-.338,1.425-.596.285,1.365.288,1.961.997,2.645h0c1-.001,1.637-4.097,1.924-5.465.283.347,1.138,1.452,1.993,1.452.425,0,.715-.424.715-1.028,0-1.275-1.069-2.128-1.923-2.81h-1.854c-1.78-1.367-3.99-.941-5.626-2.903-.568-.683-.143-1.54-.568-2.564-.144-.339-3.14-3.241-3.562-3.241h-.569c0,.167.068.852-.076,1.194-.286-.343-.851-1.884-1.704-1.884-.712,0-.431,1.372-1.141,1.801-.787.425-1.334.379-2.079.372Zm-95.252-38.131c-.467.648-.654,1.657-1.402,1.657-.6,0-1.209-.403-1.766-.948.557.545,1.166.951,1.764.951.749,0,.938-1.013,1.404-1.66Zm5.441,3.391c-1.059-1.527-2.03-2.533-3.497-4.296h0c1.467,1.765,2.438,2.768,3.497,4.296Zm3.911,7.056c.093.109.203.184.325.245-.122-.062-.231-.136-.321-.245-.786-.94-1.14-2.222-1.426-3.247-.189-.688-.652-.9-.855-1.179.2.278.664.491.853,1.179.287,1.025.642,2.308,1.424,3.247Zm.335.248c.361.172.817.194,1.154.48-.337-.285-.792-.308-1.154-.48Zm108.37,92.954c0,.686,0,1.621.713,1.621.143,0,.358-.254.358-.424,0-.594-.216-1.105-.782-1.197-.078,0-.289-.08-.289,0Zm-.072-4.865c-.35,0-.851.342-.992.688.422,0,1.139.083,1.853,0-.146-.261-.361-.688-.861-.688Zm2.211,1.032c-.066.248.138.767.355.675l-.355-.675Zm8.619,13.564v-.766c-.286.514-.857.936-1.423.766v.513c0,.085.211,0,.284,0,.356,0,.854-.167,1.14-.513Zm-120.458-96.364c.363,0,.57-.252.57-.857,0-1.875-1.925-2.13-1.711-4.431-1.495-.345-1.85-.345-1.85,1.708.856-.689.427-.257,1.564,0-.211.423,0,1.106,0,1.707,0,.081.787,1.873,1.426,1.873Zm-5.127-8.534c-.142.086-.714.254-.714,0-.355-1.372,0-1.372,0-3.588-.999.69-.355,0-1.639,0-.283,0-.851.171-.851.859,0,1.277.851,2.387,1.923,2.559,0,1.364.28,2.387,1.14,3.415.714-.855,0-2.051.142-3.246Zm65.892-49.078c1.28,0,1.565.337,2.853-.68-1.356-1.284-7.341-3.166-7.341-5.889,0-2.224-1.921-4.19-1.921-7.259,0-.771,1.562-1.536,1.562-2.818s-1.207-1.877-2.493-1.877c-1.136,0-2.133.599-2.133,1.455,0,.261,0,.595.072.847-1.143.685-.715,0-1.998,0-.571,0-1.282.426-1.282,1.116,0,.768,1.07,4.774,1.64,5.889-.357.333-.357.68-.929.68-1.278,0-.781-2.131-1.207-3.153-.356-.94-1.355-2.055-2.357-2.395h-1.561c.144.517.286.769.356,1.536-.788.258-1.352.424-2.136.603-.503-1.538-1.211-2.564-3.207-2.564-1.14,0-1.64,1.115-2.208,1.533-.286-.508-.212-2.981-1.213-2.981-2.564,0-9.049,3.065-9.049,7.251,0,.427,1.357,1.706,2.14,1.706.927,0,1.353-.255,2.495.087-.787.596-2.85-.087-2.85,1.793,0,2.391,3.917,1.534,5.487,1.534h3.77c.714,0,1.284.519,1.783.857-.856.081-1.282.17-2.349.17-2.991,0-5.204.426-6.909,1.96.498,1.023,1.779,2.992,3.346,2.992.999,0,3.135-.265,3.916.422.854.768.072,2.136,1.285,2.136h6.404c1.501-1.279,3.282-.601,5.133-1.71,1.069-.593.571-1.531,1.85-1.531,2.068,0,3.066,2.559,5.844,2.559,1.781,0,3.421.082,4.06-1.536-.285-.256-.64-.518-.713-1.191-.286,0-1.07,0-1.07-.685,0-.6.361-.855.929-.855Zm-44.876-8.279c.212.427.711,1.711,1.068,1.711.36,0,.567.848,1.066.848.568,0,5.484-2.132,5.484-2.815,0-1.969,3.136-5.549,5.346-6.402.708-.254,4.483-.939,4.483-1.869,0-1.972-3.49-3.68-4.984-3.68-.922,0-1.778,1.026-2.425.261-1.566-.177-2.275-1.195-3.84-1.712-1.283-.425-1.994.602-2.857.602-1.706,0-2.488-.859-4.269,0,.072.933,1.064,2.305,1.064,2.98,0,3.08-3.559,5.466-3.559,8.367,0,1.026,2.851.772,3.423,1.709Zm16.88-23.304c1.283-.256,1.714,0,2.349,0,.282,0,1.145.26,1.213,1.286h1.636c2.141,0,3.635,3.24,6.766,3.24.928,0,1.284-.34,1.57-1.114-.782,0-1.141-.084-1.423-.249.07-.169.498-.342.71-.342v-1.112c-.499-.092-1.778-.513-1.778-1.277,0-1.371,1.848-2.052,2.561-2.736.426.341.857.602,1.354.602-.071.68,0,.936,0,1.108,0,1.277,1.352,3.155,2.71,3.155.635,0,.996-1.024,1.92-1.024.855,0,1.638,1.11,1.638,2.136,0,1.191-1.708,3.753-2.348,4.005-.43.18-4.633-.421-4.633-.168,0,.168-4.559,1.373-4.769,1.456-1.428.68-2.852,1.282-4.632,1.282-.854,0-1.996-.777-1.996-1.282,0-1.288,1.071-1.024,1.996-1.024-.424-.685-1.067-1.113-1.208-1.968-.432.087-.788.602-.788,1.116-1.208.167-2.133.588-2.993.588-.923,0-1.99-.588-2.493-.588-.574,0-1.066-.599-1.066-1.287,0-.854.282-.675,0-1.276.712-.173,1.066-.854,1.778-.854.298,0,.546.046.789.102-.271-.122-.536-.243-.789-.362v-1.277c.569-.081,1.211,0,1.211,0,.057,0,.207.026.39.059-.258-.095-.509-.221-.744-.402.281-.505.851-.94,1.421-.94.074,0,.12.012.182.017-.314-.176-.537-.446-.537-.868Zm1.393,2.535c.447.091.858.171,1.097.199-.38-.096-.743-.15-1.097-.199Zm-8.657,1.566c0,.592.641,1.024,1.208,1.024.924,0,1.997-1.797,2.138-2.99-.708-.081-3.346.6-3.346,1.967Zm9.972-5.124h1.567v-1.11h-2.491c0,.772.564,1.11.924,1.11Zm-15.176,3.157c.715,0,1.139.513,2.001,0,.137.344.635,1.28,1.205,1.28.783,0,1.35-.936,1.496-1.878,1.209.172,2.279-1.189,2.427-2.646.636.425.566,2.396,1.776,2.396l3.063-2.736c0-.683-.495-.855-.567-1.705.495-.173.923-.765.923-1.369,0-1.53-4.273-.167-4.273-.167-.638-.087-.715-.172-1.283-.172-1.994,0-2.351,2.217-3.702,3.161-1.21.846-2.277,1.018-3.419,1.702-.285.178-1.568,1.368-1.568,1.537,0,.254.572.686.71,1.279.573-.082.782-.682,1.211-.682Zm20.302-11.269h3.066c.854,0,1.35-.511,1.919-.85-.283-1.106-1.494-2.136-2.99-2.136-.924,0-5.196,1.874-5.196,2.985.566-.086.851-.681,1.421-.681.716,0,.927.681,1.781.681Zm2.851.43c-1.493,0-5.84.169-5.84,2.139,0,.763,1.211,2.294,2.279,2.294,1.565,0,3.918-.766,3.777-2.558h-1.996c1.068,0,2.279-.258,3.059-1.024-.21-.339-.495-.851-1.279-.851Zm-7.836,2.726c.5,0,.714-.507.999-1.02-.429-.254-2.424-2.392-2.424-.254,0,.423.787,1.274,1.424,1.274Zm35.406,24.588c0-.854.214-.092.214-1.277,0-.941-2.07-.174-2.64-.087.501-.768,2.283-1.458,2.283-3.158,0-.429-.503-.86-.711-.86h-2.85c-1.57,0-3.136-.339-4.278,1.027-.071.257-.498.426-.498.686,0,1.107,1.355.939,2.281,1.107v2.307h-1.071c-1.21,0-2.277-1.021-3.203-1.021v1.449c2.065,2.471,4.274,2.134,6.27,4.521.428.513.569,1.451,1.565,1.451.637,0,.78-1.025,1.422-1.28,2.282-1.028,2.51.221,2.852-4.439-.43-.172-1.355-.342-1.638-.425Zm-14.036-19.467h-.853c0,.426.104.745.246,1.014l-.104-.157v1.537c.568.517,1.071,1.11,1.78.856l.212.845h1.072c0,.517.354,1.031.855,1.031,1.426,0,3.916-.857,5.2-.857.284,0,.637.09.854.261-.429.514-1.783.514-1.783,1.276-.065.256-.065.604,0,.854-.282.171-.496.518-.496.852,0,.77,1.85.435,2.278.435.214,0,1.781,0,2.848-.435-.284-2.386.573-3.417.573-5.369,0-1.286-.146-2.143-1.425-2.143-.57,0-.854.686-1.424.686-1.353,0-2.068-.852-3.203-.852-.501,0-.79-.178-1.288.083.288,1.199,1.288,1.199,2.494,1.199v1.875c-1.778,0-2.349-1.875-3.916-1.875v1.026c.282.423.855,1.023,1.422,1.448-2.209.768-3.273-3.591-5.342-3.591Zm11.042,35.004c-.284.083-1.563-.261-1.563.421,0,.259,5.263,2.558,6.193,2.558.784,0,1.07-.851,1.784-1.361-.426-1.196-3.349-4.36-4.415-4.36-1.43,0-1.142,2.392-1.998,2.743Zm9.615-22.79c-1.49,0-1.924,1.189-1.924,1.276,0,.257-.143.767,0,.849h-1.632v1.455c.492,1.708,0,2.729,1.135,4.1-.066.422-.066,1.448-.066,2.558h1.416c.86-1.019,1.431-1.28,1.646-2.812h-.93c.428-1.708.428-.598,1.996-.598,2.139,0,3.134-1.875,4.059-3.41,0,0,1.285-1.115,1.285-1.292,0-.42-.075-.678,0-1.102-2.57,0-4.565-1.023-6.984-1.023Zm-22.434-14.771c.495,0,.923-.424.992-1.021-1.492-.602-1.634-2.394-3.49-2.394,0,1.11,1.712,3.415,2.498,3.415Zm-.36,10.414c.57-.08.717.09,1.426.09.428,0,1.071-.09,1.071-1.116,0-.599-.361-.846-.503-1.28-.997.435-1.712.857-1.995,2.307Zm0-20.401c-.07.343-.282.684-.498.853.569.513.927,0,2.493,0-.14.258-.14.767,0,1.027-.854.341-1.496.254-2.134,1.027.638.765.928.679,1.921.679,1.067,0,1.997-.431,2.354.344,1.281-.174,2.062.337,3.343.337,1.641,0,1.495,2.136,3.205,2.136.569,0,1.288-.253,1.288-1.111,0-.936-1.428-1.619-1.999-2.303.142-.256.426-.601.571-.854-.355-.426-1.142-1.964-2.14-1.964-.428,0-.638.683-1.064.683-.785,0-.712-1.964-2.14-1.964-.568,0-.85.688-1.422.688-.859,0-1.213-1.538-2.71-1.538-.855,0-1.423.518-2.274.684,0,1.021.21,1.276,1.206,1.276Zm5.914,5.292c-.283,0-1.923,1.28-.644,1.28,1.067,0,1.924,0,2.283-.597-.641-.254-.857-.684-1.639-.684Zm26.713,16.476h.851c-.142,1.448,2.068,1.703,3.565,1.278h5.698c.641-.516.784-.934,1.78-1.106.142.591.495,1.276,1.424,1.276,2.494,0,5.7,0,5.914-2.991,0,0-.427.096-.927-.078.079-.341.21-.586.356-.792.206-.024.456-.082.57-.151-1.002-2.215-2.852-2.388-5.698-2.388-3.706,0-4.99,2.136-8.906,2.136-1.78,0-3.2-.513-4.916-1.02-.282.25-1.14.769-1.14-.429,0-.257.358-.257.5-.432-.998-.936-2.779.341-3.207-1.961h2.85c-.641-1.11-3.917-.6-3.349-2.565h-1.28c-.288.517-.712.684-1.428.684-2.419,0-2.989-2.985-6.199-2.985-.848,0-2.133,0-2.133,1.279,0,.77,4.35,2.988,5.127,2.988.57,0,.998-.346,1.425-.85,1.212,1.449,1.565,2.816,2.852,4.35-.284.171-.857.766-.857,1.366,0,1.702,3.561,3.84,5.131,3.84.641,0,1.707-1.019,1.995-1.448Zm-9.118-1.712c0-1.105-1.71-2.811-2.993-2.811-1.637,0-1.351,1.958-2.135,1.958-.14,0-.929.433-.929,1.287,0,0,4.129,2.299,4.632,2.299.997,0,1.424-1.279,1.424-2.733Zm.212-12.374v-1.11c-.711.174-.143,0-.928,0-1.352,0-3.914.174-4.626,1.026,0,0,4.127.936,4.483.936.646,0,1.071-.422,1.071-.852Zm-7.48-2.984c-.211.088-.713.425-.713.851,0,1.024,2.495.683,4.988,0-.211-.939,0-1.537,0-2.132,0-1.797-2.493.089-2.493-1.966-.782,0-2.279-.598-2.495-1.28-.709.089-1.633.433-1.633,1.28,0,1.705,1.492,2.221,2.346,3.247Zm-3.562-8.534h1.214v-1.704c-.5,0-1.572-.091-2.499,0,0,1.021.858,1.189,1.285,1.704Zm9.043-1.702c-.635,0-1.778-.519-2.131-.854h-1.067c.207,2.469,1.711,2.722,4.126,2.722-.425.685-.929.771-1.638,1.112,0,.51.075.854.571.854.57,0,.781-.344,1.497-.68.215.503.285,1.108.995,1.108.855,0,1.068-.684,2.135-.684,1.074,0,1.853.342,2.922.684-.997.25-5.412.084-5.412,1.702,0,1.283,1.994,2.139,3.207,2.139-.215.26-.432.513-.928.592.141,1.2,1.711,1.539,2.848,1.539,1.07,0,1.71-.43,1.71-1.962.642.512,1.922,1.623,2.566,1.532v-1.109h1.28c-.212-.682-.5-.846-.927-1.703.361-.427.507-.856.859-1.28.214.941.214,1.708,1.139,1.708s1.926-2.562,3.346-2.729c.571-.086,1.356.081,1.639-.428.215-.343.074-.684.074-1.282-.93-.089-2.78-1.112-3.492-1.112-.145,0-1.214.771-1.214,0,0-.513.501-.684.501-1.277,0-.59-.855-.684-.855-1.278,0-1.021.07-1.457-.925-1.457h-.711l.354.602v1.107h-.857c-.641-.767-.211-1.872-1.28-2.391-1.07-.507-1.781.342-2.85-.169-1.142-.513-.855-2.985-2.277-3.668-1.286-.602-2.707-.772-4.491-.938.074,1.192,1.284,1.276,2.137,1.788h-1.209c-1.285-.34-1.852.171-2.707.772,0,.084.645,1.362.926,1.362.428,0,1.282-.511,1.995,0-.213.263-.355.853-.785.853-.567,0-.926-.59-1.924-.59-.634,0-1.632-.092-1.632.853,0,.937,2.204,1.531,3.128,1.876,0,0-.353.689-.643.689Zm26.004,73.398c-.357-.345-.141-.939-.497-1.536-1.283-2.055-3.565-1.193-5.058-3.417-.216.162-.427.343-.638.689-.361-.853-.713-1.11-1.072-2.395-1.995.253-2.352,3.668-2.352,5.122v1.278c0,.507-.353.773-.707,1.113-.146.423-.998.254-1.071,1.703.567-.08,1.923-.347,3.062,0-.143.855-.358,1.707.496,1.707.356,0,.356-.253.572-.682.999.507,3.352-1.277,3.352-3.166.422.174,2.704,2.141,2.704,2.141h1.924c.927,0,1.566-.347,2.352-.933-.639-1.034-1.924-.599-3.065-1.626Zm13.536-14.08c0-2.818-4.414-3.416-4.414,0,0,1.015.708,1.875,1.776,1.875.853,0,2.638-.77,2.638-1.875Zm-16.027,18.946c-.071.502-1.001,1.275-1.572,2.13v1.106c1.143-.169,2.921-1.875,3.565-2.898-.861-.427-.57-.427-1.994-.339Zm7.694-41.141c1.209,0,1.847-.853,2.632-.853s1.211.595,2.138.595c.641,0,1.071-.595,1.281-1.367-1.281-.771-2.915-2.642-4.842-2.642-1.495,0-1.994-.685-3.559-.685-.574,0-1.216.427-1.216,1.283,0,.938.787,1.364,1.428,1.792-.502,1.444.712,1.877,2.138,1.877Zm-1.643,46.086c.711,0,.858-1.194,1.286-1.878-.714-1.02-2.354-.938-2.354.599,0,0,.928,1.279,1.068,1.279Zm13.039-24.497c-.215-.332-.784-1.364-1.424-1.364-.147,0-.928.599-.928.86,0,.504.427.678.928.678.708,0,.499.089,1.424-.174Zm-9.975-6.314c-.852,0-2.491,1.96-1.641,1.96.86,0,1.431-.939,1.641-1.96Zm15.314-7.85c.213-1.455-1.566-1.712-2.342-1.712h-1.787c-2.354,0-2.849-2.905-4.418-4.261-.923-.775-3.988-1.283-5.342-1.283-1.283,0-1.635,2.131-2.849,2.131-.642,0-.857-.848-1.64-.848-.707,0-.998.848-1.423.848-.353,0,0-1.364,0-1.703,0-1.882-.996-4.865-2.846-4.865-2.851,0-7.628,1.023-7.628,4.267,0,.847.714,1.453.714,2.301,0,.688-.995,1.711-1.42,1.711-.858,0-.713-.769-.713-1.449,0,0-.145-.938,0-1.542-.358,0-.572-.342-.572-.851,0-2.475,2.348-2.648,3.062-4.438-.073,0-2.35-.854-2.35-.854-2.418,0-4.272,1.453-5.701,3.153-.286.343.071,1.884-.498,2.394-1.067.935-1.424,1.452-1.424,3.836,0,.771,1.07,2.309,1.07,2.309,0,0,3.275.343,3.918.855v1.107c-1.209-.169-2.282-.688-3.206-.255.141,1.193,1.208,1.359,1.57,2.557h3.415c.428.685,1.567,1.713,2.136,1.713,3.209,0,8.623-.26,10.832,0-.071.59-.357,1.962.567,1.962,1.282,0,2.426-3.245,3.352-3.245.783,0,4.629,3.927,5.269,4.698-.427.083-1.711.253-1.711,1.106,0,.166.286,1.021.569,1.021.928,0,1.354-1.021,2.279-1.021,1.497,0,6.057,4.186,6.057,6.403,0,1.19-1.498,3.069-2.136,3.836-.5.598-1.779-.171-1.779,1.285,0,.682.922,1.534,1.28,1.786-.855.686-2.565,1.194-3.203,1.194h-3.066c-.994,0-2.848,1.457-2.848,2.311,0,1.189,2.279,2.392,3.061,2.392.858,0,1.283-1.285,2.142-1.285.64,0,.493.598,1.208.598.635,0,1.068-.684,1.426-1.281,2.062,1.448,3.206,3.076,5.555,4.274-1.21,2.73,3.063,2.647,4.775,3.835,1.779,1.282,3.133.772,5.198,1.961.214.089.355,1.029.713,1.029.283,0,.713-.43.713-1.029,0-2.382-3.989-4.177-5.203-5.97h1.07c.781,1.198,5.344,3.235,6.626,3.415.279-.946,1.066-2.558,1.066-3.415,0-.941-1.281-1.363-1.281-1.963q-.075-.337,0-1.705h-1.212c-.143-1.453-.641-.432-1.992-1.025-.573-.256-1.429-2.14-1.569-3.247h-.928v-1.279c.287.259.642.172,1.067,0v-1.026c-.64.17-.78.259-1.419-.169.068,0,.994-.936,1.419-.936,3.421,0,3.565,5.804,7.123,5.804.783,0,.926-1.448.926-2.393,1.353,0,1.571-.764,1.571-1.02,0-.429.069-.171,0-1.115.923,0,2.136-.339,2.136-1.446,0-1.365-.571-1.965-1.926-1.965-.351,0-.925,0-1.282-.422-.568-1.628-.921-.429-2.491-.429-1.069,0-1.424-1.453-1.568-2.989-1.496-.172-3.415-1.02-3.561-2.989-.928,0-1.353-.258-1.995-.68.642-1.281,1.211-1.281,2.35-1.964-.209-.511-.708-.768-1.069-.768-.639,0-.928,0-2.136-.17.571-1.03,1.497-.942,2.497-1.193-.43-1.197-1-2.052-1.994-2.052h-1.215v-1.452c-1.99-.26-3.064-1.625-4.988-2.387Zm-15.172,32.178c.713.681.927.681,1.643,0-.857-.513-.929-1.113-1.643,0Zm-11.894-10.416c-.074.598.497,1.276,1.423,1.363-.496-.766-.496-1.871-1.423-1.363Zm-13.037-75.712h2.136c-.854.351-1.279.601-1.991,1.452.137.091.926.68,1.279.68,1.352,0,1.427-1.531,2.853-1.531.566,0,.78,0,1.424.177-1.853.675-3.636.427-4.419,2.642.573-.085,1.996,0,3.349,0-.926.089-1.421.513-1.924.939.503.769,2.493,1.79,3.921,1.79.639,0,1.065-.424,1.563-.852h.927c-.427,1.107,1.425,1.706,2.852,1.706.569,0,.85-.854,1.42-.854.71,0,1.141.688,2.494.688,2.278,0,3.917-.604,5.344-1.963h1.067c-.854,1.275-2.067,1.7-3.418,2.385h-3.56c-.144.257-.503.513-.503.855,0,.512,2.279,2.219,2.64,2.643-1.998.26-2.64-2.209-4.415-2.896-1.425-.519-2.995-.169-3.779-.169-.354,0-.71-.176-1.068,0,.145.68.282,1.023,1.068,1.023-.71,0-1.777-.167-1.777.686,0,1.53,4.841,1.53,4.841,4.264,0,2.391-2.139,1.621-3.918,2.303-1.07.427-1.566,1.365-2.138,2.817v1.023h1.068q.29-.337.716-.595h1.067c0,2.043,2.208,3.075,3.205,4.264h-1.279c-1.354-.936-2.139-2.386-4.416-2.386-.715,0-1.785-.342-1.785.856,0,1.53,1.495,1.789,2.354,2.559-1.496,1.278-5.202,0-5.202,3.416,0,.251.212.682.712.682.356,0,.64-.431.858-.854,2.491.941,4.415,1.703,6.761,1.703,1.071,0,1.5-.85,2.136-.85h5.346c1.426,0,.714,1.283,2.35,1.283s5.698-1.543,5.698-2.991c0-.765-.852-.685-1.066-.685h-1.779c0-2.904,2.989-1.281,2.989-4.011,0-.512-.354-.685-.501-1.282h3.564c1.208-1.021,1.709-3.071,3.208-3.917-.43-1.205-1.212-1.544-2.066-2.056,1.351.168,2.209.342,2.066-1.535h-2c1.144-1.115,2.921-1.286,4.493-1.881,1.138-.423,2.71.595,3.703-.258,2.137-1.869,3.776-5.284,6.622-6.395,2.565-1.03,6.555-2.222,8.197-4.186-1.787-.087-4.633.594-5.345-.263,3.773-2.205,7.268-.681,10.114-3.241.5-.425,1.779-.167,1.779-1.273,0-1.537-3.777-1.111-4.625-2.142-.43-.507-.43-1.192-1.214-1.441-.497-.173-.782-.345-1.283-.685l-5.698,1.961c.571-.169.784-.342,1.283-.939-1.422-1.709-7.554-1.453-9.264-1.453h-1.991c-.646,0-1.07-.598-2.137-.598-.998,0-1.283,1.455-2.284,1.455-1.066,0-1.418-1.024-2.705-1.024-.359,0-.712.254-.855.598h-8.191c-.713,0-1.282.256-1.636,1.105-.931.938-.215.169-1.426.169-2.064,0-2.923,1.797-3.559,3.842-.642-.256-3.425-1.873-4.776-1.873-1.495,0-.569,1.873-2.846,1.873,0,.346-.29.689-.572.689h-1.563c-2.072,0-6.701,1.017-7.125,3.153h1.566c.213-.176.636-.426,1.066-.601Zm139.122,57.873c-1.495-.595-7.837-.251-7.837-2.815.355-.086,1.568-.346,1.568-1.107,0-.68-.711-.94-.711-2.138.352.258.711,0,1.064,0,2.921,0,2.213,4.265,5.56,4.265.779,0,1.925-.081,1.925-1.02,0-4.872-4.563-6.318-7.127-9.385v-1.285c.146,0,.357.09.926,0,.43,1.619,2.635,3.846,3.924,3.846.85,0,1.064-1.37,1.064-2.395,0-2.31-3.202-1.538-3.919-3.84h1.069c.57.94,1.353,1.368,2.138,1.967.57-1.796,3.419-.686,3.915-3.245-.355-.172-.712-.689-.712-1.284,1.354-.172,2.779-.935,3.205-2.299-.855-.35-2.849-.263-2.849-1.708,0-1.116,1.142-1.116,2.282-1.116-.36-.503,0-1.192,0-1.872,0-1.28-1.065-1.792-1.065-3.67-1,0-2.281,0-2.281-1.454,0-.598.641-1.282,1.42-1.282,1.285,0,4.992.768,4.992-1.278s-2.781-1.622-3.065-2.983c.427,0,.926-.264,1.278-.521-.712-.677-1.709-1.617-2.848-1.617-.781,0-1.35.429-2.133,0,.424-.854.355-2.899,1.207-3.671,1.355-1.191,2.849-1.792,2.849-3.585,0-.339.073-.339,0-1.277,1.351-.432,3.204-.772,3.204-2.138,0-.853.5.086,0-1.106,1.285-.343,3.205-.343,3.205-2.732-.568.509-.639.509-1.491,0,3.205,0,4.7-2.477,7.051-3.411.427-.177,1.782-.938,1.782-1.972,0-1.108-3.348-2.985-4.274-2.985-.712,0-1.212.083-1.425,1.107h-3.42c-1.145.685-1.352,1.113-2.639,1.708-.279.088-1.633-.251-1.633-.251h-4.775c-1.143,1.027-4.746,6.655-6.593,7.25.212-.849,4.812-6.655,4.812-7.42,0-1.287-.499-2.559-1.78-2.559-2.354,0-6.6,4.865-8.376,4.865-.573,0,2.534-3.594,2.675-4.276-1.274-.589-13.222,1.11-14.432,0l15.642-1.018c1.926-.858,6.769-.428,7.128-3.417-1.785-.511-4.278.084-6.202-.85-3.347-1.71-6.479-4.956-10.681-4.956h-10.332c-3.631,0-6.41,2.393-9.829,2.393-1.072,0-1.782-.173-2.85,0v1.021h-1.426c-1.571-.684-2.704-.593-4.414-.593-2.354,0-4.135.593-6.059,1.701.364.604.931.689,1.427,1.283-.644.167-2.848-.251-2.848,1.02,0,1.623,2.921,2.739,4.058,3.415h-3.207c-1.775-1.018-3.489-2.981-6.411-2.981-.709,0-1.774.084-1.774,1.105,0,.687.351,1.2.569,1.876h-1.068c-1.428-.676-2.64-.508-3.423-2.126l-.711.853c0,.598.355,1.106.355,1.709-1.354,0-1.712-2.562-2.993-2.562-1.927,0-3.344,1.36-5.341,1.959-2.71,0-3.774.85-6.625,1.277-2.28.343-.357,4.276-2.851,4.276-.714,0-1.281-.176-1.851-.688-1.425,1.704-4.631,3.754-7.053,4.691-.356.084-1.424.514-1.424,1.286,0,1.619,4.058,1.539,5.345,1.709,0,2.13-.785,3.665-1.924,4.521-1.566,1.106-4.131-.178-6.057.593-1.352.514-2.138,1.453-3.423,1.965-1.561.602-4.059-.343-4.059,2.303,0,1.371,6.837,3.671,7.122,3.671h2.493c.362,0,.571-.425.718-.847h2.848c-.213.939-.213,1.277-.923,1.874h-4.063c-.356.596-.571.685-1.28.685h-1.783c-.569,0-1.999.512-2.142,1.702,1.356.602.925,0,2.496,0,.855,0,1.711.943,2.85,1.448-.282.768-.78.856-1.42,1.37.849,1.277,3.131,2.048,4.627,2.048.572,0,.497.26.925-.252-.21-.085-.495-.429-.713-.692.36-.167.644-.331,1.426-.331.851,0,1.498.682,2.137.682.923,0,1.353-1.116,2.279-1.116h2.135c7.979,0,12.962,7.429,14.96,14.774v1.274c.644.087,1.781.174,1.781,1.454,0,1.957-1.564,1.788-1.564,3.668,0,1.281.637,1.45,1.92,1.45.928,0,1.143-1.45,1.782-1.45,2.357,0,2.991,4.008,5.196,4.861-.066.523,0,1.288-.705,1.288-1.713,0-2.783-1.288-4.276-1.288-.644,0-.57-.335-1.286,0,.287,2.399,5.486,2.82,7.694,3.671-.638,2.393-1.707,3.242-2.132,5.806-1.003-.51-1.003-.425-1.997.173v.173c-1.427,1.362-1.853,3.067-2.85,4.688v1.973c.427-.441.926-.348,1.423,0-.213.851-.713,1.272-.713,2.127,0,2.304,1.924,3.245,2.353,4.869.211.854.428,2.469.715,2.813,1.205.765,1.564-1.362,2.633.255-.498.598-1.068.51-1.068,1.62,0,2.477,2.709,6.321,4.13,7.689.213.169.071,1.362.495,1.703,1.145,1.024,1.857.428,2.355,2.39.856-.089,1.994-1.111,2.988-1.111,1.785,0,1.644,3.847,3.424,3.847.43,0,.569-.51,1.424-.601.143.519.355.857.859.857,1.918,0,1.064-4.44,2.703-5.381-.146-.934,0-3.158,0-4.691,0-2.481,3.343-1.54,3.343-4.436,0-.939-.851-1.374-.851-1.963,0-.428.283-.69.495-1.029,0-.253-.138-.593-.138-.851,0-2.819,3.845-2.048,5.34-3.84.64-.767.355-1.627,1.428-2.138v1.709h1.068c1.497-1.276,3.914-.856,5.338-2.563,1.066-1.272,1.146-2.981,2.495-4.26l1.783-1.545c0-.682.708-.934,1.424-1.444h3.347c2.706-1.372,4.772-1.114,7.341-2.136,2.063-.773,2.778-3.16,5.126-4.101,1.286-.51,1.998-.599,3.063-1.62Zm-64.823,3.759h1.57c1.209,0,2.702-.26,2.846-1.709-1.854-.68-2.422-2.988-4.275-2.988-.643,0-1.562.425-1.562,1.707,0,1.021.776,2.902,1.422,2.99Zm-2.99,66.743c0-.336-.215-.851-.493-.851-1.147,0-1.579,1.45-2.143,2.558-1.066,1.964-1.854,5.81-3.848,6.994.07.258.354.434.567.434v.509c0,.087-1.278,1.284-1.278,1.62,0,.258.354.857.711.857.853,0,1.143-.508,2.209-.508.782,0,1.211.593,2.137.593.498,0,.927-.175,1.42-.42.361.849,1.287.335,1.998.335-.211.514-.783.514-.783,1.366,0,.169.287,0,.428,0,.853,0,1.5-1.281,2.066-2.314.57.689.141,2.314.713,2.314.213,0,.356.169.567.169,0,.339.146,1.022.645,1.022.706,0,1.135-1.022,1.135-2.044,0-.849-.495-.773-.495-1.795-.429.334-.218.51-.928.51,0-.595-.499-.938-.499-1.363,0-.343.641-.512.715-1.285-.283,0-.646.089-.784.258,0-1.278.069-2.049.069-2.815-.355.262-1.279.262-2.068,0l-.854.343v-.424h-1.281v-.775l.359-.417c-.285-.351-.711-.435-1.14-.435-.497,0-.497.513-1.069.682v-.762c.424-1.548,1.924-2.473,1.924-4.356Zm-51.36-4.262c.068,0,.353.077.353,0,0-1.199-1.209-1.452-2.422-1.452.076.165.076.424,0,.595.426.515,1.428.857,2.069.857Zm-92.533,10.924c1.139.856,3.63,3.156,5.268,3.156h.643v-.77c-1.851-2.218-3.562-4.265-6.625-5.464-.501-.172-1.138-1.194-1.924-1.194-.352,0-.709.257-.996.422h.287s.709.259,1.069.347c-.078.254-.359.6-.711.765.281,1.025,2.276,1.884,3.702,1.884-.213.26-.568.26-.712.854Zm-10.686-11.605c0-.434-.356-.606-.356-1.025,0-.854.146-1.371,0-1.879-.138.42-.422,1.1-.925,1.1-.426,0,.426-.932.426-1.019-.639-.082-.998-.601-1.641-.601v.688c.289.512.574,1.53.855,1.53.431,0,.573.943,1.147,1.113,0,.168-.284.431-.284.94,0,.685.422,1.619.992,1.619.712,0-.57-1.28-.57-1.619s.356-.51.356-.849Zm-46.021-15.029v1.024c.504.427.861.512,1.495,1.119,1.07-1.032,1.501-1.63,2.781-2.4v-1.022h-.854c-1.281,0-2.208.854-3.422,1.279Zm188.06,26.883c-1.494-1.02-2.849-2.641-5.057-2.039.857.764,2.921,2.553,4.061,2.553.569,0,.785-.081.996-.514Zm-4.417,7.174c-.141.089-.284.338-.284.598,0,.594,2.637,2.221,3.138,2.221.14,0,.853-.433.853-.94v-.517h-2.137c-.709-.17-1.212-.508-1.569-1.361Zm8.194,2.818v-.597c-1.641,0-.568-.513-.568-1.282,0-.342-.357-.511-.498-.851-.644.249-1.64,2.389-1.64,2.905,0,.507.429.934,1.141.934.778,0,1.565-.512,1.565-1.109ZM15.659,120.188c-.57,0-.789-.169-1.071.595h-1.066c.14.337.566.604.852.857h2.355c-.147-.857-.215-1.451-1.07-1.451Z"/>
  </g>
</svg>